<?xml version="1.0" standalone="no"?>
<!DOCTYPE svg PUBLIC "-//W3C//DTD SVG 1.1//EN" "http://www.w3.org/Graphics/SVG/1.1/DTD/svg11.dtd" >
<svg xmlns="http://www.w3.org/2000/svg" xmlns:xlink="http://www.w3.org/1999/xlink" version="1.1">
<metadata>
Created by FontForge 20200427 at Wed Nov  2 02:47:14 2016
 By www
Modern and elegant sans serif font.
</metadata>
<defs>
<font id="Nexa-Book" horiz-adv-x="689" >
  <font-face 
    font-family="Nexa-Book"
    font-weight="400"
    font-stretch="normal"
    units-per-em="1000"
    panose-1="2 0 0 0 0 0 0 0 0 0"
    ascent="703"
    descent="-297"
    x-height="494"
    cap-height="700"
    bbox="-286 -298 1087 980"
    underline-thickness="50"
    underline-position="-100"
    unicode-range="U+0020-FB02"
  />
<missing-glyph horiz-adv-x="645" 
d="M37 700h538v-700h-538v700zM176 446q0 52 37 75t89 23q136 0 136 -98q0 -22 -5.5 -38t-19 -26t-22.5 -14.5t-29 -11.5q-56 -18 -77 -49.5t-21 -100.5l49 -1q0 56 11 75t55 33q20 7 29 11t27 15t27 23.5t16.5 34.5t7.5 49q0 75 -53 109t-131 34q-74 0 -124.5 -35
t-50.5 -108h49zM256 127q0 -16 10 -25t24 -9q13 0 23 9t10 25t-10 25t-23 9q-14 0 -24 -9t-10 -25z" />
    <glyph glyph-name=".notdef" horiz-adv-x="645" 
d="M37 700h538v-700h-538v700zM176 446q0 52 37 75t89 23q136 0 136 -98q0 -22 -5.5 -38t-19 -26t-22.5 -14.5t-29 -11.5q-56 -18 -77 -49.5t-21 -100.5l49 -1q0 56 11 75t55 33q20 7 29 11t27 15t27 23.5t16.5 34.5t7.5 49q0 75 -53 109t-131 34q-74 0 -124.5 -35
t-50.5 -108h49zM256 127q0 -16 10 -25t24 -9q13 0 23 9t10 25t-10 25t-23 9q-14 0 -24 -9t-10 -25z" />
    <glyph glyph-name=".null" horiz-adv-x="0" 
 />
    <glyph glyph-name="nonmarkingreturn" horiz-adv-x="333" 
 />
    <glyph glyph-name="space" unicode=" " horiz-adv-x="261" 
 />
    <glyph glyph-name="exclam" unicode="!" horiz-adv-x="253" 
d="M162 700v-547h-71v547h71zM79 44q0 23 15 36.5t35 13.5t34.5 -13.5t14.5 -36.5t-15 -36t-34 -13q-20 0 -35 13t-15 36z" />
    <glyph glyph-name="quotedbl" unicode="&#x22;" horiz-adv-x="361" 
d="M137 702v-259h-62v259h62zM286 702v-259h-61v259h61z" />
    <glyph glyph-name="numbersign" unicode="#" horiz-adv-x="678" 
d="M332 700l-40 -164h178l41 164h68l-41 -164h102v-57h-116l-66 -258h107v-59h-120l-40 -162h-68l40 162h-178l-40 -162h-68l40 162h-94v59h107l67 258h-99v57h112l40 164h68zM277 481l-68 -262h183l67 262h-182z" />
    <glyph glyph-name="dollar" unicode="$" horiz-adv-x="655" 
d="M531 551q-26 47 -82 71.5t-117 24.5q-34 0 -67.5 -6.5t-66 -20t-52 -40t-18.5 -62.5q0 -24 12 -43t29 -31t46.5 -22t55 -15.5t63.5 -11.5q52 -9 84 -16t74 -23t66 -35.5t41 -53t17 -77.5q0 -91 -76 -141.5t-175 -54.5v-98h-64v97q-86 4 -158 40t-106 105l60 31
q28 -55 94.5 -82.5t139.5 -27.5q37 0 71 6t67.5 19.5t54 41t20.5 65.5q0 23 -7.5 41.5t-26 32.5t-33.5 22.5t-47.5 17.5t-49 12.5t-55.5 11.5q-48 8 -80 14.5t-70.5 21t-61 33.5t-38.5 50t-16 72q0 46 21.5 82t58 57.5t77 33.5t85.5 15v97h65v-97q164 -15 223 -126z" />
    <glyph glyph-name="percent" unicode="%" horiz-adv-x="753" 
d="M635 700l-452 -700h-73l453 700h72zM192 699q73 0 114.5 -46t41.5 -106q0 -62 -41.5 -106t-114.5 -44q-74 0 -114.5 44t-40.5 106q0 61 41 106.5t114 45.5zM192 636q-43 0 -67 -26t-24 -61q0 -37 24 -63t68 -26q42 0 65.5 26t23.5 61q0 36 -24 62.5t-66 26.5zM561 295
q73 0 114.5 -45t41.5 -106q0 -62 -41.5 -106t-114.5 -44q-74 0 -114.5 44t-40.5 106q0 61 40.5 106t114.5 45zM561 236q-43 0 -67 -27t-24 -63q0 -37 24.5 -64.5t67.5 -27.5t67 26.5t24 63.5t-24.5 64.5t-67.5 27.5z" />
    <glyph glyph-name="ampersand" unicode="&#x26;" horiz-adv-x="695" 
d="M567 188q0 -127 83 -127v-62q-7 -1 -18 -1q-81 0 -105 87q-26 -42 -88.5 -68t-113.5 -26q-128 0 -196 50.5t-68 151.5q0 59 37.5 102t95.5 62q-54 17 -87.5 60t-33.5 97q0 88 68.5 140t181.5 52q237 0 237 -176h-62q0 119 -177 119q-90 0 -135 -38.5t-45 -95.5
q0 -46 32 -77t71.5 -42t82.5 -11h304v-55h-64v-142zM323 330q-99 0 -146 -41t-47 -97q0 -66 50 -103t143 -37q39 0 79.5 14t72 46.5t31.5 75.5v142h-183z" />
    <glyph glyph-name="quotesingle" unicode="'" horiz-adv-x="211" 
d="M136 703v-259h-61v259h61z" />
    <glyph glyph-name="parenleft" unicode="(" horiz-adv-x="332" 
d="M306 704q-89 -64 -137.5 -168t-50.5 -222q0 -120 47 -224.5t141 -172.5l-36 -51q-101 66 -158 175t-63 233q-1 12 -1 35q0 134 58 253.5t166 190.5z" />
    <glyph glyph-name="parenright" unicode=")" horiz-adv-x="330" 
d="M60 752q108 -70 165.5 -189.5t57.5 -253.5q0 -130 -56.5 -248t-165.5 -196l-35 52q92 68 139.5 170t47.5 219q0 129 -45.5 225t-142.5 172z" />
    <glyph glyph-name="asterisk" unicode="*" horiz-adv-x="365" 
d="M234 472l-53 77l-54 -77l-44 32l59 72l-83 22l16 51l82 -29l-3 85h55l-4 -85l88 28l15 -50l-89 -22l59 -72z" />
    <glyph glyph-name="plus" unicode="+" horiz-adv-x="500" 
d="M217 375v166h66v-166h168v-64h-168v-170h-66v170h-168v64h168z" />
    <glyph glyph-name="comma" unicode="," horiz-adv-x="233" 
d="M164 35q0 -11 -5.5 -28t-17.5 -46.5t-20 -51.5h-50l28 87q-30 9 -30 40q0 21 14.5 33t33.5 12t33 -12t14 -34z" />
    <glyph glyph-name="hyphen" unicode="-" horiz-adv-x="497" 
d="M71 319h355v-61h-355v61z" />
    <glyph glyph-name="period" unicode="." horiz-adv-x="231" 
d="M68 38q0 23 14 35t34 12q19 0 33 -12t14 -35q0 -22 -14 -34.5t-33 -12.5t-33.5 12.5t-14.5 34.5z" />
    <glyph glyph-name="slash" unicode="/" horiz-adv-x="484" 
d="M458 761l-364 -843h-69l363 843h70z" />
    <glyph glyph-name="zero" unicode="0" horiz-adv-x="683" 
d="M65 426q0 134 82 209.5t194 75.5t194.5 -75.5t82.5 -209.5v-152q0 -134 -82.5 -209.5t-194.5 -75.5t-194 75.5t-82 209.5v152zM133 273q0 -104 61.5 -161.5t146.5 -57.5t146.5 57.5t61.5 161.5v154q0 103 -62 160.5t-147 57.5q-84 0 -145.5 -57.5t-61.5 -160.5v-154z" />
    <glyph glyph-name="one" unicode="1" horiz-adv-x="406" 
d="M51 57h133v562l-127 -32v58l192 55v-643h132v-57h-330v57z" />
    <glyph glyph-name="two" unicode="2" horiz-adv-x="672" 
d="M68 510q1 55 25.5 95.5t65.5 62t86.5 31.5t96.5 10t97 -11t86 -34t63.5 -64.5t23.5 -97.5q0 -55 -23.5 -95.5t-63.5 -63t-86 -33t-98 -10.5q-38 0 -72.5 -6t-67 -20.5t-52 -42.5t-19.5 -66v-100h478v-65h-543v164q0 45 16 80.5t42.5 57t63 35.5t74 19.5t79.5 5.5
q47 0 90.5 11t80 44t36.5 84q0 52 -33 87t-77 48t-95 13q-37 0 -70 -6.5t-65 -21t-51 -43t-19 -68.5h-69z" />
    <glyph glyph-name="three" unicode="3" horiz-adv-x="663" 
d="M220 329v59h110q87 0 142 38.5t55 90.5q0 53 -51 93.5t-143 40.5q-47 0 -88 -9t-75.5 -39.5t-34.5 -79.5h-68q0 52 24 90.5t64.5 58t84 28.5t92.5 9q117 0 187.5 -53t70.5 -139q0 -57 -36.5 -101t-94.5 -56q62 -12 103.5 -57t41.5 -108q0 -94 -73.5 -149t-197.5 -55
q-51 0 -96.5 9t-88 29.5t-67.5 60.5t-25 95h67q0 -130 211 -130q93 0 148 39t55 99q0 54 -52.5 95t-149.5 41h-115z" />
    <glyph glyph-name="four" unicode="4" horiz-adv-x="646" 
d="M517 700v-483h82v-59h-82v-158h-65v158h-417l-12 54l416 488h78zM452 217v402l-347 -402h347z" />
    <glyph glyph-name="five" unicode="5" horiz-adv-x="659" 
d="M571 636h-426v-205h207q129 0 193.5 -59t64.5 -156t-72.5 -159.5t-199.5 -62.5q-53 0 -99 10t-87 32t-65 63t-24 98h68q0 -140 206 -140q95 0 149.5 44.5t54.5 114.5t-46.5 110.5t-142.5 40.5h-273v333h492v-64z" />
    <glyph glyph-name="six" unicode="6" 
d="M146 339q31 47 90.5 69.5t121.5 22.5q53 0 100 -12t88 -36.5t65 -68.5t24 -103q0 -75 -42.5 -126.5t-103 -72.5t-132.5 -21q-53 0 -101.5 13t-89 38.5t-65 69.5t-24.5 101v295q0 97 80 150t191 53q116 0 191.5 -44t79.5 -133h-72q-4 57 -59 85.5t-139 28.5
q-48 0 -92.5 -13.5t-77.5 -46.5t-33 -80v-169zM357 56q52 0 97 14t78 50.5t33 90.5q0 81 -61.5 119.5t-145.5 38.5q-81 0 -146 -41.5t-65 -115.5q0 -54 33.5 -90.5t78.5 -51t98 -14.5z" />
    <glyph glyph-name="seven" unicode="7" horiz-adv-x="562" 
d="M108 0l357 632h-433v68h511l7 -51l-363 -649h-79z" />
    <glyph glyph-name="eight" unicode="8" horiz-adv-x="703" 
d="M59 191q0 61 42 107t104 63q-132 47 -132 158q0 69 42.5 114.5t102.5 63t133 17.5q53 0 100.5 -10t89 -32t66 -61t24.5 -92q0 -57 -37.5 -97.5t-99.5 -60.5q63 -16 106 -63t43 -107q0 -56 -24 -97t-65.5 -64.5t-92 -34t-110.5 -10.5t-110 11t-92 34t-66 64t-24 97z
M142 520q0 -46 36.5 -76.5t81 -41.5t92.5 -11t92.5 11t81 41.5t36.5 76.5q0 70 -61 102.5t-150 32.5t-149 -32.5t-60 -102.5zM352 332q-34 0 -70 -7.5t-71.5 -22.5t-58.5 -44.5t-23 -67.5q0 -70 66.5 -107t156.5 -37q91 0 156.5 36.5t65.5 107.5q0 49 -39.5 83t-87.5 46.5
t-95 12.5z" />
    <glyph glyph-name="nine" unicode="9" horiz-adv-x="691" 
d="M547 363q-31 -47 -91 -69.5t-123 -22.5q-53 0 -100 12t-88 36.5t-65 68.5t-24 103q0 75 42.5 126.5t103 72.5t132.5 21q53 0 101.5 -13t89 -38.5t65 -69.5t24.5 -101v-295q0 -97 -81.5 -150.5t-192.5 -53.5q-116 0 -193 44.5t-81 133.5h72q4 -56 60.5 -85.5t140.5 -29.5
q48 0 93.5 13.5t80 47t34.5 80.5v169zM334 646q-52 0 -97 -14t-78 -50.5t-33 -90.5q0 -81 61.5 -119.5t145.5 -38.5q81 0 146 41.5t65 115.5q0 54 -33.5 90.5t-78.5 51t-98 14.5z" />
    <glyph glyph-name="colon" unicode=":" horiz-adv-x="237" 
d="M71 336q0 22 14 34t34 12q19 0 33 -12t14 -34t-14 -34.5t-33 -12.5t-33.5 12.5t-14.5 34.5zM71 38q0 23 14 35t34 12q19 0 33 -12t14 -35q0 -22 -14 -34.5t-33 -12.5t-33.5 12.5t-14.5 34.5z" />
    <glyph glyph-name="semicolon" unicode=";" horiz-adv-x="237" 
d="M71 336q0 22 14 34t34 12q19 0 33 -12t14 -34t-14 -34.5t-33 -12.5t-33.5 12.5t-14.5 34.5zM165 35q0 -11 -5.5 -28t-17.5 -46.5t-20 -51.5h-50l28 87q-29 9 -29 40q0 5 2 9q3 18 16 27.5t29 9.5q20 0 33.5 -12t13.5 -35z" />
    <glyph glyph-name="less" unicode="&#x3c;" horiz-adv-x="366" 
d="M309 150l-45 -46l-216 196v33l216 197l42 -47l-183 -166z" />
    <glyph glyph-name="equal" unicode="=" horiz-adv-x="557" 
d="M75 450h407v-63h-407v63zM75 243h407v-63h-407v63z" />
    <glyph glyph-name="greater" unicode="&#x3e;" horiz-adv-x="366" 
d="M243 317l-183 168l42 45l216 -197v-33l-216 -196l-45 45z" />
    <glyph glyph-name="question" unicode="?" horiz-adv-x="600" 
d="M35 503q0 105 75.5 156t184.5 51q53 0 98 -10.5t84 -33.5t61.5 -64.5t22.5 -98.5q0 -46 -12.5 -79.5t-39 -55t-43.5 -30t-51 -21.5q-7 -3 -10 -4q-65 -22 -84 -50t-19 -107h-68q0 98 32 143t114 71q52 18 81 46t29 88q0 42 -17.5 71t-48.5 43.5t-62 20.5t-68 6
q-34 0 -65.5 -7t-60.5 -22.5t-46.5 -44.5t-17.5 -68h-69zM224 46q0 23 14.5 36t34.5 13t34.5 -13t14.5 -36t-14.5 -36.5t-34.5 -13.5t-34.5 13.5t-14.5 36.5z" />
    <glyph glyph-name="at" unicode="@" horiz-adv-x="896" 
d="M452 624q-147 0 -241.5 -93t-94.5 -240q0 -150 93.5 -237.5t240.5 -87.5q79 0 153 38l29 -47q-82 -49 -182 -49q-177 0 -287 104.5t-110 278.5q0 171 111 281.5t288 110.5q185 0 290.5 -96t105.5 -292q0 -90 -37.5 -167t-99.5 -77q-31 0 -54.5 21.5t-23.5 62.5
q-29 -47 -80.5 -73t-106.5 -26q-105 0 -178 72.5t-73 177.5q0 110 72 180t179 70q57 0 108 -27t78 -75l2 77l56 -1v-368q0 -34 24 -34q20 0 35.5 23t23 55.5t11.5 61t4 47.5q0 175 -87 252t-249 77zM446 474q-81 0 -133.5 -52.5t-52.5 -135.5q0 -77 53.5 -132t132.5 -55
q88 0 136.5 55t48.5 133q0 77 -48.5 132t-136.5 55z" />
    <glyph glyph-name="A" unicode="A" horiz-adv-x="740" 
d="M573 162h-406l-72 -162h-74l314 700h70l314 -700h-74zM195 226h350l-175 398z" />
    <glyph glyph-name="B" unicode="B" horiz-adv-x="704" 
d="M395 700q101 0 167.5 -47t66.5 -145q0 -51 -29.5 -91.5t-80.5 -57.5q61 -17 96 -65.5t35 -104.5q0 -42 -14.5 -75t-38.5 -54t-58 -35t-69 -19.5t-75 -5.5h-298v700h298zM167 390h233q69 0 114 29.5t45 89.5q0 65 -46.5 95.5t-117.5 30.5h-228v-245zM167 66h228q33 0 63 6
t59 19t46 38.5t17 60.5q0 67 -54.5 101.5t-125.5 34.5h-233v-260z" />
    <glyph glyph-name="C" unicode="C" horiz-adv-x="709" 
d="M672 95q-106 -106 -255 -106q-174 0 -269 101.5t-95 255.5q0 99 39 179.5t123.5 132.5t201.5 52q73 0 138.5 -26.5t109.5 -78.5l-43 -43q-85 84 -205 84q-139 0 -216.5 -87.5t-77.5 -211.5q0 -129 76.5 -211t217.5 -82q124 0 210 86z" />
    <glyph glyph-name="D" unicode="D" horiz-adv-x="748" 
d="M344 700q86 0 154.5 -29t110.5 -78t64 -109.5t22 -126.5q0 -69 -21 -131t-62 -113.5t-110.5 -82t-157.5 -30.5h-247v700h247zM167 65h177q135 0 207.5 85.5t72.5 200.5q0 114 -73 198.5t-207 84.5h-177v-569z" />
    <glyph glyph-name="E" unicode="E" horiz-adv-x="655" 
d="M599 0h-502v700h493v-66h-423v-251h404v-65h-404v-252h432v-66z" />
    <glyph glyph-name="F" unicode="F" horiz-adv-x="627" 
d="M97 0v700h479v-66h-409v-266h394v-66h-394v-302h-70z" />
    <glyph glyph-name="G" unicode="G" horiz-adv-x="747" 
d="M631 562q-84 84 -215 84q-138 0 -215.5 -87t-77.5 -212q0 -122 76.5 -205.5t216.5 -83.5q115 0 201 76v177h-229v65h296v-271q-110 -115 -268 -115q-174 0 -268.5 102.5t-94.5 253.5q0 162 99.5 264.5t263.5 100.5q150 2 257 -104z" />
    <glyph glyph-name="H" unicode="H" horiz-adv-x="758" 
d="M591 0v310h-424v-310h-70v700h70v-324h424v324h70v-700h-70z" />
    <glyph glyph-name="I" unicode="I" horiz-adv-x="264" 
d="M97 0v700h70v-700h-70z" />
    <glyph glyph-name="J" unicode="J" horiz-adv-x="684" 
d="M595 700v-427q0 -130 -79 -206t-206 -76q-125 0 -204.5 76.5t-79.5 203.5h70q0 -98 59 -156t155 -58q97 0 156 57.5t59 158.5v362h-257v65h327z" />
    <glyph glyph-name="K" unicode="K" horiz-adv-x="606" 
d="M575 695l-341 -331l371 -359v-5h-87l-351 339v-339h-70v700h70v-315l325 315h83v-5z" />
    <glyph glyph-name="L" unicode="L" horiz-adv-x="573" 
d="M167 700v-634h389v-66h-459v700h70z" />
    <glyph glyph-name="M" unicode="M" horiz-adv-x="877" 
d="M710 597l-261 -384h-20l-262 389v-602h-70v700h86l256 -386l253 386h88v-700h-70v597z" />
    <glyph glyph-name="N" unicode="N" horiz-adv-x="757" 
d="M594 132l-4 232v336h70v-700h-42l-453 563l2 -207v-356h-70v700h44z" />
    <glyph glyph-name="O" unicode="O" horiz-adv-x="813" 
d="M407 711q86 1 155 -29t111.5 -82t65 -116.5t22.5 -135.5q0 -148 -93.5 -255t-260.5 -105q-86 -1 -155.5 29t-112 82t-65 116t-22.5 134q0 154 95.5 259t259.5 103zM122 355q0 -59 17.5 -112.5t51.5 -96.5t90 -68t126 -24q69 -1 124 23.5t89.5 66.5t52.5 94.5t18 109.5
q0 125 -74 212t-210 85q-134 2 -209.5 -81t-75.5 -209z" />
    <glyph glyph-name="P" unicode="P" horiz-adv-x="679" 
d="M167 233v-233h-70v700h313q111 0 173 -69.5t62 -163.5q0 -95 -62 -164.5t-173 -69.5h-243zM167 299h243q78 0 121 50t43 118t-43 117.5t-121 49.5h-243v-335z" />
    <glyph glyph-name="Q" unicode="Q" horiz-adv-x="815" 
d="M407 711q170 0 262.5 -104t92.5 -255q0 -136 -78 -236l87 -85l-48 -50l-88 86q-89 -75 -228 -76q-116 1 -198.5 53t-120.5 132t-36 179q0 148 93.5 252t261.5 104zM407 645q-129 0 -207 -84t-78 -207q0 -125 74 -210t211 -87q137 2 211.5 88t72.5 208q0 126 -73.5 209
t-210.5 83z" />
    <glyph glyph-name="R" unicode="R" horiz-adv-x="708" 
d="M671 0h-91l-232 258h-181v-258h-70v700h314q111 0 171.5 -64t60.5 -158q0 -88 -52.5 -148.5t-158.5 -66.5zM167 634v-310h240q81 0 123.5 42.5t42.5 111.5t-42 112.5t-120 43.5h-244z" />
    <glyph glyph-name="S" unicode="S" horiz-adv-x="660" 
d="M534 556q-27 45 -83 67t-118 22q-36 0 -68 -6t-62.5 -19t-48.5 -39.5t-18 -63.5q0 -30 14.5 -51t46 -35t60.5 -21t78 -16q51 -9 83.5 -16.5t73.5 -23t64.5 -35.5t40 -53t16.5 -76q0 -46 -17 -81.5t-44.5 -57.5t-65 -36.5t-75 -20t-78.5 -5.5q-96 0 -175.5 38t-116.5 117
l61 33q33 -63 96 -92t135 -29q37 0 70 5.5t66 19.5t53 42t20 68q0 27 -12.5 49t-30.5 35.5t-49 24.5t-57 16.5t-65 12.5q-41 8 -66 13t-60 15.5t-55.5 23.5t-41 31.5t-30 45t-9.5 59.5q-1 53 23.5 92.5t65.5 60.5t85.5 31t91.5 10q183 0 261 -122z" />
    <glyph glyph-name="T" unicode="T" horiz-adv-x="596" 
d="M263 634h-247v66h564v-66h-247v-634h-70v634z" />
    <glyph glyph-name="U" unicode="U" horiz-adv-x="734" 
d="M645 700v-430q0 -136 -78 -208t-198 -72q-121 0 -200.5 72.5t-79.5 207.5v430h70v-430q0 -98 59.5 -156.5t150.5 -58.5q86 0 146 55.5t60 159.5v430h70z" />
    <glyph glyph-name="V" unicode="V" horiz-adv-x="722" 
d="M401 -2h-78l-298 702h77l260 -625l256 625h78z" />
    <glyph glyph-name="W" unicode="W" horiz-adv-x="1080" 
d="M801 -2h-71l-105 301l-85 265l-84 -264l-105 -302h-72l-248 702h79l204 -606l204 606h44l204 -606l205 606h78z" />
    <glyph glyph-name="X" unicode="X" horiz-adv-x="622" 
d="M518 700h76v-2l-237 -340l253 -356v-2h-82l-114 162l-103 154l-109 -161l-110 -155h-80v2l253 356l-237 340v2h78l106 -151l99 -148l103 152z" />
    <glyph glyph-name="Y" unicode="Y" horiz-adv-x="663" 
d="M331 350l226 350h82v-2l-273 -416v-282h-70v282l-269 416v2h81z" />
    <glyph glyph-name="Z" unicode="Z" horiz-adv-x="596" 
d="M61 700h496v-30l-435 -602h435v-68h-535v36l428 599h-389v65z" />
    <glyph glyph-name="bracketleft" unicode="[" horiz-adv-x="319" 
d="M89 -170v883h194v-63h-127v-759h127v-61h-194z" />
    <glyph glyph-name="backslash" unicode="\" horiz-adv-x="485" 
d="M97 761l363 -843h-70l-364 843h71z" />
    <glyph glyph-name="bracketright" unicode="]" horiz-adv-x="319" 
d="M36 -169v63h126v757h-126v63h194v-883h-194z" />
    <glyph glyph-name="asciicircum" unicode="^" horiz-adv-x="593" 
d="M50 373l217 327h57l219 -327l-2 -4h-71l-174 266l-177 -266h-67z" />
    <glyph glyph-name="underscore" unicode="_" horiz-adv-x="609" 
d="M70 -22h469v-60h-469v60z" />
    <glyph glyph-name="grave" unicode="`" horiz-adv-x="234" 
d="M23 700h82l74 -124v-4h-63l-93 126v2z" />
    <glyph glyph-name="a" unicode="a" horiz-adv-x="634" 
d="M495 494h63v-494h-62v98q-31 -52 -85 -80t-113 -28q-108 0 -180 71t-72 186q0 114 72.5 184t180.5 70q60 0 114.5 -27.5t81.5 -77.5v98zM301 440q-80 0 -134 -53.5t-54 -139.5t54 -140t134 -54q91 0 141 57.5t50 136.5q0 78 -50 135.5t-141 57.5z" />
    <glyph glyph-name="b" unicode="b" horiz-adv-x="635" 
d="M145 703v-308q27 52 80 79.5t114 26.5q107 2 178 -67t71 -188q0 -120 -70 -188t-179 -68q-132 0 -194 104l-4 -94h-63v703h67zM335 438q-80 0 -134 -53.5t-54 -137.5q0 -85 53.5 -139t134.5 -54q80 0 133 51t53 141t-53 141t-133 51z" />
    <glyph glyph-name="c" unicode="c" horiz-adv-x="516" 
d="M485 65q-76 -75 -183 -75q-109 0 -182.5 69t-73.5 187t72.5 186.5t183.5 68.5q102 0 175 -73l-44 -43q-54 53 -130 53q-82 0 -136 -51.5t-54 -140.5q0 -90 54 -141t135 -51t137 56z" />
    <glyph glyph-name="d" unicode="d" horiz-adv-x="635" 
d="M557 699v-699h-65l-2 98q-29 -53 -81 -80.5t-113 -27.5q-109 0 -179 68t-70 188q0 119 70.5 188t178.5 67q61 1 114 -26.5t80 -79.5v304h67zM300 438q-81 0 -133.5 -50.5t-52.5 -141.5q0 -90 53 -141t133 -51t133.5 54t53.5 139q0 84 -53.5 137.5t-133.5 53.5z" />
    <glyph glyph-name="e" unicode="e" horiz-adv-x="586" 
d="M115 218q6 -76 58.5 -120t128.5 -44q47 0 95 18t72 50l45 -40q-36 -44 -93 -68t-119 -24q-112 0 -184 70.5t-72 186.5q0 111 71.5 183.5t181.5 70.5q108 2 178 -60.5t70 -182.5q0 -12 -2 -40h-430zM482 275q-2 79 -53 123t-129 44q-76 0 -125.5 -43.5t-59.5 -123.5h367z
" />
    <glyph glyph-name="f" unicode="f" horiz-adv-x="372" 
d="M132 0v431h-98v58h98v41q0 83 39.5 129t118.5 46q59 0 106 -35l-29 -50q-42 25 -76 25q-92 0 -92 -115v-41h158v-58h-158v-431h-67z" />
    <glyph glyph-name="g" unicode="g" horiz-adv-x="611" 
d="M504 524l46 -38l-53 -63q32 -36 49 -73t17 -91q0 -70 -38.5 -128t-110.5 -79q146 -39 146 -162q0 -88 -74.5 -138t-179.5 -50q-109 0 -179.5 55t-70.5 149h67q0 -66 53.5 -102.5t129.5 -36.5t131 31t55 92t-55 93.5t-131 32.5q-116 0 -187.5 65t-71.5 178t78.5 177.5
t180.5 64.5q91 0 146 -39zM306 439q-76 0 -133.5 -46.5t-57.5 -133.5q0 -88 53 -134.5t138 -46.5q84 0 137 52.5t53 128.5q0 87 -55.5 133.5t-134.5 46.5z" />
    <glyph glyph-name="h" unicode="h" horiz-adv-x="594" 
d="M144 700v-292q55 91 172 93q101 0 153.5 -61t52.5 -163v-277h-67v277q0 77 -36.5 118.5t-110.5 41.5q-71 0 -117 -49t-46 -122v-266h-67v700h66z" />
    <glyph glyph-name="i" unicode="i" horiz-adv-x="223" 
d="M65 649q0 22 14 34.5t33 12.5t33.5 -12.5t14.5 -34.5q0 -23 -14 -35t-34 -12q-19 0 -33 12t-14 35zM145 496v-496h-67v496h67z" />
    <glyph glyph-name="j" unicode="j" horiz-adv-x="223" 
d="M64 653q0 22 14 34.5t33 12.5t33.5 -12.5t14.5 -34.5q0 -23 -14 -35t-34 -12q-19 0 -33 12t-14 35zM145 495v-564q0 -86 -30 -132t-107 -46q-48 0 -94 28l21 55q34 -18 71 -18q32 0 48.5 16.5t20 37.5t3.5 59v564h67z" />
    <glyph glyph-name="k" unicode="k" horiz-adv-x="482" 
d="M144 700v-418l216 212h85v-4l-237 -229l266 -257v-4h-86l-244 237v-237h-66v700h66z" />
    <glyph glyph-name="l" unicode="l" horiz-adv-x="237" 
d="M152 700v-700h-67v700h67z" />
    <glyph glyph-name="m" unicode="m" horiz-adv-x="929" 
d="M435 0v286q0 66 -40.5 110t-104.5 44t-104.5 -44t-40.5 -110v-286h-67v496h63l3 -79q43 84 153 84q134 0 174 -112q24 56 71.5 84t106.5 28q94 0 151 -57.5t57 -155.5v-288h-67v288q0 67 -39 109.5t-103 42.5t-105 -44t-41 -110v-286h-67z" />
    <glyph glyph-name="n" unicode="n" horiz-adv-x="608" 
d="M468 0v277q0 79 -42.5 120.5t-118.5 41.5q-71 0 -116.5 -49t-45.5 -121v-269h-67v494h64l2 -83q54 91 175 91q46 0 85 -14q61 -21 96.5 -75.5t35.5 -134.5v-278h-68z" />
    <glyph glyph-name="o" unicode="o" horiz-adv-x="600" 
d="M300 501q109 0 181.5 -72t72.5 -185q0 -114 -71.5 -184t-182.5 -70q-110 0 -182 70.5t-72 183.5q0 114 71 185.5t183 71.5zM300 440q-82 0 -134.5 -55t-52.5 -141t52 -138.5t135 -52.5q84 0 135.5 52t51.5 139q0 86 -52.5 141t-134.5 55z" />
    <glyph glyph-name="p" unicode="p" horiz-adv-x="635" 
d="M78 -236v730h65l2 -105q29 53 81 82.5t116 29.5q107 0 176.5 -69.5t69.5 -184.5q0 -118 -70 -187.5t-180 -69.5q-60 0 -112.5 28t-81.5 82v-336h-66zM335 55q81 0 133.5 51t52.5 141t-51.5 140t-134.5 50q-81 0 -133 -54.5t-52 -136.5t52.5 -136.5t132.5 -54.5z" />
    <glyph glyph-name="q" unicode="q" horiz-adv-x="635" 
d="M491 -236v336q-29 -54 -81.5 -82t-112.5 -28q-110 0 -180 69.5t-70 187.5q0 115 69.5 184.5t176.5 69.5q64 0 116 -29.5t81 -82.5l2 105h65v-730h-66zM300 55q79 0 132 54.5t53 136.5t-52 136.5t-133 54.5q-83 0 -134.5 -50t-51.5 -140t52.5 -141t133.5 -51z" />
    <glyph glyph-name="r" unicode="r" horiz-adv-x="418" 
d="M141 494l4 -81q43 89 157 89q62 0 112 -35l-31 -56q-38 26 -85 26q-64 0 -108.5 -44.5t-44.5 -111.5v-281h-67v494h63z" />
    <glyph glyph-name="s" unicode="s" horiz-adv-x="499" 
d="M400 391q-55 50 -146 50q-58 0 -97 -20t-37 -58q0 -27 23 -45t48.5 -24.5t63.5 -11.5q28 -4 40 -6t38.5 -8t39.5 -12t32.5 -17.5t29 -25t17 -34t7.5 -45.5q-2 -73 -60.5 -108.5t-142.5 -35.5q-147 0 -219 96l42 46q59 -78 178 -80q53 0 94 19t41 64q0 44 -35 61t-108 27
q-33 5 -57 10t-51.5 15.5t-45 24t-29.5 36.5t-12 52q0 69 59 105t140 36q113 0 186 -67z" />
    <glyph glyph-name="t" unicode="t" horiz-adv-x="392" 
d="M203 640v-150h160v-57h-160v-276q0 -51 18.5 -77t65.5 -26q31 0 72 19l21 -56q-53 -24 -98 -24q-146 0 -146 164v276h-101v57h101v143z" />
    <glyph glyph-name="u" unicode="u" horiz-adv-x="606" 
d="M144 494v-277q0 -77 40 -119t113 -42q72 0 118.5 48t46.5 121v269h66v-494h-62l-2 83q-58 -91 -175 -93q-96 0 -154 61t-58 165v278h67z" />
    <glyph glyph-name="v" unicode="v" horiz-adv-x="554" 
d="M522 494l-208 -495h-74l-208 495h74l171 -421l171 421h74z" />
    <glyph glyph-name="w" unicode="w" horiz-adv-x="833" 
d="M443 494l140 -421l139 421h74l-174 -495h-76l-73 199l-56 187l-57 -188l-73 -198h-76l-175 495h74l140 -421l140 421h53z" />
    <glyph glyph-name="x" unicode="x" horiz-adv-x="490" 
d="M379 494h81v-3l-173 -237l186 -252v-2h-80l-148 207l-148 -207h-80v2l186 252l-173 237v3h80l135 -194z" />
    <glyph glyph-name="y" unicode="y" horiz-adv-x="544" 
d="M515 494l-313 -730h-73l104 242l-198 488h75l105 -273l55 -142l56 142l115 273h74z" />
    <glyph glyph-name="z" unicode="z" horiz-adv-x="466" 
d="M425 494v-29l-292 -401h293v-64h-395v25l295 408h-278v61h377z" />
    <glyph glyph-name="braceleft" unicode="{" horiz-adv-x="318" 
d="M282 -131q-25 -4 -52 -4q-70 0 -93.5 40t-23.5 135v117q0 110 -76 110v52q76 0 76 109v136q0 75 27 112.5t88 37.5q24 0 54 -6v-49q-21 3 -37 3q-38 0 -52.5 -22.5t-14.5 -76.5v-135q0 -27 -1.5 -42.5t-7.5 -37t-21.5 -35t-40.5 -20.5q25 -7 40 -20.5t21.5 -34.5t8 -37.5
t1.5 -43.5v-144q0 -53 14 -74.5t51 -21.5q9 0 39 4v-52z" />
    <glyph glyph-name="bar" unicode="|" horiz-adv-x="246" 
d="M157 -110h-68v827h68v-827z" />
    <glyph glyph-name="braceright" unicode="}" horiz-adv-x="318" 
d="M37 -84q30 -4 40 -4q37 0 50 21t13 75v144q0 27 1.5 42.5t7.5 37.5t22 36t41 20q-25 6 -41 19.5t-22 35t-7.5 37t-1.5 43.5v135q0 54 -14.5 76.5t-52.5 22.5q-15 0 -36 -3v49q25 5 53 5q61 0 88 -36.5t27 -112.5v-136q0 -110 77 -110v-52q-77 0 -77 -109v-118
q0 -95 -23 -135t-93 -40q-25 0 -52 4v53z" />
    <glyph glyph-name="asciitilde" unicode="~" horiz-adv-x="630" 
d="M557 344q-35 -108 -119 -108q-28 0 -68 16l-118 60q-28 15 -53 15q-51 0 -75 -62l-49 20q18 49 51 74.5t74 25.5q35 0 66 -17l119 -59q27 -12 50 -12q51 0 70 65z" />
    <glyph glyph-name="exclamdown" unicode="&#xa1;" horiz-adv-x="235" 
d="M165 447q0 -23 -14.5 -36.5t-34.5 -13.5t-35 13.5t-15 36.5t15 36t35 13t34.5 -13t14.5 -36zM82 -209v548h71v-548h-71z" />
    <glyph glyph-name="cent" unicode="&#xa2;" horiz-adv-x="536" 
d="M485 56q-64 -61 -150 -72v-71h-65v72q-98 12 -160.5 79t-62.5 172q0 102 62 171t161 81v63h65v-63q86 -11 150 -72l-43 -43q-61 56 -138 56q-81 0 -136 -52t-55 -141q0 -90 54.5 -140.5t136.5 -50.5q75 0 137 59z" />
    <glyph glyph-name="sterling" unicode="&#xa3;" horiz-adv-x="649" 
d="M178 500q0 -40 24 -143h250v-58h-237q4 -34 4 -53q0 -114 -81 -183h453v-63h-532v65q96 86 96 182q0 24 -5 52h-91v58h78q-25 98 -25 143q0 100 68 153.5t175 53.5q102 0 165 -44.5t65 -143.5h-63q-4 127 -167 127q-80 0 -128.5 -39t-48.5 -107z" />
    <glyph glyph-name="currency" unicode="&#xa4;" horiz-adv-x="603" 
d="M125 93l-50 49l60 59q-39 54 -39 120q0 69 39 123l-60 59l50 50l58 -60q52 34 119 34q65 0 117 -34l60 60l49 -50l-59 -58q37 -52 37 -122q0 -71 -38 -122l60 -59l-49 -49l-61 60q-49 -33 -117 -33q-67 0 -117 33zM301 177q68 0 106 43t38 103q0 61 -38 104t-106 43
q-66 0 -105 -43.5t-39 -103.5q0 -59 39 -102.5t105 -43.5z" />
    <glyph glyph-name="yen" unicode="&#xa5;" horiz-adv-x="673" 
d="M523 162h-153v-162h-70v162h-157v55h157v60h-157v55h124l-236 366v2h81l223 -352l226 352h82v-2l-240 -366h120v-55h-153v-60h153v-55z" />
    <glyph glyph-name="brokenbar" unicode="&#xa6;" horiz-adv-x="243" 
d="M89 342v365h65v-365h-65zM154 276v-365h-65v365h65z" />
    <glyph glyph-name="section" unicode="&#xa7;" horiz-adv-x="561" 
d="M104 123q61 -79 179 -79q35 0 66 7t56.5 27.5t25.5 51.5q0 14 -5 25t-18.5 19t-23 12.5t-33 9.5t-33.5 6.5t-39 5.5q-208 22 -208 139q0 35 24.5 67.5t67.5 46.5q-90 31 -90 112q0 49 33.5 82t79.5 46t100 13q123 0 194 -68l-43 -41q-59 49 -152 49q-61 0 -102.5 -20.5
t-41.5 -59.5q0 -21 12.5 -36.5t37.5 -24t44 -12.5t48 -8q33 -4 58 -8t56.5 -14t52 -24t35 -36.5t14.5 -51.5q0 -93 -98 -117q98 -28 98 -111q0 -42 -20.5 -72.5t-54.5 -46.5t-69.5 -23t-73.5 -7q-69 0 -129.5 25t-94.5 72zM432 351q0 38 -47.5 61.5t-108.5 23.5
q-58 0 -98 -22.5t-39 -64.5q0 -38 45 -60t105 -22q59 0 101 22t42 62z" />
    <glyph glyph-name="dieresis" unicode="&#xa8;" horiz-adv-x="455" 
d="M63 672q0 21 13 32.5t31 11.5t31 -11.5t13 -32.5t-13 -32.5t-31 -11.5t-31 11.5t-13 32.5zM286 672q0 21 13 32.5t31 11.5t31 -11.5t13 -32.5t-13 -32.5t-31 -11.5t-31 11.5t-13 32.5z" />
    <glyph glyph-name="copyright" unicode="&#xa9;" horiz-adv-x="834" 
d="M418 714q167 0 264 -104.5t97 -260.5q0 -155 -97 -260t-264 -105q-168 0 -265.5 105t-97.5 260q0 156 97.5 260.5t265.5 104.5zM119 349q0 -132 80.5 -219.5t218.5 -87.5t217 87t79 220q0 134 -79 221.5t-217 87.5t-218.5 -88t-80.5 -221zM431 156q-85 0 -141.5 55
t-56.5 140t56.5 140t141.5 55q83 0 138 -58l-42 -42q-41 40 -96 40q-58 0 -97.5 -38.5t-39.5 -96.5q0 -57 40 -95.5t97 -38.5q55 0 96 41l43 -43q-59 -59 -139 -59z" />
    <glyph glyph-name="ordfeminine" unicode="&#xaa;" horiz-adv-x="496" 
d="M355 701h56v-324h-55l-1 59q-41 -65 -122 -65q-71 0 -118 45.5t-47 123.5t47 122t119 44q36 0 68.5 -16.5t52.5 -46.5v58zM238 651q-46 0 -77.5 -31t-31.5 -80t31.5 -80.5t77.5 -31.5q52 0 80.5 33t28.5 79q0 45 -28.5 78t-80.5 33zM416 248h-327v61h327v-61z" />
    <glyph glyph-name="guillemotleft" unicode="&#xab;" horiz-adv-x="435" 
d="M186 516h71v-3l-136 -216q121 -192 136 -221h-71l-139 221zM313 516h72v-3l-136 -216l136 -221h-72l-138 221z" />
    <glyph glyph-name="logicalnot" unicode="&#xac;" horiz-adv-x="511" 
d="M434 169h-64v135h-295v63h359v-198z" />
    <glyph glyph-name="uni00AD" unicode="&#xad;" horiz-adv-x="0" 
 />
    <glyph glyph-name="registered" unicode="&#xae;" horiz-adv-x="832" 
d="M416 714q168 0 264.5 -105t96.5 -260t-96.5 -260t-264.5 -105q-167 0 -264 105t-97 260t97 260t264 105zM119 349q0 -133 80 -220.5t217 -87.5t217 87.5t80 220.5t-80 220.5t-217 87.5t-217 -87.5t-80 -220.5zM591 175v-12h-63l-116 137h-75v-137h-57v379h171
q61 0 95.5 -36t34.5 -85q0 -43 -27 -76.5t-76 -39.5zM337 488v-136h112q34 0 53 20.5t19 48.5t-18.5 47.5t-51.5 19.5h-114z" />
    <glyph glyph-name="macron" unicode="&#xaf;" horiz-adv-x="407" 
d="M35 702h325v-57h-325v57z" />
    <glyph glyph-name="degree" unicode="&#xb0;" horiz-adv-x="324" 
d="M164 724q50 0 78.5 -31t28.5 -74q0 -41 -28.5 -72t-78.5 -31q-52 0 -80.5 30t-28.5 72t29 74t80 32zM164 679q-28 0 -44 -18.5t-16 -42.5t15.5 -41t44.5 -17q28 0 43 18t15 42t-15 41.5t-43 17.5z" />
    <glyph glyph-name="plusminus" unicode="&#xb1;" horiz-adv-x="529" 
d="M74 401h159v160h62v-160h159v-60h-159v-164h-62v164h-159v60zM80 103h370v-60h-370v60z" />
    <glyph glyph-name="uni00B2" unicode="&#xb2;" horiz-adv-x="362" 
d="M45 676q0 58 39 83t98 25t98.5 -25.5t39.5 -84.5q0 -33 -12 -55.5t-33.5 -34t-42 -16.5t-48.5 -7q-2 0 -16 -1.5t-16.5 -2t-13.5 -2.5t-14 -4.5t-10.5 -7t-9.5 -9.5t-4.5 -13t-2.5 -18v-27h219v-56h-273v84q0 101 136 108q84 2 84 62q0 62 -82 62q-80 0 -80 -60h-56z" />
    <glyph glyph-name="uni00B3" unicode="&#xb3;" horiz-adv-x="362" 
d="M125 582v49h52q32 0 56 12.5t24 39.5q0 20 -20.5 36.5t-59.5 16.5q-31 0 -55.5 -13t-26.5 -45h-52q0 54 39 80t95 26t96 -26t40 -75q0 -26 -15 -47.5t-40 -29.5q29 -8 46 -30.5t17 -47.5q0 -60 -42 -86t-103 -26q-58 0 -98 26t-40 83h56q3 -56 83 -56q85 0 85 59
q0 20 -20 37t-61 17h-56z" />
    <glyph glyph-name="acute" unicode="&#xb4;" horiz-adv-x="224" 
d="M183 698l-94 -126h-61v4l75 124h80v-2z" />
    <glyph glyph-name="uni00B5" unicode="&#xb5;" horiz-adv-x="603" 
d="M484 0l-6 76q-22 -43 -70 -65t-98 -20q-52 0 -96 21t-61 64v-300h-67v717h68v-280q0 -73 48 -117t112 -44q66 0 113.5 44.5t47.5 130.5v266h68v-493h-59z" />
    <glyph glyph-name="paragraph" unicode="&#xb6;" horiz-adv-x="797" 
d="M344 -215h-70v405q-115 2 -178.5 77.5t-63.5 176.5q2 104 68.5 179.5t185.5 75.5h477v-64h-103v-850h-68v850h-248v-850z" />
    <glyph glyph-name="periodcentered" unicode="&#xb7;" horiz-adv-x="239" 
d="M71 286q0 23 14.5 35.5t34.5 12.5t34 -12.5t14 -35.5t-14 -35.5t-34 -12.5t-34.5 12.5t-14.5 35.5z" />
    <glyph glyph-name="cedilla" unicode="&#xb8;" horiz-adv-x="296" 
d="M59 -126q26 -36 73 -38q26 0 44 12.5t18 36.5q0 19 -15.5 31.5t-42.5 12.5q-16 0 -36 -6l-11 10l23 89h49l-15 -54q49 2 75.5 -22.5t26.5 -60.5q0 -11 -3 -23q-9 -38 -40.5 -57.5t-70.5 -19.5q-79 2 -109 57z" />
    <glyph glyph-name="uni00B9" unicode="&#xb9;" horiz-adv-x="255" 
d="M36 469h68v243l-54 -13v51l110 27v-308h69v-50h-193v50z" />
    <glyph glyph-name="ordmasculine" unicode="&#xba;" horiz-adv-x="475" 
d="M238 371q-72 0 -120 45.5t-48 123.5t47.5 122t120.5 44q72 0 120.5 -44.5t48.5 -121.5q0 -78 -48.5 -123.5t-120.5 -45.5zM238 428q46 0 76.5 31t30.5 81t-30.5 80.5t-76.5 30.5t-76 -30.5t-30 -80.5t30 -81t76 -31zM385 252h-298v58h298v-58z" />
    <glyph glyph-name="guillemotright" unicode="&#xbb;" horiz-adv-x="433" 
d="M261 298l-138 -220h-72l136 220l-136 216v4h72zM385 298l-139 -220h-71l136 220l-136 216v4h71z" />
    <glyph glyph-name="onequarter" unicode="&#xbc;" horiz-adv-x="733" 
d="M139 -2l375 706h67l-376 -706h-66zM49 394h63v245l-54 -12v49l110 26v-308h66v-50h-185v50zM655 359v-231h43v-53h-43v-74h-55v74h-192l-4 47l186 237h65zM600 294l-131 -166h131v166z" />
    <glyph glyph-name="onehalf" unicode="&#xbd;" horiz-adv-x="787" 
d="M138 -2l375 706h67l-376 -706h-66zM49 395h62v243l-54 -13v51l112 27v-308h65v-50h-185v50zM467 256q0 58 39 84t98 26q58 0 98 -26.5t40 -85.5q0 -105 -136 -116q-2 0 -13 -1t-13.5 -1.5t-11.5 -2t-11.5 -2.5t-9.5 -3.5t-9.5 -5l-6.5 -6.5t-5.5 -8.5t-3 -11t-1.5 -13.5
v-27h217v-56h-273v84q0 99 136 106q84 2 84 64t-82 62q-80 0 -80 -60h-56z" />
    <glyph glyph-name="threequarters" unicode="&#xbe;" horiz-adv-x="771" 
d="M128 515v48h50q79 0 79 50q0 20 -20 36t-59 16q-31 0 -55 -13t-24 -44h-51q0 53 38.5 78.5t92.5 25.5q55 0 94 -25.5t39 -73.5q0 -27 -15 -47.5t-39 -27.5q28 -8 44.5 -30t16.5 -46q0 -58 -41 -84t-100 -26q-56 0 -95.5 26t-39.5 81h57q3 -55 80 -55q83 0 83 58
q0 19 -20.5 36t-60.5 17h-54zM190 -3l375 707h65l-376 -707h-64zM692 358v-231h44v-53h-44v-74h-55v74h-192l-4 47l182 237h69zM637 293l-131 -166h131v166z" />
    <glyph glyph-name="questiondown" unicode="&#xbf;" horiz-adv-x="582" 
d="M370 454q0 -23 -15 -36t-34 -13q-20 0 -35 13.5t-15 36.5t15 36t35 13t34.5 -13t14.5 -37zM550 -3q0 -100 -70.5 -155.5t-179.5 -55.5q-114 0 -190 53.5t-76 154.5q3 63 30.5 103t63.5 57t72 31t60.5 38t24.5 64q0 6 1.5 25.5t1.5 33.5q12 0 35.5 -0.5t34.5 -0.5
q0 -101 -30 -146t-111 -72q-53 -20 -82 -48t-29 -85q0 -72 56.5 -108t137.5 -36q76 0 128 39t54 108h68z" />
    <glyph glyph-name="Agrave" unicode="&#xc0;" horiz-adv-x="740" 
d="M244 901h82l74 -124v-4h-63l-93 126v2zM573 162h-406l-72 -162h-74l314 700h70l314 -700h-74zM195 226h350l-175 398z" />
    <glyph glyph-name="Aacute" unicode="&#xc1;" horiz-adv-x="740" 
d="M492 899l-94 -126h-61v4l75 124h80v-2zM573 162h-406l-72 -162h-74l314 700h70l314 -700h-74zM195 226h350l-175 398z" />
    <glyph glyph-name="Acircumflex" unicode="&#xc2;" horiz-adv-x="740" 
d="M393 906l143 -133v-7h-71l-96 87l-96 -87h-71v7l144 133h47zM573 162h-406l-72 -162h-74l314 700h70l314 -700h-74zM195 226h350l-175 398z" />
    <glyph glyph-name="Atilde" unicode="&#xc3;" horiz-adv-x="740" 
d="M236 807q7 33 28.5 52t51.5 19q6 0 18 -2q10 -2 42.5 -17.5t48.5 -15.5q26 0 35 32l45 -18q-6 -36 -27.5 -53.5t-49.5 -17.5q-7 0 -19 2q-8 2 -41.5 17.5t-49.5 15.5q-26 0 -37 -32zM573 162h-406l-72 -162h-74l314 700h70l314 -700h-74zM195 226h350l-175 398z" />
    <glyph glyph-name="Adieresis" unicode="&#xc4;" horiz-adv-x="740" 
d="M216 817q0 21 13 32.5t31 11.5t31 -11.5t13 -32.5t-13 -32.5t-31 -11.5t-31 11.5t-13 32.5zM439 817q0 21 13 32.5t31 11.5t31 -11.5t13 -32.5t-13 -32.5t-31 -11.5t-31 11.5t-13 32.5zM573 162h-406l-72 -162h-74l314 700h70l314 -700h-74zM195 226h350l-175 398z" />
    <glyph glyph-name="Aring" unicode="&#xc5;" horiz-adv-x="750" 
d="M578 162h-406l-72 -162h-74l304 678q-32 11 -48 32q-18 24 -18 62q0 48 33 75.5t79 27.5t80 -27.5t34 -75.5q0 -37 -20 -63q-17 -21 -50 -32l304 -677h-74zM375 829q-28 0 -43 -17t-15 -40q0 -24 15 -41t43 -17q29 0 45 16.5t16 40.5q0 23 -16.5 40.5t-44.5 17.5z
M200 226h350l-175 398z" />
    <glyph glyph-name="AE" unicode="&#xc6;" horiz-adv-x="914" 
d="M860 0h-415v221h-243l-132 -221h-84l430 700h433v-65h-336v-250h320v-65h-320v-253h347v-67zM445 287v167l2 174h-3l-201 -341h202z" />
    <glyph glyph-name="Ccedilla" unicode="&#xc7;" horiz-adv-x="710" 
d="M672 95q-106 -106 -255 -106l-10 1l-12 -49q51 2 78 -22.5t27 -60.5q0 -48 -35 -74t-83 -26q-80 2 -113 57l35 32q26 -36 76 -38q26 0 45 12.5t19 36.5q0 19 -16 31.5t-43 12.5q-17 0 -38 -6l-12 10l22 87q-146 17 -225 115t-79 238q0 99 39 179.5t123.5 132.5t201.5 52
q73 0 138.5 -26.5t109.5 -78.5l-43 -43q-85 84 -205 84q-139 0 -216.5 -87.5t-77.5 -211.5q0 -129 76.5 -211t217.5 -82q124 0 210 86z" />
    <glyph glyph-name="Egrave" unicode="&#xc8;" horiz-adv-x="655" 
d="M256 904h82l74 -124v-4h-63l-93 126v2zM599 0h-502v700h493v-66h-423v-251h404v-65h-404v-252h432v-66z" />
    <glyph glyph-name="Eacute" unicode="&#xc9;" horiz-adv-x="655" 
d="M467 899l-94 -126h-61v4l75 124h80v-2zM599 0h-502v700h493v-66h-423v-251h404v-65h-404v-252h432v-66z" />
    <glyph glyph-name="Ecircumflex" unicode="&#xca;" horiz-adv-x="655" 
d="M374 915l141 -131v-7h-70l-95 86l-95 -86h-69v7l141 131h47zM599 0h-502v700h493v-66h-423v-251h404v-65h-404v-252h432v-66z" />
    <glyph glyph-name="Edieresis" unicode="&#xcb;" horiz-adv-x="655" 
d="M208 824q0 21 13 32.5t31 11.5t31 -11.5t13 -32.5t-13 -32.5t-31 -11.5t-31 11.5t-13 32.5zM431 824q0 21 13 32.5t31 11.5t31 -11.5t13 -32.5t-13 -32.5t-31 -11.5t-31 11.5t-13 32.5zM599 0h-502v700h493v-66h-423v-251h404v-65h-404v-252h432v-66z" />
    <glyph glyph-name="Igrave" unicode="&#xcc;" horiz-adv-x="264" 
d="M28 900h74l67 -124v-3h-57l-84 125v2zM97 0v700h70v-700h-70z" />
    <glyph glyph-name="Iacute" unicode="&#xcd;" horiz-adv-x="264" 
d="M234 898l-84 -126h-55v4l67 124h72v-2zM97 0v700h70v-700h-70z" />
    <glyph glyph-name="Icircumflex" unicode="&#xce;" horiz-adv-x="264" 
d="M146 901l129 -132v-7h-64l-86 86l-86 -86h-64v7l129 132h42zM97 0v700h70v-700h-70z" />
    <glyph glyph-name="Idieresis" unicode="&#xcf;" horiz-adv-x="264" 
d="M13 813q0 20 12.5 30.5t29.5 10.5t29 -10.5t12 -30.5q0 -19 -12.5 -30t-28.5 -11q-17 0 -29.5 11t-12.5 30zM165 813q0 20 12.5 30.5t29.5 10.5t29 -10.5t12 -30.5q0 -19 -12.5 -30t-28.5 -11q-17 0 -29.5 11t-12.5 30zM97 0v700h70v-700h-70z" />
    <glyph glyph-name="Eth" unicode="&#xd0;" horiz-adv-x="754" 
d="M349 700q86 0 154.5 -29t110.5 -78t64 -109.5t22 -126.5q0 -69 -21 -131t-62 -113.5t-110.5 -82t-157.5 -30.5h-247v318h-80v55h80v327h247zM172 373h173v-55h-173v-253h177q135 0 207.5 85.5t72.5 200.5q0 114 -73 198.5t-207 84.5h-177v-261z" />
    <glyph glyph-name="Ntilde" unicode="&#xd1;" horiz-adv-x="757" 
d="M245 797q7 33 28.5 52t51.5 19q6 0 18 -2q10 -2 42.5 -17.5t48.5 -15.5q26 0 35 32l45 -18q-6 -36 -27.5 -53.5t-49.5 -17.5q-7 0 -19 2q-8 2 -41.5 17.5t-49.5 15.5q-26 0 -37 -32zM594 132l-4 232v336h70v-700h-42l-453 563l2 -207v-356h-70v700h44z" />
    <glyph glyph-name="Ograve" unicode="&#xd2;" horiz-adv-x="813" 
d="M297 906h82l74 -124v-4h-63l-93 126v2zM407 711q86 1 155 -29t111.5 -82t65 -116.5t22.5 -135.5q0 -148 -93.5 -255t-260.5 -105q-86 -1 -155.5 29t-112 82t-65 116t-22.5 134q0 154 95.5 259t259.5 103zM122 355q0 -59 17.5 -112.5t51.5 -96.5t90 -68t126 -24
q69 -1 124 23.5t89.5 66.5t52.5 94.5t18 109.5q0 125 -74 212t-210 85q-134 2 -209.5 -81t-75.5 -209z" />
    <glyph glyph-name="Oacute" unicode="&#xd3;" horiz-adv-x="813" 
d="M525 904l-94 -126h-61v4l75 124h80v-2zM407 711q86 1 155 -29t111.5 -82t65 -116.5t22.5 -135.5q0 -148 -93.5 -255t-260.5 -105q-86 -1 -155.5 29t-112 82t-65 116t-22.5 134q0 154 95.5 259t259.5 103zM122 355q0 -59 17.5 -112.5t51.5 -96.5t90 -68t126 -24
q69 -1 124 23.5t89.5 66.5t52.5 94.5t18 109.5q0 125 -74 212t-210 85q-134 2 -209.5 -81t-75.5 -209z" />
    <glyph glyph-name="Ocircumflex" unicode="&#xd4;" horiz-adv-x="813" 
d="M441 921l143 -133v-7h-71l-96 87l-96 -87h-71v7l144 133h47zM407 711q86 1 155 -29t111.5 -82t65 -116.5t22.5 -135.5q0 -148 -93.5 -255t-260.5 -105q-86 -1 -155.5 29t-112 82t-65 116t-22.5 134q0 154 95.5 259t259.5 103zM122 355q0 -59 17.5 -112.5t51.5 -96.5
t90 -68t126 -24q69 -1 124 23.5t89.5 66.5t52.5 94.5t18 109.5q0 125 -74 212t-210 85q-134 2 -209.5 -81t-75.5 -209z" />
    <glyph glyph-name="Otilde" unicode="&#xd5;" horiz-adv-x="813" 
d="M284 820q7 33 28.5 52t51.5 19q6 0 18 -2q10 -2 42.5 -17.5t48.5 -15.5q26 0 35 32l45 -18q-6 -36 -27.5 -53.5t-49.5 -17.5q-7 0 -19 2q-8 2 -41.5 17.5t-49.5 15.5q-26 0 -37 -32zM407 711q86 1 155 -29t111.5 -82t65 -116.5t22.5 -135.5q0 -148 -93.5 -255
t-260.5 -105q-86 -1 -155.5 29t-112 82t-65 116t-22.5 134q0 154 95.5 259t259.5 103zM122 355q0 -59 17.5 -112.5t51.5 -96.5t90 -68t126 -24q69 -1 124 23.5t89.5 66.5t52.5 94.5t18 109.5q0 125 -74 212t-210 85q-134 2 -209.5 -81t-75.5 -209z" />
    <glyph glyph-name="Odieresis" unicode="&#xd6;" horiz-adv-x="813" 
d="M256 816q0 21 13 32.5t31 11.5t31 -11.5t13 -32.5t-13 -32.5t-31 -11.5t-31 11.5t-13 32.5zM479 816q0 21 13 32.5t31 11.5t31 -11.5t13 -32.5t-13 -32.5t-31 -11.5t-31 11.5t-13 32.5zM407 711q86 1 155 -29t111.5 -82t65 -116.5t22.5 -135.5q0 -148 -93.5 -255
t-260.5 -105q-86 -1 -155.5 29t-112 82t-65 116t-22.5 134q0 154 95.5 259t259.5 103zM122 355q0 -59 17.5 -112.5t51.5 -96.5t90 -68t126 -24q69 -1 124 23.5t89.5 66.5t52.5 94.5t18 109.5q0 125 -74 212t-210 85q-134 2 -209.5 -81t-75.5 -209z" />
    <glyph glyph-name="multiply" unicode="&#xd7;" horiz-adv-x="457" 
d="M228 364l117 118l40 -42l-118 -118l123 -121l-42 -41l-123 121l-119 -120l-39 42l120 120l-118 115l43 43z" />
    <glyph glyph-name="Oslash" unicode="&#xd8;" horiz-adv-x="813" 
d="M401 711q101 0 168 -33l48 84h72l-67 -116q68 -50 103.5 -129t35.5 -169q0 -94 -37.5 -174t-118.5 -133t-192 -53q-91 0 -155 26l-53 -91h-72l69 120q-73 49 -111.5 131t-38.5 175q0 152 94 257t255 105zM122 355q0 -78 28.5 -144.5t85.5 -107.5l299 517q-61 26 -128 25
q-134 2 -209.5 -81t-75.5 -209zM691 348q0 72 -26.5 135t-76.5 104l-296 -514q52 -20 115 -19q69 -1 124 23.5t89.5 66.5t52.5 94.5t18 109.5z" />
    <glyph glyph-name="Ugrave" unicode="&#xd9;" horiz-adv-x="734" 
d="M260 899h82l74 -124v-4h-63l-93 126v2zM645 700v-430q0 -136 -78 -208t-198 -72q-121 0 -200.5 72.5t-79.5 207.5v430h70v-430q0 -98 59.5 -156.5t150.5 -58.5q86 0 146 55.5t60 159.5v430h70z" />
    <glyph glyph-name="Uacute" unicode="&#xda;" horiz-adv-x="734" 
d="M475 896l-94 -126h-61v4l75 124h80v-2zM645 700v-430q0 -136 -78 -208t-198 -72q-121 0 -200.5 72.5t-79.5 207.5v430h70v-430q0 -98 59.5 -156.5t150.5 -58.5q86 0 146 55.5t60 159.5v430h70z" />
    <glyph glyph-name="Ucircumflex" unicode="&#xdb;" horiz-adv-x="734" 
d="M393 912l143 -133v-7h-71l-96 87l-96 -87h-71v7l144 133h47zM645 700v-430q0 -136 -78 -208t-198 -72q-121 0 -200.5 72.5t-79.5 207.5v430h70v-430q0 -98 59.5 -156.5t150.5 -58.5q86 0 146 55.5t60 159.5v430h70z" />
    <glyph glyph-name="Udieresis" unicode="&#xdc;" horiz-adv-x="734" 
d="M214 813q0 21 13 32.5t31 11.5t31 -11.5t13 -32.5t-13 -32.5t-31 -11.5t-31 11.5t-13 32.5zM437 813q0 21 13 32.5t31 11.5t31 -11.5t13 -32.5t-13 -32.5t-31 -11.5t-31 11.5t-13 32.5zM645 700v-430q0 -136 -78 -208t-198 -72q-121 0 -200.5 72.5t-79.5 207.5v430h70
v-430q0 -98 59.5 -156.5t150.5 -58.5q86 0 146 55.5t60 159.5v430h70z" />
    <glyph glyph-name="Yacute" unicode="&#xdd;" horiz-adv-x="663" 
d="M430 898l-94 -126h-61v4l75 124h80v-2zM331 350l226 350h82v-2l-273 -416v-282h-70v282l-269 416v2h81z" />
    <glyph glyph-name="Thorn" unicode="&#xde;" horiz-adv-x="682" 
d="M97 700h71v-121h242q111 0 173 -68t62 -162t-62 -162.5t-173 -68.5h-241v-118h-72v700zM169 184h241q77 0 120 48.5t43 115.5t-43 115.5t-120 48.5h-241v-328z" />
    <glyph glyph-name="germandbls" unicode="&#xdf;" horiz-adv-x="605" 
d="M215 72q59 -26 118 -26q70 0 114.5 38t44.5 105q0 88 -57.5 125.5t-143.5 37.5h-75v60h71q61 0 109.5 26.5t48.5 88.5q0 68 -43 95.5t-104 27.5q-151 0 -151 -129v-521h-69v521q0 98 63 144t157 46t154 -46t60 -138q0 -52 -28.5 -90t-79.5 -50q80 -17 117.5 -69
t37.5 -127q0 -102 -62 -153.5t-155 -51.5q-64 0 -127 23v63z" />
    <glyph glyph-name="agrave" unicode="&#xe0;" horiz-adv-x="634" 
d="M206 707h82l74 -124v-4h-63l-93 126v2zM495 494h63v-494h-62v98q-31 -52 -85 -80t-113 -28q-108 0 -180 71t-72 186q0 114 72.5 184t180.5 70q60 0 114.5 -27.5t81.5 -77.5v98zM301 440q-80 0 -134 -53.5t-54 -139.5t54 -140t134 -54q91 0 141 57.5t50 136.5
q0 78 -50 135.5t-141 57.5z" />
    <glyph glyph-name="aacute" unicode="&#xe1;" horiz-adv-x="634" 
d="M425 703l-94 -126h-61v4l75 124h80v-2zM495 494h63v-494h-62v98q-31 -52 -85 -80t-113 -28q-108 0 -180 71t-72 186q0 114 72.5 184t180.5 70q60 0 114.5 -27.5t81.5 -77.5v98zM301 440q-80 0 -134 -53.5t-54 -139.5t54 -140t134 -54q91 0 141 57.5t50 136.5
q0 78 -50 135.5t-141 57.5z" />
    <glyph glyph-name="acircumflex" unicode="&#xe2;" horiz-adv-x="634" 
d="M356 706l140 -130v-7h-69l-94 85l-94 -85h-70v7l141 130h46zM495 494h63v-494h-62v98q-31 -52 -85 -80t-113 -28q-108 0 -180 71t-72 186q0 114 72.5 184t180.5 70q60 0 114.5 -27.5t81.5 -77.5v98zM301 440q-80 0 -134 -53.5t-54 -139.5t54 -140t134 -54q91 0 141 57.5
t50 136.5q0 78 -50 135.5t-141 57.5z" />
    <glyph glyph-name="atilde" unicode="&#xe3;" horiz-adv-x="634" 
d="M187 626q7 33 28.5 52t51.5 19q6 0 18 -2q10 -2 42.5 -17.5t48.5 -15.5q26 0 35 32l45 -18q-6 -36 -27.5 -53.5t-49.5 -17.5q-7 0 -19 2q-8 2 -41.5 17.5t-49.5 15.5q-26 0 -37 -32zM495 494h63v-494h-62v98q-31 -52 -85 -80t-113 -28q-108 0 -180 71t-72 186
q0 114 72.5 184t180.5 70q60 0 114.5 -27.5t81.5 -77.5v98zM301 440q-80 0 -134 -53.5t-54 -139.5t54 -140t134 -54q91 0 141 57.5t50 136.5q0 78 -50 135.5t-141 57.5z" />
    <glyph glyph-name="adieresis" unicode="&#xe4;" horiz-adv-x="634" 
d="M173 654q0 21 13 32.5t31 11.5t31 -11.5t13 -32.5t-13 -32.5t-31 -11.5t-31 11.5t-13 32.5zM396 654q0 21 13 32.5t31 11.5t31 -11.5t13 -32.5t-13 -32.5t-31 -11.5t-31 11.5t-13 32.5zM495 494h63v-494h-62v98q-31 -52 -85 -80t-113 -28q-108 0 -180 71t-72 186
q0 114 72.5 184t180.5 70q60 0 114.5 -27.5t81.5 -77.5v98zM301 440q-80 0 -134 -53.5t-54 -139.5t54 -140t134 -54q91 0 141 57.5t50 136.5q0 78 -50 135.5t-141 57.5z" />
    <glyph glyph-name="aring" unicode="&#xe5;" horiz-adv-x="634" 
d="M209 656q0 41 32 65.5t75 24.5q44 0 76 -24t32 -66q0 -44 -30.5 -68.5t-78.5 -24.5q-47 0 -76.5 24.5t-29.5 68.5zM315 705q-26 0 -41 -14.5t-15 -34.5t15 -35t41 -15q28 0 43.5 14.5t15.5 34.5t-15.5 35t-43.5 15zM495 494h63v-494h-62v98q-31 -52 -85 -80t-113 -28
q-108 0 -180 71t-72 186q0 114 72.5 184t180.5 70q60 0 114.5 -27.5t81.5 -77.5v98zM301 440q-80 0 -134 -53.5t-54 -139.5t54 -140t134 -54q91 0 141 57.5t50 136.5q0 78 -50 135.5t-141 57.5z" />
    <glyph glyph-name="ae" unicode="&#xe6;" horiz-adv-x="1022" 
d="M549 219q6 -76 60 -120t129 -44q47 0 94.5 18t71.5 50l46 -40q-36 -44 -93.5 -68t-119.5 -24q-132 0 -193 100l-1 -91h-53v97q-31 -53 -83 -80t-110 -27q-107 0 -179 71t-72 186q0 114 72.5 184t179.5 70q60 0 112.5 -27t80.5 -78l1 98h54v-94q65 103 193 103
q102 0 173 -62.5t71 -176.5q0 -21 -3 -45h-431zM918 276q-2 80 -51 123.5t-131 43.5q-72 0 -125 -44.5t-62 -122.5h369zM301 439q-80 0 -134 -53.5t-54 -138.5q0 -86 54 -139.5t134 -53.5q91 0 142 57t51 136q0 78 -51 135t-142 57z" />
    <glyph glyph-name="ccedilla" unicode="&#xe7;" horiz-adv-x="519" 
d="M485 65q-75 -73 -181 -75l-10 -43q49 2 74 -22.5t25 -59.5q0 -11 -3 -22q-9 -37 -40 -56t-70 -19q-76 0 -111 56l34 31q26 -34 67 -36q28 -3 48.5 9t20.5 38q0 19 -16 32t-43 13q-16 0 -35 -6l-12 9l20 80q-91 15 -149 81.5t-58 170.5q0 118 72.5 186.5t183.5 68.5
q102 0 175 -73l-44 -43q-54 53 -130 53q-82 0 -136 -51.5t-54 -140.5q0 -90 54 -141t135 -51t137 56z" />
    <glyph glyph-name="egrave" unicode="&#xe8;" horiz-adv-x="586" 
d="M200 700h82l74 -124v-4h-63l-93 126v2zM115 218q6 -76 58.5 -120t128.5 -44q47 0 95 18t72 50l45 -40q-36 -44 -93 -68t-119 -24q-112 0 -184 70.5t-72 186.5q0 111 71.5 183.5t181.5 70.5q108 2 178 -60.5t70 -182.5q0 -12 -2 -40h-430zM482 275q-2 79 -53 123t-129 44
q-76 0 -125.5 -43.5t-59.5 -123.5h367z" />
    <glyph glyph-name="eacute" unicode="&#xe9;" horiz-adv-x="586" 
d="M420 698l-94 -126h-61v4l75 124h80v-2zM115 218q6 -76 58.5 -120t128.5 -44q47 0 95 18t72 50l45 -40q-36 -44 -93 -68t-119 -24q-112 0 -184 70.5t-72 186.5q0 111 71.5 183.5t181.5 70.5q108 2 178 -60.5t70 -182.5q0 -12 -2 -40h-430zM482 275q-2 79 -53 123t-129 44
q-76 0 -125.5 -43.5t-59.5 -123.5h367z" />
    <glyph glyph-name="ecircumflex" unicode="&#xea;" horiz-adv-x="586" 
d="M338 704l143 -133v-7h-71l-96 87l-96 -87h-71v7l144 133h47zM115 218q6 -76 58.5 -120t128.5 -44q47 0 95 18t72 50l45 -40q-36 -44 -93 -68t-119 -24q-112 0 -184 70.5t-72 186.5q0 111 71.5 183.5t181.5 70.5q108 2 178 -60.5t70 -182.5q0 -12 -2 -40h-430zM482 275
q-2 79 -53 123t-129 44q-76 0 -125.5 -43.5t-59.5 -123.5h367z" />
    <glyph glyph-name="edieresis" unicode="&#xeb;" horiz-adv-x="586" 
d="M159 655q0 21 13 32.5t31 11.5t31 -11.5t13 -32.5t-13 -32.5t-31 -11.5t-31 11.5t-13 32.5zM382 655q0 21 13 32.5t31 11.5t31 -11.5t13 -32.5t-13 -32.5t-31 -11.5t-31 11.5t-13 32.5zM115 218q6 -76 58.5 -120t128.5 -44q47 0 95 18t72 50l45 -40q-36 -44 -93 -68
t-119 -24q-112 0 -184 70.5t-72 186.5q0 111 71.5 183.5t181.5 70.5q108 2 178 -60.5t70 -182.5q0 -12 -2 -40h-430zM482 275q-2 79 -53 123t-129 44q-76 0 -125.5 -43.5t-59.5 -123.5h367z" />
    <glyph glyph-name="igrave" unicode="&#xec;" horiz-adv-x="225" 
d="M83 580l-67 120v1h77l56 -117v-4h-66zM78 0v491h69v-491h-69z" />
    <glyph glyph-name="iacute" unicode="&#xed;" horiz-adv-x="225" 
d="M73 580v4l56 117h77v-1l-67 -120h-66zM78 0v491h69v-491h-69z" />
    <glyph glyph-name="icircumflex" unicode="&#xee;" horiz-adv-x="225" 
d="M95 702h31l102 -122v-7h-62l-57 69l-58 -69h-59v6zM78 0v491h69v-491h-69z" />
    <glyph glyph-name="idieresis" unicode="&#xef;" horiz-adv-x="225" 
d="M-3 658q0 20 13 31.5t31 11.5t31 -11.5t13 -31.5t-13 -31.5t-31 -11.5t-31 11.5t-13 31.5zM146 658q0 20 13 31.5t31 11.5t31 -11.5t13 -31.5t-13 -31.5t-31 -11.5t-31 11.5t-13 31.5zM78 0v491h69v-491h-69z" />
    <glyph glyph-name="eth" unicode="&#xf0;" horiz-adv-x="605" 
d="M287 485q104 2 177 -66q-13 44 -50.5 87t-84.5 74l-39 -54l-39 26l37 52q-42 26 -98 38l16 57q66 -18 120 -46l46 63l39 -27l-44 -60q188 -132 188 -377q2 -117 -67.5 -190t-186.5 -73q-120 0 -187 74t-67 175q0 97 63.5 170t176.5 77zM301 51q88 0 137 56t49 132
t-49 131.5t-137 55.5q-87 0 -136 -55.5t-49 -131.5t49 -132t136 -56z" />
    <glyph glyph-name="ntilde" unicode="&#xf1;" horiz-adv-x="608" 
d="M173 645q7 31 28.5 48.5t50.5 17.5q6 0 18 -2q9 -2 41.5 -16t48.5 -14q27 0 36 29l45 -17q-6 -32 -28 -49t-50 -17q-6 0 -18 2q-9 2 -42 16.5t-49 14.5q-26 0 -36 -30zM468 0v277q0 79 -42.5 120.5t-118.5 41.5q-71 0 -116.5 -49t-45.5 -121v-269h-67v494h64l2 -83
q54 91 175 91q46 0 85 -14q61 -21 96.5 -75.5t35.5 -134.5v-278h-68z" />
    <glyph glyph-name="ograve" unicode="&#xf2;" horiz-adv-x="600" 
d="M198 700h82l74 -120v-3h-63l-93 121v2zM300 501q109 0 181.5 -72t72.5 -185q0 -114 -71.5 -184t-182.5 -70q-110 0 -182 70.5t-72 183.5q0 114 71 185.5t183 71.5zM300 440q-82 0 -134.5 -55t-52.5 -141t52 -138.5t135 -52.5q84 0 135.5 52t51.5 139q0 86 -52.5 141
t-134.5 55z" />
    <glyph glyph-name="oacute" unicode="&#xf3;" horiz-adv-x="600" 
d="M409 699l-90 -118h-59v4l72 116h77v-2zM300 501q109 0 181.5 -72t72.5 -185q0 -114 -71.5 -184t-182.5 -70q-110 0 -182 70.5t-72 183.5q0 114 71 185.5t183 71.5zM300 440q-82 0 -134.5 -55t-52.5 -141t52 -138.5t135 -52.5q84 0 135.5 52t51.5 139q0 86 -52.5 141
t-134.5 55z" />
    <glyph glyph-name="ocircumflex" unicode="&#xf4;" horiz-adv-x="600" 
d="M331 708l143 -133v-7h-71l-96 87l-96 -87h-71v7l144 133h47zM300 501q109 0 181.5 -72t72.5 -185q0 -114 -71.5 -184t-182.5 -70q-110 0 -182 70.5t-72 183.5q0 114 71 185.5t183 71.5zM300 440q-82 0 -134.5 -55t-52.5 -141t52 -138.5t135 -52.5q84 0 135.5 52t51.5 139
q0 86 -52.5 141t-134.5 55z" />
    <glyph glyph-name="otilde" unicode="&#xf5;" horiz-adv-x="600" 
d="M170 642q7 33 28.5 51t52.5 18q6 0 18 -2q10 -2 42.5 -17t48.5 -15q26 0 35 31l45 -18q-6 -34 -27.5 -51t-49.5 -17q-7 0 -19 2q-11 2 -44 17t-49 15q-27 0 -36 -31zM300 501q109 0 181.5 -72t72.5 -185q0 -114 -71.5 -184t-182.5 -70q-110 0 -182 70.5t-72 183.5
q0 114 71 185.5t183 71.5zM300 440q-82 0 -134.5 -55t-52.5 -141t52 -138.5t135 -52.5q84 0 135.5 52t51.5 139q0 86 -52.5 141t-134.5 55z" />
    <glyph glyph-name="odieresis" unicode="&#xf6;" horiz-adv-x="600" 
d="M150 656q0 21 13 32.5t31 11.5t31 -11.5t13 -32.5t-13 -32.5t-31 -11.5t-31 11.5t-13 32.5zM373 656q0 21 13 32.5t31 11.5t31 -11.5t13 -32.5t-13 -32.5t-31 -11.5t-31 11.5t-13 32.5zM300 501q109 0 181.5 -72t72.5 -185q0 -114 -71.5 -184t-182.5 -70
q-110 0 -182 70.5t-72 183.5q0 114 71 185.5t183 71.5zM300 440q-82 0 -134.5 -55t-52.5 -141t52 -138.5t135 -52.5q84 0 135.5 52t51.5 139q0 86 -52.5 141t-134.5 55z" />
    <glyph glyph-name="divide" unicode="&#xf7;" horiz-adv-x="559" 
d="M234 490q0 22 14 34t33 12t33 -12t14 -34t-14 -34t-33 -12t-33 12t-14 34zM75 361h409v-61h-409v61zM234 168q0 23 14 35t33 12q20 0 33.5 -12t13.5 -35q0 -22 -14 -34t-33 -12t-33 12t-14 34z" />
    <glyph glyph-name="oslash" unicode="&#xf8;" horiz-adv-x="597" 
d="M299 501q57 0 107 -22l38 63h67l-55 -92q97 -73 97 -206q0 -114 -71.5 -184t-182.5 -70q-57 0 -105 20l-40 -67h-66l56 94q-99 71 -99 207q0 114 71 185.5t183 71.5zM299 440q-82 0 -134.5 -55t-52.5 -141q0 -97 65 -151l197 332q-38 15 -75 15zM486 244q0 94 -63 151
l-196 -330q33 -12 72 -12q84 0 135.5 52t51.5 139z" />
    <glyph glyph-name="ugrave" unicode="&#xf9;" horiz-adv-x="606" 
d="M199 700h82l74 -124v-4h-63l-93 126v2zM144 494v-277q0 -77 40 -119t113 -42q72 0 118.5 48t46.5 121v269h66v-494h-62l-2 83q-58 -91 -175 -93q-96 0 -154 61t-58 165v278h67z" />
    <glyph glyph-name="uacute" unicode="&#xfa;" horiz-adv-x="606" 
d="M411 698l-94 -126h-61v4l75 124h80v-2zM144 494v-277q0 -77 40 -119t113 -42q72 0 118.5 48t46.5 121v269h66v-494h-62l-2 83q-58 -91 -175 -93q-96 0 -154 61t-58 165v278h67z" />
    <glyph glyph-name="ucircumflex" unicode="&#xfb;" horiz-adv-x="606" 
d="M330 704l139 -129v-6h-69l-93 84l-92 -84h-69v6l139 129h45zM144 494v-277q0 -77 40 -119t113 -42q72 0 118.5 48t46.5 121v269h66v-494h-62l-2 83q-58 -91 -175 -93q-96 0 -154 61t-58 165v278h67z" />
    <glyph glyph-name="udieresis" unicode="&#xfc;" horiz-adv-x="606" 
d="M154 655q0 21 13 32.5t31 11.5t31 -11.5t13 -32.5t-13 -32.5t-31 -11.5t-31 11.5t-13 32.5zM377 655q0 21 13 32.5t31 11.5t31 -11.5t13 -32.5t-13 -32.5t-31 -11.5t-31 11.5t-13 32.5zM144 494v-277q0 -77 40 -119t113 -42q72 0 118.5 48t46.5 121v269h66v-494h-62
l-2 83q-58 -91 -175 -93q-96 0 -154 61t-58 165v278h67z" />
    <glyph glyph-name="yacute" unicode="&#xfd;" horiz-adv-x="544" 
d="M378 699l-89 -119h-58v3l71 117h76v-1zM515 494l-313 -730h-73l104 242l-198 488h75l105 -273l55 -142l56 142l115 273h74z" />
    <glyph glyph-name="thorn" unicode="&#xfe;" horiz-adv-x="636" 
d="M78 -206v905h65l1 -310q29 52 83 82.5t119 30.5q106 -4 174.5 -71t68.5 -184q0 -122 -71 -189.5t-180 -67.5q-60 0 -112 28.5t-82 83.5v-308h-66zM335 55q81 0 133.5 50t52.5 142q0 90 -52.5 140t-133.5 50q-80 0 -132.5 -54.5t-52.5 -136.5q0 -81 53.5 -136t131.5 -55z
" />
    <glyph glyph-name="ydieresis" unicode="&#xff;" horiz-adv-x="544" 
d="M129 662q0 20 12.5 30.5t29.5 10.5t29.5 -10.5t12.5 -30.5t-12.5 -31t-29.5 -11t-29.5 11t-12.5 31zM341 662q0 20 12.5 30.5t29.5 10.5t29.5 -10.5t12.5 -30.5t-12.5 -31t-29.5 -11t-29.5 11t-12.5 31zM515 494l-313 -730h-73l104 242l-198 488h75l105 -273l55 -142
l56 142l115 273h74z" />
    <glyph glyph-name="Amacron" unicode="&#x100;" horiz-adv-x="740" 
d="M216 835h306v-58h-306v58zM573 162h-406l-72 -162h-74l314 700h70l314 -700h-74zM195 226h350l-175 398z" />
    <glyph glyph-name="amacron" unicode="&#x101;" horiz-adv-x="634" 
d="M169 675h298v-55h-298v55zM495 494h63v-494h-62v98q-31 -52 -85 -80t-113 -28q-108 0 -180 71t-72 186q0 114 72.5 184t180.5 70q60 0 114.5 -27.5t81.5 -77.5v98zM301 440q-80 0 -134 -53.5t-54 -139.5t54 -140t134 -54q91 0 141 57.5t50 136.5q0 78 -50 135.5
t-141 57.5z" />
    <glyph glyph-name="Abreve" unicode="&#x102;" horiz-adv-x="740" 
d="M507 893q2 -59 -35 -91t-102 -32q-63 0 -100 32.5t-35 90.5h55q0 -31 18.5 -52t61.5 -21q41 0 60 21t19 52h58zM573 162h-406l-72 -162h-74l314 700h70l314 -700h-74zM195 226h350l-175 398z" />
    <glyph glyph-name="abreve" unicode="&#x103;" horiz-adv-x="634" 
d="M454 700q2 -62 -34 -95.5t-99 -33.5q-61 0 -97 34t-34 95h54q0 -32 17.5 -54.5t59.5 -22.5q40 0 58.5 22t18.5 55h56zM495 494h63v-494h-62v98q-31 -52 -85 -80t-113 -28q-108 0 -180 71t-72 186q0 114 72.5 184t180.5 70q60 0 114.5 -27.5t81.5 -77.5v98zM301 440
q-80 0 -134 -53.5t-54 -139.5t54 -140t134 -54q91 0 141 57.5t50 136.5q0 78 -50 135.5t-141 57.5z" />
    <glyph glyph-name="Aogonek" unicode="&#x104;" horiz-adv-x="745" 
d="M566 13q26 18 62 24l-55 125h-406l-72 -162h-74l314 700h70l314 -700h-66q-6 0 -9 -1q-32 -6 -50 -24t-18 -38t16 -33t45 -13q53 0 82 43l40 -25q-18 -34 -55 -51.5t-77 -17.5q-50 0 -77.5 26.5t-27.5 63.5q0 50 44 83zM195 226h350l-175 398z" />
    <glyph glyph-name="aogonek" unicode="&#x105;" horiz-adv-x="634" 
d="M495 494h63v-529q-6 1 -17 1q-40 0 -63 -18t-23 -41q0 -34 44 -40q10 -2 15 -2q46 0 76 38l39 -25q-16 -33 -50 -50.5t-72 -17.5q-51 0 -82 25.5t-31 65.5q0 34 25.5 62t76.5 38v97q-31 -52 -85 -80t-113 -28q-108 0 -180 71t-72 186q0 114 72.5 184t180.5 70
q60 0 114.5 -27.5t81.5 -77.5v98zM301 440q-80 0 -134 -53.5t-54 -139.5t54 -140t134 -54q91 0 141 57.5t50 136.5q0 78 -50 135.5t-141 57.5z" />
    <glyph glyph-name="Cacute" unicode="&#x106;" horiz-adv-x="709" 
d="M512 898l-89 -120h-58v4l71 118h76v-2zM672 95q-106 -106 -255 -106q-174 0 -269 101.5t-95 255.5q0 99 39 179.5t123.5 132.5t201.5 52q73 0 138.5 -26.5t109.5 -78.5l-43 -43q-85 84 -205 84q-139 0 -216.5 -87.5t-77.5 -211.5q0 -129 76.5 -211t217.5 -82
q124 0 210 86z" />
    <glyph glyph-name="cacute" unicode="&#x107;" horiz-adv-x="516" 
d="M385 699l-78 -111h-52v4l63 108h67v-1zM485 65q-76 -75 -183 -75q-109 0 -182.5 69t-73.5 187t72.5 186.5t183.5 68.5q102 0 175 -73l-44 -43q-54 53 -130 53q-82 0 -136 -51.5t-54 -140.5q0 -90 54 -141t135 -51t137 56z" />
    <glyph glyph-name="Ccircumflex" unicode="&#x108;" horiz-adv-x="709" 
d="M439 918l139 -129v-6h-69l-93 84l-92 -84h-69v6l139 129h45zM672 95q-106 -106 -255 -106q-174 0 -269 101.5t-95 255.5q0 99 39 179.5t123.5 132.5t201.5 52q73 0 138.5 -26.5t109.5 -78.5l-43 -43q-85 84 -205 84q-139 0 -216.5 -87.5t-77.5 -211.5q0 -129 76.5 -211
t217.5 -82q124 0 210 86z" />
    <glyph glyph-name="ccircumflex" unicode="&#x109;" horiz-adv-x="516" 
d="M316 703l129 -124v-6h-64l-87 80l-87 -80h-64v6l130 124h43zM485 65q-76 -75 -183 -75q-109 0 -182.5 69t-73.5 187t72.5 186.5t183.5 68.5q102 0 175 -73l-44 -43q-54 53 -130 53q-82 0 -136 -51.5t-54 -140.5q0 -90 54 -141t135 -51t137 56z" />
    <glyph glyph-name="Cdotaccent" unicode="&#x10a;" horiz-adv-x="709" 
d="M363 823q0 23 15.5 35t36.5 12t36.5 -12t15.5 -35q0 -22 -15.5 -34.5t-36.5 -12.5t-36.5 12.5t-15.5 34.5zM672 95q-106 -106 -255 -106q-174 0 -269 101.5t-95 255.5q0 99 39 179.5t123.5 132.5t201.5 52q73 0 138.5 -26.5t109.5 -78.5l-43 -43q-85 84 -205 84
q-139 0 -216.5 -87.5t-77.5 -211.5q0 -129 76.5 -211t217.5 -82q124 0 210 86z" />
    <glyph glyph-name="cdotaccent" unicode="&#x10b;" horiz-adv-x="516" 
d="M253 648q0 20 13.5 30.5t32.5 10.5t32.5 -10.5t13.5 -30.5t-13.5 -31t-32.5 -11t-32.5 11t-13.5 31zM485 65q-76 -75 -183 -75q-109 0 -182.5 69t-73.5 187t72.5 186.5t183.5 68.5q102 0 175 -73l-44 -43q-54 53 -130 53q-82 0 -136 -51.5t-54 -140.5q0 -90 54 -141
t135 -51t137 56z" />
    <glyph glyph-name="Ccaron" unicode="&#x10c;" horiz-adv-x="709" 
d="M257 907h66l89 -82l91 82h65v-7l-135 -124h-43l-133 124v7zM672 95q-106 -106 -255 -106q-174 0 -269 101.5t-95 255.5q0 99 39 179.5t123.5 132.5t201.5 52q73 0 138.5 -26.5t109.5 -78.5l-43 -43q-85 84 -205 84q-139 0 -216.5 -87.5t-77.5 -211.5q0 -129 76.5 -211
t217.5 -82q124 0 210 86z" />
    <glyph glyph-name="ccaron" unicode="&#x10d;" horiz-adv-x="516" 
d="M143 701h65l88 -82l90 82h64v-7l-132 -123h-44l-131 123v7zM485 65q-76 -75 -183 -75q-109 0 -182.5 69t-73.5 187t72.5 186.5t183.5 68.5q102 0 175 -73l-44 -43q-54 53 -130 53q-82 0 -136 -51.5t-54 -140.5q0 -90 54 -141t135 -51t137 56z" />
    <glyph glyph-name="Dcaron" unicode="&#x10e;" horiz-adv-x="748" 
d="M165 907h68l91 -84l94 84h67v-7l-139 -128h-45l-136 128v7zM344 700q86 0 154.5 -29t110.5 -78t64 -109.5t22 -126.5q0 -69 -21 -131t-62 -113.5t-110.5 -82t-157.5 -30.5h-247v700h247zM167 65h177q135 0 207.5 85.5t72.5 200.5q0 114 -73 198.5t-207 84.5h-177v-569z
" />
    <glyph glyph-name="dcaron" unicode="&#x10f;" horiz-adv-x="662" 
d="M643 701h65l-56 -161h-50zM557 699v-699h-65l-2 98q-29 -53 -81 -80.5t-113 -27.5q-109 0 -179 68t-70 188q0 119 70.5 188t178.5 67q61 1 114 -26.5t80 -79.5v304h67zM300 438q-81 0 -133.5 -50.5t-52.5 -141.5q0 -90 53 -141t133 -51t133.5 54t53.5 139
q0 84 -53.5 137.5t-133.5 53.5z" />
    <glyph glyph-name="Dcroat" unicode="&#x110;" horiz-adv-x="754" 
d="M349 700q86 0 154.5 -29t110.5 -78t64 -109.5t22 -126.5q0 -69 -21 -131t-62 -113.5t-110.5 -82t-157.5 -30.5h-247v318h-80v55h80v327h247zM172 373h173v-55h-173v-253h177q135 0 207.5 85.5t72.5 200.5q0 114 -73 198.5t-207 84.5h-177v-261z" />
    <glyph glyph-name="dcroat" unicode="&#x111;" horiz-adv-x="635" 
d="M557 699v-70h73v-51h-73v-578h-65l-2 98q-29 -53 -81 -80.5t-113 -27.5q-109 0 -179 68t-70 188q0 119 70.5 188t178.5 67q61 1 114 -26.5t80 -79.5v183h-128v51h128v70h67zM300 438q-81 0 -133.5 -50.5t-52.5 -141.5q0 -90 53 -141t133 -51t133.5 54t53.5 139
q0 84 -53.5 137.5t-133.5 53.5z" />
    <glyph glyph-name="Emacron" unicode="&#x112;" horiz-adv-x="655" 
d="M209 844h277v-57h-277v57zM599 0h-502v700h493v-66h-423v-251h404v-65h-404v-252h432v-66z" />
    <glyph glyph-name="emacron" unicode="&#x113;" horiz-adv-x="586" 
d="M163 675h281v-54h-281v54zM115 218q6 -76 58.5 -120t128.5 -44q47 0 95 18t72 50l45 -40q-36 -44 -93 -68t-119 -24q-112 0 -184 70.5t-72 186.5q0 111 71.5 183.5t181.5 70.5q108 2 178 -60.5t70 -182.5q0 -12 -2 -40h-430zM482 275q-2 79 -53 123t-129 44
q-76 0 -125.5 -43.5t-59.5 -123.5h367z" />
    <glyph glyph-name="Ebreve" unicode="&#x114;" horiz-adv-x="655" 
d="M493 899q2 -60 -35.5 -93t-102.5 -33q-64 0 -101 33t-35 93h56q0 -31 18 -53t62 -22q42 0 61 21.5t19 53.5h58zM599 0h-502v700h493v-66h-423v-251h404v-65h-404v-252h432v-66z" />
    <glyph glyph-name="ebreve" unicode="&#x115;" horiz-adv-x="586" 
d="M436 700q2 -60 -34 -92.5t-99 -32.5q-61 0 -97 33t-34 92h54q0 -31 17.5 -53t59.5 -22q40 0 58.5 22t18.5 53h56zM115 218q6 -76 58.5 -120t128.5 -44q47 0 95 18t72 50l45 -40q-36 -44 -93 -68t-119 -24q-112 0 -184 70.5t-72 186.5q0 111 71.5 183.5t181.5 70.5
q108 2 178 -60.5t70 -182.5q0 -12 -2 -40h-430zM482 275q-2 79 -53 123t-129 44q-76 0 -125.5 -43.5t-59.5 -123.5h367z" />
    <glyph glyph-name="Edotaccent" unicode="&#x116;" horiz-adv-x="655" 
d="M305 812q0 23 14 35t34 12q19 0 33 -12t14 -35q0 -22 -14 -34.5t-33 -12.5t-33.5 12.5t-14.5 34.5zM599 0h-502v700h493v-66h-423v-251h404v-65h-404v-252h432v-66z" />
    <glyph glyph-name="edotaccent" unicode="&#x117;" horiz-adv-x="586" 
d="M260 660q0 23 14 35t34 12q19 0 33 -12t14 -35q0 -22 -14 -34.5t-33 -12.5t-33.5 12.5t-14.5 34.5zM115 218q6 -76 58.5 -120t128.5 -44q47 0 95 18t72 50l45 -40q-36 -44 -93 -68t-119 -24q-112 0 -184 70.5t-72 186.5q0 111 71.5 183.5t181.5 70.5q108 2 178 -60.5
t70 -182.5q0 -12 -2 -40h-430zM482 275q-2 79 -53 123t-129 44q-76 0 -125.5 -43.5t-59.5 -123.5h367z" />
    <glyph glyph-name="Eogonek" unicode="&#x118;" horiz-adv-x="655" 
d="M599 0h-35q-21 -2 -36 -6q-56 -18 -56 -57q0 -11 5 -21q16 -28 53 -28q36 0 69 33l36 -37q-39 -52 -110 -52q-34 0 -62.5 15t-40.5 42q-8 18 -8 34q0 51 51 77h-368v700h493v-66h-423v-251h404v-65h-404v-252h432v-66z" />
    <glyph glyph-name="eogonek" unicode="&#x119;" horiz-adv-x="587" 
d="M115 218q6 -76 58.5 -120t128.5 -44q47 0 95 18t72 50l45 -40q-43 -53 -119 -78q-9 -5 -13 -12q-9 -13 -9 -31q0 -22 14 -34q18 -18 46 -18q22 0 43.5 12t33.5 30l40 -25q-18 -33 -52.5 -52t-72.5 -19q-49 0 -79 30q-25 25 -25 60q0 25 20 48q-19 -3 -39 -3
q-112 0 -184 70.5t-72 186.5q0 111 71.5 183.5t181.5 70.5q108 2 178 -60.5t70 -182.5q0 -12 -2 -40h-430zM482 275q-2 79 -53 123t-129 44q-76 0 -125.5 -43.5t-59.5 -123.5h367z" />
    <glyph glyph-name="Ecaron" unicode="&#x11a;" horiz-adv-x="655" 
d="M197 907h68l93 -85l94 85h67v-7l-139 -129h-45l-138 129v7zM599 0h-502v700h493v-66h-423v-251h404v-65h-404v-252h432v-66z" />
    <glyph glyph-name="ecaron" unicode="&#x11b;" horiz-adv-x="586" 
d="M142 701h68l91 -84l93 84h67v-7l-138 -127h-45l-136 127v7zM115 218q6 -76 58.5 -120t128.5 -44q47 0 95 18t72 50l45 -40q-36 -44 -93 -68t-119 -24q-112 0 -184 70.5t-72 186.5q0 111 71.5 183.5t181.5 70.5q108 2 178 -60.5t70 -182.5q0 -12 -2 -40h-430zM482 275
q-2 79 -53 123t-129 44q-76 0 -125.5 -43.5t-59.5 -123.5h367z" />
    <glyph glyph-name="Gcircumflex" unicode="&#x11c;" horiz-adv-x="747" 
d="M438 916l136 -128v-6h-68l-91 83l-92 -83h-67v6l137 128h45zM631 562q-84 84 -215 84q-138 0 -215.5 -87t-77.5 -212q0 -122 76.5 -205.5t216.5 -83.5q115 0 201 76v177h-229v65h296v-271q-110 -115 -268 -115q-174 0 -268.5 102.5t-94.5 253.5q0 162 99.5 264.5
t263.5 100.5q150 2 257 -104z" />
    <glyph glyph-name="gcircumflex" unicode="&#x11d;" horiz-adv-x="611" 
d="M347 714l136 -127v-6h-68l-91 82l-91 -82h-68v6l137 127h45zM504 524l46 -38l-53 -63q32 -36 49 -73t17 -91q0 -70 -38.5 -128t-110.5 -79q146 -39 146 -162q0 -88 -74.5 -138t-179.5 -50q-109 0 -179.5 55t-70.5 149h67q0 -66 53.5 -102.5t129.5 -36.5t131 31t55 92
t-55 93.5t-131 32.5q-116 0 -187.5 65t-71.5 178t78.5 177.5t180.5 64.5q91 0 146 -39zM306 439q-76 0 -133.5 -46.5t-57.5 -133.5q0 -88 53 -134.5t138 -46.5q84 0 137 52.5t53 128.5q0 87 -55.5 133.5t-134.5 46.5z" />
    <glyph glyph-name="Gbreve" unicode="&#x11e;" horiz-adv-x="747" 
d="M549 898q2 -57 -34 -88.5t-100 -31.5q-61 0 -97.5 32t-34.5 88h55q0 -30 17.5 -51t59.5 -21q41 0 59.5 20.5t18.5 51.5h56zM631 562q-84 84 -215 84q-138 0 -215.5 -87t-77.5 -212q0 -122 76.5 -205.5t216.5 -83.5q115 0 201 76v177h-229v65h296v-271
q-110 -115 -268 -115q-174 0 -268.5 102.5t-94.5 253.5q0 162 99.5 264.5t263.5 100.5q150 2 257 -104z" />
    <glyph glyph-name="gbreve" unicode="&#x11f;" horiz-adv-x="611" 
d="M447 710q2 -62 -34 -95.5t-99 -33.5q-61 0 -97 34t-34 95h54q0 -32 17.5 -54.5t59.5 -22.5q40 0 58.5 22t18.5 55h56zM504 524l46 -38l-53 -63q32 -36 49 -73t17 -91q0 -70 -38.5 -128t-110.5 -79q146 -39 146 -162q0 -88 -74.5 -138t-179.5 -50q-109 0 -179.5 55
t-70.5 149h67q0 -66 53.5 -102.5t129.5 -36.5t131 31t55 92t-55 93.5t-131 32.5q-116 0 -187.5 65t-71.5 178t78.5 177.5t180.5 64.5q91 0 146 -39zM306 439q-76 0 -133.5 -46.5t-57.5 -133.5q0 -88 53 -134.5t138 -46.5q84 0 137 52.5t53 128.5q0 87 -55.5 133.5
t-134.5 46.5z" />
    <glyph glyph-name="Gdotaccent" unicode="&#x120;" horiz-adv-x="747" 
d="M363 820q0 21 14.5 33t34.5 12t34.5 -12t14.5 -33t-14.5 -33.5t-34.5 -12.5q-19 0 -34 12.5t-15 33.5zM631 562q-84 84 -215 84q-138 0 -215.5 -87t-77.5 -212q0 -122 76.5 -205.5t216.5 -83.5q115 0 201 76v177h-229v65h296v-271q-110 -115 -268 -115
q-174 0 -268.5 102.5t-94.5 253.5q0 162 99.5 264.5t263.5 100.5q150 2 257 -104z" />
    <glyph glyph-name="gdotaccent" unicode="&#x121;" horiz-adv-x="611" 
d="M273 660q0 21 14.5 33t34.5 12t34.5 -12t14.5 -33t-14.5 -33.5t-34.5 -12.5q-19 0 -34 12.5t-15 33.5zM504 524l46 -38l-53 -63q32 -36 49 -73t17 -91q0 -70 -38.5 -128t-110.5 -79q146 -39 146 -162q0 -88 -74.5 -138t-179.5 -50q-109 0 -179.5 55t-70.5 149h67
q0 -66 53.5 -102.5t129.5 -36.5t131 31t55 92t-55 93.5t-131 32.5q-116 0 -187.5 65t-71.5 178t78.5 177.5t180.5 64.5q91 0 146 -39zM306 439q-76 0 -133.5 -46.5t-57.5 -133.5q0 -88 53 -134.5t138 -46.5q84 0 137 52.5t53 128.5q0 87 -55.5 133.5t-134.5 46.5z" />
    <glyph glyph-name="Gcommaaccent" unicode="&#x122;" horiz-adv-x="747" 
d="M631 562q-84 84 -215 84q-138 0 -215.5 -87t-77.5 -212q0 -122 76.5 -205.5t216.5 -83.5q115 0 201 76v177h-229v65h296v-271q-110 -115 -268 -115q-174 0 -268.5 102.5t-94.5 253.5q0 162 99.5 264.5t263.5 100.5q150 2 257 -104zM451 -127q0 -11 -5.5 -28t-17.5 -46.5
t-20 -51.5h-50l28 87q-30 9 -30 40q0 21 14 33t34 12q19 0 33 -12t14 -34z" />
    <glyph glyph-name="gcommaaccent" unicode="&#x123;" horiz-adv-x="611" 
d="M257 652q0 11 5 26.5t16.5 44.5t18.5 48h47l-26 -82q28 -9 28 -38q0 -19 -13.5 -30.5t-31.5 -11.5t-31 11.5t-13 31.5zM504 524l46 -38l-53 -63q32 -36 49 -73t17 -91q0 -70 -38.5 -128t-110.5 -79q146 -39 146 -162q0 -88 -74.5 -138t-179.5 -50q-109 0 -179.5 55
t-70.5 149h67q0 -66 53.5 -102.5t129.5 -36.5t131 31t55 92t-55 93.5t-131 32.5q-116 0 -187.5 65t-71.5 178t78.5 177.5t180.5 64.5q91 0 146 -39zM306 439q-76 0 -133.5 -46.5t-57.5 -133.5q0 -88 53 -134.5t138 -46.5q84 0 137 52.5t53 128.5q0 87 -55.5 133.5
t-134.5 46.5z" />
    <glyph glyph-name="Hcircumflex" unicode="&#x124;" horiz-adv-x="758" 
d="M399 910l139 -130v-7h-69l-94 85l-93 -85h-69v7l140 130h46zM591 0v310h-424v-310h-70v700h70v-324h424v324h70v-700h-70z" />
    <glyph glyph-name="hcircumflex" unicode="&#x125;" horiz-adv-x="594" 
d="M315 902l137 -129v-6h-68l-92 84l-92 -84h-68v6l138 129h45zM144 700v-292q55 91 172 93q101 0 153.5 -61t52.5 -163v-277h-67v277q0 77 -36.5 118.5t-110.5 41.5q-71 0 -117 -49t-46 -122v-266h-67v700h66z" />
    <glyph glyph-name="Hbar" unicode="&#x126;" horiz-adv-x="773" 
d="M31 579h72v121h70v-121h424v121h70v-121h76v-51h-76v-528h-70v310h-424v-310h-70v528h-72v51zM597 376v152h-424v-152h424z" />
    <glyph glyph-name="hbar" unicode="&#x127;" horiz-adv-x="594" 
d="M144 700v-76h142v-52h-142v-164q55 91 172 93q101 0 153.5 -61t52.5 -163v-277h-67v277q0 77 -36.5 118.5t-110.5 41.5q-71 0 -117 -49t-46 -122v-266h-67v572h-64v52h64v76h66z" />
    <glyph glyph-name="Itilde" unicode="&#x128;" horiz-adv-x="264" 
d="M0 804q7 32 28.5 50.5t49.5 18.5q6 0 18 -2q10 -2 41.5 -17t47.5 -15q25 0 34 31l44 -18q-6 -34 -27.5 -51.5t-48.5 -17.5q-6 0 -18 2q-9 3 -41.5 18t-47.5 15q-25 0 -36 -32zM97 0v700h70v-700h-70z" />
    <glyph glyph-name="itilde" unicode="&#x129;" horiz-adv-x="225" 
d="M3 652q6 32 23.5 50.5t40.5 18.5q5 0 15 -2q8 -2 34 -17t39 -15q21 0 29 31l36 -17q-5 -34 -22 -51.5t-39 -17.5q-6 0 -16 2q-7 2 -34 17t-40 15q-21 0 -29 -31zM78 0v491h69v-491h-69z" />
    <glyph glyph-name="Imacron" unicode="&#x12a;" horiz-adv-x="264" 
d="M10 822h243v-56h-243v56zM97 0v700h70v-700h-70z" />
    <glyph glyph-name="imacron" unicode="&#x12b;" horiz-adv-x="225" 
d="M11 698h202v-55h-202v55zM78 0v491h69v-491h-69z" />
    <glyph glyph-name="Ibreve" unicode="&#x12c;" horiz-adv-x="264" 
d="M254 895q2 -57 -31 -88t-91 -31q-56 0 -88.5 31.5t-31.5 87.5h50q0 -71 70 -71q37 0 54 20.5t17 50.5h51zM97 0v700h70v-700h-70z" />
    <glyph glyph-name="ibreve" unicode="&#x12d;" horiz-adv-x="225" 
d="M223 692q2 -57 -29.5 -88.5t-80.5 -31.5q-117 0 -113 120h48q0 -69 64 -69q61 0 61 69h50zM78 0v491h69v-491h-69z" />
    <glyph glyph-name="Iogonek" unicode="&#x12e;" horiz-adv-x="269" 
d="M161 0q-31 -2 -48 -15q-22 -17 -22 -41q0 -17 12 -29.5t34 -15.5q9 -3 19 -3q42 0 71 37l40 -26q-17 -32 -51.5 -50t-73.5 -18q-46 0 -75.5 22.5t-34.5 56.5q-2 10 -2 17q0 28 18 53t52 36v676h70v-700h-9z" />
    <glyph glyph-name="iogonek" unicode="&#x12f;" horiz-adv-x="226" 
d="M68 649q0 22 14 34.5t33 12.5t33.5 -12.5t14.5 -34.5q0 -23 -14 -35t-34 -12q-19 0 -33 12t-14 35zM148 496v-496q-37 0 -58 -17.5t-21 -41.5q0 -18 13 -34q18 -18 45 -18q39 0 64 31l34 -25q-30 -56 -97 -56q-50 0 -85 35q-25 28 -25 66q0 63 63 84v472h67z" />
    <glyph glyph-name="Idotaccent" unicode="&#x130;" horiz-adv-x="264" 
d="M85 816q0 21 15 33t35 12t34.5 -12t14.5 -33t-14.5 -33t-34.5 -12t-35 12t-15 33zM97 0v700h70v-700h-70z" />
    <glyph glyph-name="dotlessi" unicode="&#x131;" horiz-adv-x="225" 
d="M78 0v491h69v-491h-69z" />
    <glyph glyph-name="IJ" unicode="&#x132;" horiz-adv-x="948" 
d="M97 0v700h70v-700h-70zM859 700v-427q0 -130 -79 -206t-206 -76q-125 0 -204.5 76.5t-79.5 203.5h70q0 -98 59 -156t155 -58q97 0 156 57.5t59 158.5v362h-257v65h327z" />
    <glyph glyph-name="ij" unicode="&#x133;" horiz-adv-x="446" 
d="M287 653q0 22 14 34.5t33 12.5t33.5 -12.5t14.5 -34.5q0 -23 -14 -35t-34 -12q-19 0 -33 12t-14 35zM65 649q0 22 14 34.5t33 12.5t33.5 -12.5t14.5 -34.5q0 -23 -14 -35t-34 -12q-19 0 -33 12t-14 35zM145 496v-496h-67v496h67zM368 495v-564q0 -86 -30 -132t-107 -46
q-48 0 -94 28l21 55q34 -18 71 -18q32 0 48.5 16.5t20 37.5t3.5 59v564h67z" />
    <glyph glyph-name="Jcircumflex" unicode="&#x134;" horiz-adv-x="684" 
d="M423 910l139 -129v-7h-69l-94 84l-93 -84h-69v7l140 129h46zM595 700v-427q0 -130 -79 -206t-206 -76q-125 0 -204.5 76.5t-79.5 203.5h70q0 -98 59 -156t155 -58q97 0 156 57.5t59 158.5v362h-257v65h327z" />
    <glyph glyph-name="jcircumflex" unicode="&#x135;" horiz-adv-x="223" 
d="M125 704l107 -130v-7h-56l-69 81l-71 -81h-54v7l108 130h35zM145 495v-564q0 -86 -30 -132t-107 -46q-48 0 -94 28l21 55q34 -18 71 -18q32 0 48.5 16.5t20 37.5t3.5 59v564h67z" />
    <glyph glyph-name="Kcommaaccent" unicode="&#x136;" horiz-adv-x="606" 
d="M575 695l-341 -331l371 -359v-5h-87l-351 339v-339h-70v700h70v-315l325 315h83v-5zM382 -114q0 -11 -5.5 -27t-17.5 -45t-19 -50h-48l27 84q-29 9 -29 39q0 20 14 31.5t33 11.5q18 0 31.5 -11.5t13.5 -32.5z" />
    <glyph glyph-name="kcommaaccent" unicode="&#x137;" horiz-adv-x="482" 
d="M144 700v-418l216 212h85v-4l-237 -229l266 -257v-4h-86l-244 237v-237h-66v700h66zM305 -109q0 -10 -5 -24.5t-16 -41.5t-18 -46h-44l25 77q-27 8 -27 36q0 19 12.5 29.5t30.5 10.5q17 0 29.5 -11t12.5 -30z" />
    <glyph glyph-name="kgreenlandic" unicode="&#x138;" horiz-adv-x="483" 
d="M145 494v-212l216 212h85v-4l-237 -229l266 -257v-4h-83l-247 237v-237h-67v494h67z" />
    <glyph glyph-name="Lacute" unicode="&#x139;" horiz-adv-x="573" 
d="M257 896l-88 -118h-57v4l70 116h75v-2zM167 700v-634h389v-66h-459v700h70z" />
    <glyph glyph-name="lacute" unicode="&#x13a;" horiz-adv-x="237" 
d="M216 876l-83 -111h-53v3l65 109h71v-1zM152 700v-700h-67v700h67z" />
    <glyph glyph-name="Lcommaaccent" unicode="&#x13b;" horiz-adv-x="573" 
d="M167 700v-634h389v-66h-459v700h70zM371 -120q0 -10 -5 -25.5t-16 -42t-18 -47.5h-46l26 79q-28 9 -28 37q0 19 13 30t31 11t30.5 -11t12.5 -31z" />
    <glyph glyph-name="lcommaaccent" unicode="&#x13c;" horiz-adv-x="237" 
d="M152 700v-700h-67v700h67zM160 -120q0 -10 -5 -25.5t-16 -42t-18 -47.5h-46l26 79q-28 9 -28 37q0 19 13 30t31 11t30.5 -11t12.5 -31z" />
    <glyph glyph-name="Lcaron" unicode="&#x13d;" horiz-adv-x="574" 
d="M167 700v-634h389v-66h-459v700h70zM408 698h67l-57 -166h-52z" />
    <glyph glyph-name="lcaron" unicode="&#x13e;" horiz-adv-x="252" 
d="M241 701h67l-57 -167h-52zM152 700v-700h-67v700h67z" />
    <glyph glyph-name="Ldot" unicode="&#x13f;" horiz-adv-x="573" 
d="M167 700v-634h389v-66h-459v700h70zM308 306q0 23 14.5 35.5t34.5 12.5q19 0 33.5 -12.5t14.5 -35.5t-14.5 -35.5t-33.5 -12.5q-20 0 -34.5 12.5t-14.5 35.5z" />
    <glyph glyph-name="ldot" unicode="&#x140;" horiz-adv-x="327" 
d="M152 700v-700h-67v700h67zM232 299q0 23 14.5 35.5t34.5 12.5q19 0 33.5 -12.5t14.5 -35.5t-14.5 -35.5t-33.5 -12.5q-20 0 -34.5 12.5t-14.5 35.5z" />
    <glyph glyph-name="Lslash" unicode="&#x141;" horiz-adv-x="577" 
d="M285 430v-62l-114 -49v-255h391v-64h-459v288l-72 -30v61l72 31v350h68v-319z" />
    <glyph glyph-name="lslash" unicode="&#x142;" horiz-adv-x="267" 
d="M245 350l-79 -33v-317h-67v288l-70 -28v58l70 30v352h67v-323l79 33v-60z" />
    <glyph glyph-name="Nacute" unicode="&#x143;" horiz-adv-x="757" 
d="M475 894l-92 -121h-59v3l73 120h78v-2zM594 132l-4 232v336h70v-700h-42l-453 563l2 -207v-356h-70v700h44z" />
    <glyph glyph-name="nacute" unicode="&#x144;" horiz-adv-x="608" 
d="M412 702l-89 -119h-58v3l71 117h76v-1zM468 0v277q0 79 -42.5 120.5t-118.5 41.5q-71 0 -116.5 -49t-45.5 -121v-269h-67v494h64l2 -83q54 91 175 91q46 0 85 -14q61 -21 96.5 -75.5t35.5 -134.5v-278h-68z" />
    <glyph glyph-name="Ncommaaccent" unicode="&#x145;" horiz-adv-x="757" 
d="M594 132l-4 232v336h70v-700h-42l-453 563l2 -207v-356h-70v700h44zM422 -105q0 -10 -5 -25.5t-16 -42t-18 -47.5h-46l26 79q-28 9 -28 37q0 19 13 30t31 11t30.5 -11t12.5 -31z" />
    <glyph glyph-name="ncommaaccent" unicode="&#x146;" horiz-adv-x="608" 
d="M468 0v277q0 79 -42.5 120.5t-118.5 41.5q-71 0 -116.5 -49t-45.5 -121v-269h-67v494h64l2 -83q54 91 175 91q46 0 85 -14q61 -21 96.5 -75.5t35.5 -134.5v-278h-68zM348 -105q0 -10 -5 -25.5t-16 -42t-18 -47.5h-46l26 79q-28 9 -28 37q0 19 13 30t31 11t30.5 -11
t12.5 -31z" />
    <glyph glyph-name="Ncaron" unicode="&#x147;" horiz-adv-x="757" 
d="M225 907h68l91 -84l93 84h67v-7l-138 -127h-45l-136 127v7zM594 132l-4 232v336h70v-700h-42l-453 563l2 -207v-356h-70v700h44z" />
    <glyph glyph-name="ncaron" unicode="&#x148;" horiz-adv-x="608" 
d="M164 705h65l87 -80l89 80h63v-6l-131 -122h-43l-130 122v6zM468 0v277q0 79 -42.5 120.5t-118.5 41.5q-71 0 -116.5 -49t-45.5 -121v-269h-67v494h64l2 -83q54 91 175 91q46 0 85 -14q61 -21 96.5 -75.5t35.5 -134.5v-278h-68z" />
    <glyph glyph-name="napostrophe" unicode="&#x149;" horiz-adv-x="608" 
d="M468 0v277q0 79 -42.5 120.5t-118.5 41.5q-71 0 -116.5 -49t-45.5 -121v-269h-67v494h64l2 -83q54 91 175 91q46 0 85 -14q61 -21 96.5 -75.5t35.5 -134.5v-278h-68z" />
    <glyph glyph-name="Eng" unicode="&#x14a;" horiz-adv-x="757" 
d="M594 132l-4 232v336h70v-726q0 -86 -30.5 -131t-109.5 -45q-48 0 -90 26l22 55q33 -18 67 -18q46 0 61 28.5t15 84.5v54l-430 535l2 -207v-356h-70v700h44z" />
    <glyph glyph-name="eng" unicode="&#x14b;" horiz-adv-x="608" 
d="M536 -23q0 -85 -31.5 -130t-108.5 -45q-44 0 -88 26l22 55q37 -19 64 -18q46 0 60 27.5t14 84.5v300q0 79 -42.5 120.5t-118.5 41.5q-71 0 -116.5 -49t-45.5 -121v-269h-67v494h64l2 -83q54 91 175 91q46 0 85 -14q61 -21 96.5 -75.5t35.5 -134.5v-301z" />
    <glyph glyph-name="Omacron" unicode="&#x14c;" horiz-adv-x="813" 
d="M269 856h292v-59h-292v59zM407 711q86 1 155 -29t111.5 -82t65 -116.5t22.5 -135.5q0 -148 -93.5 -255t-260.5 -105q-86 -1 -155.5 29t-112 82t-65 116t-22.5 134q0 154 95.5 259t259.5 103zM122 355q0 -59 17.5 -112.5t51.5 -96.5t90 -68t126 -24q69 -1 124 23.5
t89.5 66.5t52.5 94.5t18 109.5q0 125 -74 212t-210 85q-134 2 -209.5 -81t-75.5 -209z" />
    <glyph glyph-name="omacron" unicode="&#x14d;" horiz-adv-x="600" 
d="M174 686h261v-56h-261v56zM300 501q109 0 181.5 -72t72.5 -185q0 -114 -71.5 -184t-182.5 -70q-110 0 -182 70.5t-72 183.5q0 114 71 185.5t183 71.5zM300 440q-82 0 -134.5 -55t-52.5 -141t52 -138.5t135 -52.5q84 0 135.5 52t51.5 139q0 86 -52.5 141t-134.5 55z" />
    <glyph glyph-name="Obreve" unicode="&#x14e;" horiz-adv-x="813" 
d="M543 894q2 -56 -34 -86.5t-99 -30.5q-61 0 -96.5 31t-33.5 86h54q0 -29 17.5 -49.5t58.5 -20.5q40 0 58.5 20t18.5 50h56zM407 711q86 1 155 -29t111.5 -82t65 -116.5t22.5 -135.5q0 -148 -93.5 -255t-260.5 -105q-86 -1 -155.5 29t-112 82t-65 116t-22.5 134
q0 154 95.5 259t259.5 103zM122 355q0 -59 17.5 -112.5t51.5 -96.5t90 -68t126 -24q69 -1 124 23.5t89.5 66.5t52.5 94.5t18 109.5q0 125 -74 212t-210 85q-134 2 -209.5 -81t-75.5 -209z" />
    <glyph glyph-name="obreve" unicode="&#x14f;" horiz-adv-x="600" 
d="M439 700q2 -60 -33.5 -92t-97.5 -32q-61 0 -96 32.5t-33 91.5h53q0 -74 76 -74q40 0 58 21.5t18 52.5h55zM300 501q109 0 181.5 -72t72.5 -185q0 -114 -71.5 -184t-182.5 -70q-110 0 -182 70.5t-72 183.5q0 114 71 185.5t183 71.5zM300 440q-82 0 -134.5 -55t-52.5 -141
t52 -138.5t135 -52.5q84 0 135.5 52t51.5 139q0 86 -52.5 141t-134.5 55z" />
    <glyph glyph-name="Ohungarumlaut" unicode="&#x150;" horiz-adv-x="813" 
d="M454 892l-86 -113h-59v3l73 112h72v-2zM592 892l-86 -113h-59v3l73 112h72v-2zM407 711q86 1 155 -29t111.5 -82t65 -116.5t22.5 -135.5q0 -148 -93.5 -255t-260.5 -105q-86 -1 -155.5 29t-112 82t-65 116t-22.5 134q0 154 95.5 259t259.5 103zM122 355
q0 -59 17.5 -112.5t51.5 -96.5t90 -68t126 -24q69 -1 124 23.5t89.5 66.5t52.5 94.5t18 109.5q0 125 -74 212t-210 85q-134 2 -209.5 -81t-75.5 -209z" />
    <glyph glyph-name="ohungarumlaut" unicode="&#x151;" horiz-adv-x="600" 
d="M341 687l-82 -98h-57v3l70 97h69v-2zM473 687l-83 -98h-56v3l70 97h69v-2zM300 501q109 0 181.5 -72t72.5 -185q0 -114 -71.5 -184t-182.5 -70q-110 0 -182 70.5t-72 183.5q0 114 71 185.5t183 71.5zM300 440q-82 0 -134.5 -55t-52.5 -141t52 -138.5t135 -52.5
q84 0 135.5 52t51.5 139q0 86 -52.5 141t-134.5 55z" />
    <glyph glyph-name="OE" unicode="&#x152;" horiz-adv-x="972" 
d="M919 0h-432q-43 -8 -80 -8q-171 0 -262.5 101t-91.5 259q0 159 91 257.5t263 98.5q45 0 82 -9v1h419v-63h-356v-251h336v-64h-336v-258l367 1v-65zM407 649q-138 0 -211 -81t-73 -218q0 -143 84.5 -219.5t215.5 -76.5q34 1 64 9v576q-34 10 -80 10z" />
    <glyph glyph-name="oe" unicode="&#x153;" horiz-adv-x="1009" 
d="M967 219q-280 0 -424 -1q8 -76 58.5 -119.5t126.5 -43.5q47 0 93 18t70 50l46 -40q-36 -44 -92.5 -68t-117.5 -24q-74 0 -131.5 36t-84.5 99q-60 -134 -213 -134q-109 0 -180.5 70.5t-71.5 183.5q0 114 72 185.5t180 71.5q74 0 130.5 -36t84.5 -102q27 62 83 100t129 38
q107 0 175.5 -62t68.5 -181q0 -13 -2 -41zM905 276q-2 80 -49.5 123.5t-129.5 43.5q-72 0 -122.5 -44.5t-60.5 -122.5h362zM298 441q-80 0 -132.5 -55t-52.5 -140t52 -137.5t133 -52.5t133 52.5t52 137.5t-53 140t-132 55z" />
    <glyph glyph-name="Racute" unicode="&#x154;" horiz-adv-x="708" 
d="M444 899l-90 -121h-58v4l72 119h76v-2zM671 0h-91l-232 258h-181v-258h-70v700h314q111 0 171.5 -64t60.5 -158q0 -88 -52.5 -148.5t-158.5 -66.5zM167 634v-310h240q81 0 123.5 42.5t42.5 111.5t-42 112.5t-120 43.5h-244z" />
    <glyph glyph-name="racute" unicode="&#x155;" horiz-adv-x="418" 
d="M331 698l-83 -112h-54v4l66 110h71v-2zM141 494l4 -81q43 89 157 89q62 0 112 -35l-31 -56q-38 26 -85 26q-64 0 -108.5 -44.5t-44.5 -111.5v-281h-67v494h63z" />
    <glyph glyph-name="Rcommaaccent" unicode="&#x156;" horiz-adv-x="708" 
d="M671 0h-91l-232 258h-181v-258h-70v700h314q111 0 171.5 -64t60.5 -158q0 -88 -52.5 -148.5t-158.5 -66.5zM167 634v-310h240q81 0 123.5 42.5t42.5 111.5t-42 112.5t-120 43.5h-244zM403 -105q0 -10 -5 -25.5t-16 -42t-18 -47.5h-46l26 79q-28 9 -28 37q0 19 13 30
t31 11t30.5 -11t12.5 -31z" />
    <glyph glyph-name="rcommaaccent" unicode="&#x157;" horiz-adv-x="418" 
d="M141 494l4 -81q43 89 157 89q62 0 112 -35l-31 -56q-38 26 -85 26q-64 0 -108.5 -44.5t-44.5 -111.5v-281h-67v494h63zM155 -105q0 -10 -5 -25.5t-16 -42t-18 -47.5h-46l26 79q-28 9 -28 37q0 19 13 30t31 11t30.5 -11t12.5 -31z" />
    <glyph glyph-name="Rcaron" unicode="&#x158;" horiz-adv-x="708" 
d="M180 907h68l91 -84l93 84h67v-7l-138 -127h-45l-136 127v7zM671 0h-91l-232 258h-181v-258h-70v700h314q111 0 171.5 -64t60.5 -158q0 -88 -52.5 -148.5t-158.5 -66.5zM167 634v-310h240q81 0 123.5 42.5t42.5 111.5t-42 112.5t-120 43.5h-244z" />
    <glyph glyph-name="rcaron" unicode="&#x159;" horiz-adv-x="418" 
d="M93 704h63l85 -83l87 83h62v-7l-129 -125h-41l-127 125v7zM141 494l4 -81q43 89 157 89q62 0 112 -35l-31 -56q-38 26 -85 26q-64 0 -108.5 -44.5t-44.5 -111.5v-281h-67v494h63z" />
    <glyph glyph-name="Sacute" unicode="&#x15a;" horiz-adv-x="660" 
d="M443 903l-94 -125h-60v4l74 123h80v-2zM534 556q-27 45 -83 67t-118 22q-36 0 -68 -6t-62.5 -19t-48.5 -39.5t-18 -63.5q0 -30 14.5 -51t46 -35t60.5 -21t78 -16q51 -9 83.5 -16.5t73.5 -23t64.5 -35.5t40 -53t16.5 -76q0 -46 -17 -81.5t-44.5 -57.5t-65 -36.5t-75 -20
t-78.5 -5.5q-96 0 -175.5 38t-116.5 117l61 33q33 -63 96 -92t135 -29q37 0 70 5.5t66 19.5t53 42t20 68q0 27 -12.5 49t-30.5 35.5t-49 24.5t-57 16.5t-65 12.5q-41 8 -66 13t-60 15.5t-55.5 23.5t-41 31.5t-30 45t-9.5 59.5q-1 53 23.5 92.5t65.5 60.5t85.5 31t91.5 10
q183 0 261 -122z" />
    <glyph glyph-name="sacute" unicode="&#x15b;" horiz-adv-x="499" 
d="M351 699l-87 -116h-56v4l69 114h74v-2zM400 391q-55 50 -146 50q-58 0 -97 -20t-37 -58q0 -27 23 -45t48.5 -24.5t63.5 -11.5q28 -4 40 -6t38.5 -8t39.5 -12t32.5 -17.5t29 -25t17 -34t7.5 -45.5q-2 -73 -60.5 -108.5t-142.5 -35.5q-147 0 -219 96l42 46q59 -78 178 -80
q53 0 94 19t41 64q0 44 -35 61t-108 27q-33 5 -57 10t-51.5 15.5t-45 24t-29.5 36.5t-12 52q0 69 59 105t140 36q113 0 186 -67z" />
    <glyph glyph-name="Scircumflex" unicode="&#x15c;" horiz-adv-x="660" 
d="M367 925l143 -133v-7h-71l-96 87l-96 -87h-71v7l144 133h47zM534 556q-27 45 -83 67t-118 22q-36 0 -68 -6t-62.5 -19t-48.5 -39.5t-18 -63.5q0 -30 14.5 -51t46 -35t60.5 -21t78 -16q51 -9 83.5 -16.5t73.5 -23t64.5 -35.5t40 -53t16.5 -76q0 -46 -17 -81.5t-44.5 -57.5
t-65 -36.5t-75 -20t-78.5 -5.5q-96 0 -175.5 38t-116.5 117l61 33q33 -63 96 -92t135 -29q37 0 70 5.5t66 19.5t53 42t20 68q0 27 -12.5 49t-30.5 35.5t-49 24.5t-57 16.5t-65 12.5q-41 8 -66 13t-60 15.5t-55.5 23.5t-41 31.5t-30 45t-9.5 59.5q-1 53 23.5 92.5t65.5 60.5
t85.5 31t91.5 10q183 0 261 -122z" />
    <glyph glyph-name="scircumflex" unicode="&#x15d;" horiz-adv-x="499" 
d="M282 703l133 -123v-7h-66l-89 81l-89 -81h-66v7l134 123h43zM400 391q-55 50 -146 50q-58 0 -97 -20t-37 -58q0 -27 23 -45t48.5 -24.5t63.5 -11.5q28 -4 40 -6t38.5 -8t39.5 -12t32.5 -17.5t29 -25t17 -34t7.5 -45.5q-2 -73 -60.5 -108.5t-142.5 -35.5q-147 0 -219 96
l42 46q59 -78 178 -80q53 0 94 19t41 64q0 44 -35 61t-108 27q-33 5 -57 10t-51.5 15.5t-45 24t-29.5 36.5t-12 52q0 69 59 105t140 36q113 0 186 -67z" />
    <glyph glyph-name="Scedilla" unicode="&#x15e;" horiz-adv-x="660" 
d="M534 556q-27 45 -83 67t-118 22q-36 0 -68 -6t-62.5 -19t-48.5 -39.5t-18 -63.5q0 -30 14.5 -51t46 -35t60.5 -21t78 -16q51 -9 83.5 -16.5t73.5 -23t64.5 -35.5t40 -53t16.5 -76q0 -52 -21 -90.5t-58 -61t-78 -34t-89 -14.5l-11 -49q51 2 77 -21.5t26 -60.5
q0 -15 -2 -22q-9 -37 -41.5 -56t-72.5 -19q-76 0 -109 56l35 31q23 -34 67 -36q24 -2 43 6.5t24 27.5q2 8 2 13q0 19 -15.5 31.5t-42.5 12.5q-17 0 -36 -6l-12 10l18 81q-91 3 -166 41t-110 114l61 33q33 -63 96 -92t135 -29q37 0 70 5.5t66 19.5t53 42t20 68q0 27 -12.5 49
t-30.5 35.5t-49 24.5t-57 16.5t-65 12.5q-41 8 -66 13t-60 15.5t-55.5 23.5t-41 31.5t-30 45t-9.5 59.5q-1 53 23.5 92.5t65.5 60.5t85.5 31t91.5 10q183 0 261 -122z" />
    <glyph glyph-name="scedilla" unicode="&#x15f;" horiz-adv-x="503" 
d="M400 391q-55 50 -146 50q-58 0 -97 -20t-37 -58q0 -27 23 -45t48.5 -24.5t63.5 -11.5q28 -4 40 -6t38.5 -8t39.5 -12t32.5 -17.5t29 -25t17 -34t7.5 -45.5q-2 -67 -52 -102t-125 -41l-11 -43q47 2 71 -18t24 -51q0 -9 -1 -14q-6 -37 -37 -57t-72 -20q-75 2 -103 51l33 28
q21 -30 64 -32q25 -2 45 8.5t20 32.5q0 17 -15 28t-41 11q-14 0 -34 -5l-11 9l22 72q-133 7 -199 95l42 46q59 -78 178 -80q53 0 94 19t41 64q0 44 -35 61t-108 27q-33 5 -57 10t-51.5 15.5t-45 24t-29.5 36.5t-12 52q0 69 59 105t140 36q113 0 186 -67z" />
    <glyph glyph-name="Scaron" unicode="&#x160;" horiz-adv-x="660" 
d="M174 917h71l96 -88l98 88h70v-7l-145 -134h-47l-143 134v7zM534 556q-27 45 -83 67t-118 22q-36 0 -68 -6t-62.5 -19t-48.5 -39.5t-18 -63.5q0 -30 14.5 -51t46 -35t60.5 -21t78 -16q51 -9 83.5 -16.5t73.5 -23t64.5 -35.5t40 -53t16.5 -76q0 -46 -17 -81.5t-44.5 -57.5
t-65 -36.5t-75 -20t-78.5 -5.5q-96 0 -175.5 38t-116.5 117l61 33q33 -63 96 -92t135 -29q37 0 70 5.5t66 19.5t53 42t20 68q0 27 -12.5 49t-30.5 35.5t-49 24.5t-57 16.5t-65 12.5q-41 8 -66 13t-60 15.5t-55.5 23.5t-41 31.5t-30 45t-9.5 59.5q-1 53 23.5 92.5t65.5 60.5
t85.5 31t91.5 10q183 0 261 -122z" />
    <glyph glyph-name="scaron" unicode="&#x161;" horiz-adv-x="499" 
d="M109 703h64l87 -79l89 79h63v-6l-131 -121h-43l-129 121v6zM400 391q-55 50 -146 50q-58 0 -97 -20t-37 -58q0 -27 23 -45t48.5 -24.5t63.5 -11.5q28 -4 40 -6t38.5 -8t39.5 -12t32.5 -17.5t29 -25t17 -34t7.5 -45.5q-2 -73 -60.5 -108.5t-142.5 -35.5q-147 0 -219 96
l42 46q59 -78 178 -80q53 0 94 19t41 64q0 44 -35 61t-108 27q-33 5 -57 10t-51.5 15.5t-45 24t-29.5 36.5t-12 52q0 69 59 105t140 36q113 0 186 -67z" />
    <glyph glyph-name="uni0162" unicode="&#x162;" horiz-adv-x="598" 
d="M16 634v66h564v-66h-247v-634h-20l-9 -41q50 2 74.5 -21t24.5 -58q0 -48 -33.5 -74t-78.5 -26q-79 0 -112 56l35 31q26 -36 74 -36q25 0 43 13t18 35q0 19 -15.5 31.5t-40.5 12.5q-17 0 -36 -6l-12 10l18 73v634h-247z" />
    <glyph glyph-name="uni0163" unicode="&#x163;" horiz-adv-x="392" 
d="M203 640v-150h160v-57h-160v-276q0 -51 18.5 -77t65.5 -26q31 0 72 19l21 -56q-51 -24 -95 -24q-9 0 -27 2l-11 -46q50 2 77 -19t27 -53q0 -44 -34.5 -68t-80.5 -24q-77 0 -110 52l34 29q27 -34 73 -34q27 0 45.5 11t18.5 33q0 16 -15.5 26.5t-41.5 10.5q-15 0 -38 -5
l-11 9l23 87q-78 33 -78 153v276h-101v57h101v143z" />
    <glyph glyph-name="Tcaron" unicode="&#x164;" horiz-adv-x="596" 
d="M133 907h69l93 -83l95 83h68v-6l-141 -128h-45l-139 128v6zM263 634h-247v66h564v-66h-247v-634h-70v634z" />
    <glyph glyph-name="tcaron" unicode="&#x165;" horiz-adv-x="423" 
d="M389 641h66l-57 -163h-50zM199 640v-147h102v-57h-102v-279q0 -51 18.5 -77t65.5 -26q31 0 72 19l21 -56q-53 -24 -98 -24q-146 0 -146 164v279h-97v57h97v140z" />
    <glyph glyph-name="Tbar" unicode="&#x166;" horiz-adv-x="608" 
d="M270 304h-126v56h126v274h-247v66h564v-66h-247v-274h127v-56h-127v-304h-70v304z" />
    <glyph glyph-name="tbar" unicode="&#x167;" horiz-adv-x="392" 
d="M203 640v-150h160v-57h-160v-127h119v-50h-119v-99q0 -51 18.5 -77t65.5 -26q31 0 72 19l21 -56q-53 -24 -98 -24q-146 0 -146 164v99h-78v50h78v127h-101v57h101v143z" />
    <glyph glyph-name="Utilde" unicode="&#x168;" horiz-adv-x="734" 
d="M237 804q7 33 28.5 51t52.5 18q5 0 17 -2q10 -2 42.5 -17t48.5 -15q26 0 35 31l45 -18q-6 -34 -27.5 -51t-49.5 -17q-7 0 -19 2t-44.5 17t-48.5 15q-26 0 -35 -31zM645 700v-430q0 -136 -78 -208t-198 -72q-121 0 -200.5 72.5t-79.5 207.5v430h70v-430q0 -98 59.5 -156.5
t150.5 -58.5q86 0 146 55.5t60 159.5v430h70z" />
    <glyph glyph-name="utilde" unicode="&#x169;" horiz-adv-x="606" 
d="M172 651q7 31 28.5 48.5t51.5 17.5q6 0 18 -2q9 -2 41.5 -16t48.5 -14q27 0 36 29l45 -17q-6 -32 -27.5 -48.5t-48.5 -16.5q-8 0 -20 2t-44.5 16t-47.5 14q-25 0 -36 -29zM144 494v-277q0 -77 40 -119t113 -42q72 0 118.5 48t46.5 121v269h66v-494h-62l-2 83
q-58 -91 -175 -93q-96 0 -154 61t-58 165v278h67z" />
    <glyph glyph-name="Umacron" unicode="&#x16a;" horiz-adv-x="734" 
d="M245 831h261v-55h-261v55zM645 700v-430q0 -136 -78 -208t-198 -72q-121 0 -200.5 72.5t-79.5 207.5v430h70v-430q0 -98 59.5 -156.5t150.5 -58.5q86 0 146 55.5t60 159.5v430h70z" />
    <glyph glyph-name="umacron" unicode="&#x16b;" horiz-adv-x="606" 
d="M180 698h251v-53h-251v53zM144 494v-277q0 -77 40 -119t113 -42q72 0 118.5 48t46.5 121v269h66v-494h-62l-2 83q-58 -91 -175 -93q-96 0 -154 61t-58 165v278h67z" />
    <glyph glyph-name="Ubreve" unicode="&#x16c;" horiz-adv-x="734" 
d="M507 893q2 -62 -34 -95.5t-99 -33.5q-61 0 -97 34t-34 95h54q0 -32 17.5 -54.5t59.5 -22.5q40 0 58.5 22t18.5 55h56zM645 700v-430q0 -136 -78 -208t-198 -72q-121 0 -200.5 72.5t-79.5 207.5v430h70v-430q0 -98 59.5 -156.5t150.5 -58.5q86 0 146 55.5t60 159.5v430h70
z" />
    <glyph glyph-name="ubreve" unicode="&#x16d;" horiz-adv-x="606" 
d="M439 700q2 -60 -33 -92t-97 -32q-59 0 -94.5 32.5t-33.5 91.5h53q0 -74 75 -74q39 0 57 21.5t18 52.5h55zM144 494v-277q0 -77 40 -119t113 -42q72 0 118.5 48t46.5 121v269h66v-494h-62l-2 83q-58 -91 -175 -93q-96 0 -154 61t-58 165v278h67z" />
    <glyph glyph-name="Uring" unicode="&#x16e;" horiz-adv-x="734" 
d="M266 829q0 42 31.5 66.5t74.5 24.5t74.5 -24t31.5 -67q0 -44 -30.5 -69t-76.5 -25q-47 0 -76 25t-29 69zM371 879q-27 0 -41.5 -15t-14.5 -35t15 -35t41 -15q27 0 42 15t15 35t-15 35t-42 15zM645 700v-430q0 -136 -78 -208t-198 -72q-121 0 -200.5 72.5t-79.5 207.5v430
h70v-430q0 -98 59.5 -156.5t150.5 -58.5q86 0 146 55.5t60 159.5v430h70z" />
    <glyph glyph-name="uring" unicode="&#x16f;" horiz-adv-x="606" 
d="M204 636q0 42 30 66t72 24q41 0 72 -24t31 -66q0 -43 -30 -67.5t-74 -24.5q-45 0 -73 24.5t-28 67.5zM305 685q-25 0 -39.5 -14.5t-14.5 -33.5q0 -20 14.5 -35t39.5 -15q26 0 40.5 14t14.5 34t-14.5 35t-40.5 15zM144 494v-277q0 -77 40 -119t113 -42q72 0 118.5 48
t46.5 121v269h66v-494h-62l-2 83q-58 -91 -175 -93q-96 0 -154 61t-58 165v278h67z" />
    <glyph glyph-name="Uhungarumlaut" unicode="&#x170;" horiz-adv-x="734" 
d="M403 882l-86 -114h-60v2l74 114h72v-2zM542 882l-87 -114h-59v2l74 114h72v-2zM645 700v-430q0 -136 -78 -208t-198 -72q-121 0 -200.5 72.5t-79.5 207.5v430h70v-430q0 -98 59.5 -156.5t150.5 -58.5q86 0 146 55.5t60 159.5v430h70z" />
    <glyph glyph-name="uhungarumlaut" unicode="&#x171;" horiz-adv-x="606" 
d="M319 699l-82 -108h-57v2l70 108h69v-2zM452 699l-83 -108h-56v2l70 108h69v-2zM144 494v-277q0 -77 40 -119t113 -42q72 0 118.5 48t46.5 121v269h66v-494h-62l-2 83q-58 -91 -175 -93q-96 0 -154 61t-58 165v278h67z" />
    <glyph glyph-name="Uogonek" unicode="&#x172;" horiz-adv-x="733" 
d="M645 700v-430q0 -105 -48 -172.5t-129 -92.5h2q-40 -20 -40 -56q0 -23 18.5 -39.5t48.5 -16.5q53 2 87 48l42 -28q-18 -34 -57 -55.5t-80 -21.5q-56 0 -87 31.5t-31 74.5q0 26 12 48h-14q-121 0 -200.5 72.5t-79.5 207.5v430h70v-430q0 -98 59.5 -156.5t150.5 -58.5
q86 0 146 55.5t60 159.5v430h70z" />
    <glyph glyph-name="uogonek" unicode="&#x173;" horiz-adv-x="604" 
d="M142 494v-277q0 -77 40 -119t113 -42q72 0 118.5 48t46.5 121v269h66v-539q-38 3 -73.5 -10.5t-35.5 -45.5q0 -9 1 -13q10 -35 64 -35q44 0 78 30l26 -31q-41 -47 -106 -47q-91 0 -112 62q-4 12 -4 27q0 34 25.5 62t74.5 34l-2 95q-58 -91 -175 -93q-96 0 -154 61
t-58 165v278h67z" />
    <glyph glyph-name="Wcircumflex" unicode="&#x174;" horiz-adv-x="1080" 
d="M560 918l140 -130v-7h-69l-95 85l-94 -85h-70v7l142 130h46zM801 -2h-71l-105 301l-85 265l-84 -264l-105 -302h-72l-248 702h79l204 -606l204 606h44l204 -606l205 606h78z" />
    <glyph glyph-name="wcircumflex" unicode="&#x175;" horiz-adv-x="833" 
d="M442 704l137 -129v-6h-68l-92 84l-93 -84h-68v6l138 129h46zM443 494l140 -421l139 421h74l-174 -495h-76l-73 199l-56 187l-57 -188l-73 -198h-76l-175 495h74l140 -421l140 421h53z" />
    <glyph glyph-name="Ycircumflex" unicode="&#x176;" horiz-adv-x="663" 
d="M357 914l137 -128v-6h-68l-92 83l-91 -83h-68v6l137 128h45zM331 350l226 350h82v-2l-273 -416v-282h-70v282l-269 416v2h81z" />
    <glyph glyph-name="ycircumflex" unicode="&#x177;" horiz-adv-x="544" 
d="M294 703l133 -124v-7h-66l-90 82l-90 -82h-66v7l135 124h44zM515 494l-313 -730h-73l104 242l-198 488h75l105 -273l55 -142l56 142l115 273h74z" />
    <glyph glyph-name="Ydieresis" unicode="&#x178;" horiz-adv-x="663" 
d="M185 808q0 20 12.5 30.5t29.5 10.5t29.5 -10.5t12.5 -30.5t-12.5 -31t-29.5 -11t-29.5 11t-12.5 31zM397 808q0 20 12.5 30.5t29.5 10.5t29.5 -10.5t12.5 -30.5t-12.5 -31t-29.5 -11t-29.5 11t-12.5 31zM331 350l226 350h82v-2l-273 -416v-282h-70v282l-269 416v2h81z
" />
    <glyph glyph-name="Zacute" unicode="&#x179;" horiz-adv-x="596" 
d="M394 904l-94 -126h-61v4l75 124h80v-2zM61 700h496v-30l-435 -602h435v-68h-535v36l428 599h-389v65z" />
    <glyph glyph-name="zacute" unicode="&#x17a;" horiz-adv-x="466" 
d="M335 698l-88 -118h-57v4l70 116h75v-2zM425 494v-29l-292 -401h293v-64h-395v25l295 408h-278v61h377z" />
    <glyph glyph-name="Zdotaccent" unicode="&#x17b;" horiz-adv-x="596" 
d="M255 819q0 23 14 35t34 12q19 0 33 -12t14 -35q0 -22 -14 -34.5t-33 -12.5t-33.5 12.5t-14.5 34.5zM61 700h496v-30l-435 -602h435v-68h-535v36l428 599h-389v65z" />
    <glyph glyph-name="zdotaccent" unicode="&#x17c;" horiz-adv-x="466" 
d="M200 646q0 23 14 35t34 12q19 0 33 -12t14 -35q0 -22 -14 -34.5t-33 -12.5t-33.5 12.5t-14.5 34.5zM425 494v-29l-292 -401h293v-64h-395v25l295 408h-278v61h377z" />
    <glyph glyph-name="Zcaron" unicode="&#x17d;" horiz-adv-x="596" 
d="M141 917h71l96 -88l98 88h70v-7l-145 -134h-47l-143 134v7zM61 700h496v-30l-435 -602h435v-68h-535v36l428 599h-389v65z" />
    <glyph glyph-name="zcaron" unicode="&#x17e;" horiz-adv-x="466" 
d="M94 700h64l86 -79l89 79h63v-6l-131 -121h-42l-129 121v6zM425 494v-29l-292 -401h293v-64h-395v25l295 408h-278v61h377z" />
    <glyph glyph-name="longs" unicode="&#x17f;" horiz-adv-x="297" 
d="M132 0v430h-98v59h98v41q0 83 39.5 129t118.5 46q59 0 106 -35l-29 -50q-42 25 -76 25q-92 0 -92 -115v-530h-67z" />
    <glyph glyph-name="florin" unicode="&#x192;" horiz-adv-x="454" 
d="M173 431h-122v58h122v41q0 83 39.5 129t118.5 46q59 0 106 -35l-29 -50q-42 25 -76 25q-92 0 -92 -115v-41h158v-58h-158v-432q0 -176 -148 -176q-52 0 -99 35l28 48q34 -24 70 -24q43 0 62.5 28.5t19.5 88.5v432z" />
    <glyph glyph-name="Aringacute" unicode="&#x1fa;" horiz-adv-x="750" 
d="M500 979l-98 -86h-64v3l78 84h84v-1zM376 866q52 0 84 -27t32 -64q0 -26 -18.5 -48.5t-55.5 -33.5l311 -693h-77l-74 165h-407l-73 -165h-77l311 694q-69 26 -69 83q0 36 31 62.5t82 26.5zM375 820q-28 0 -43 -13t-15 -31t15 -31t43 -13q29 0 45 13t16 31t-16.5 31
t-44.5 13zM550 230l-92 210l-83 201l-85 -204l-91 -207h351z" />
    <glyph glyph-name="aringacute" unicode="&#x1fb;" horiz-adv-x="634" 
d="M438 828l-88 -94h-57v3l70 92h75v-1zM223 621q0 39 29 61.5t70 22.5q40 0 70 -22t30 -62t-29 -62.5t-72 -22.5t-70.5 22.5t-27.5 62.5zM321 667q-25 0 -38.5 -13.5t-13.5 -31.5q0 -19 13.5 -32.5t38.5 -13.5q26 0 40 13t14 32t-14.5 32.5t-39.5 13.5zM495 494h63v-494
h-62v98q-31 -52 -85 -80t-113 -28q-108 0 -180 71t-72 186q0 114 72.5 184t180.5 70q60 0 114.5 -27.5t81.5 -77.5v98zM301 440q-80 0 -134 -53.5t-54 -139.5t54 -140t134 -54q91 0 141 57.5t50 136.5q0 78 -50 135.5t-141 57.5z" />
    <glyph glyph-name="AEacute" unicode="&#x1fc;" horiz-adv-x="914" 
d="M604 904l-94 -126h-61v4l75 124h80v-2zM860 0h-415v221h-243l-132 -221h-84l430 700h433v-65h-336v-250h320v-65h-320v-253h347v-67zM445 287v167l2 174h-3l-201 -341h202z" />
    <glyph glyph-name="aeacute" unicode="&#x1fd;" horiz-adv-x="1022" 
d="M628 700l-87 -116h-56v4l69 114h74v-2zM549 219q6 -76 60 -120t129 -44q47 0 94.5 18t71.5 50l46 -40q-36 -44 -93.5 -68t-119.5 -24q-132 0 -193 100l-1 -91h-53v97q-31 -53 -83 -80t-110 -27q-107 0 -179 71t-72 186q0 114 72.5 184t179.5 70q60 0 112.5 -27t80.5 -78
l1 98h54v-94q65 103 193 103q102 0 173 -62.5t71 -176.5q0 -21 -3 -45h-431zM918 276q-2 80 -51 123.5t-131 43.5q-72 0 -125 -44.5t-62 -122.5h369zM301 439q-80 0 -134 -53.5t-54 -138.5q0 -86 54 -139.5t134 -53.5q91 0 142 57t51 136q0 78 -51 135t-142 57z" />
    <glyph glyph-name="Oslashacute" unicode="&#x1fe;" horiz-adv-x="813" 
d="M533 913l-94 -126h-61v4l75 124h80v-2zM401 711q101 0 168 -33l48 84h72l-67 -116q68 -50 103.5 -129t35.5 -169q0 -94 -37.5 -174t-118.5 -133t-192 -53q-91 0 -155 26l-53 -91h-72l69 120q-73 49 -111.5 131t-38.5 175q0 152 94 257t255 105zM122 355
q0 -78 28.5 -144.5t85.5 -107.5l299 517q-61 26 -128 25q-134 2 -209.5 -81t-75.5 -209zM691 348q0 72 -26.5 135t-76.5 104l-296 -514q52 -20 115 -19q69 -1 124 23.5t89.5 66.5t52.5 94.5t18 109.5z" />
    <glyph glyph-name="oslashacute" unicode="&#x1ff;" horiz-adv-x="597" 
d="M413 693l-85 -113h-55v3l68 112h72v-2zM299 501q57 0 107 -22l38 63h67l-55 -92q97 -73 97 -206q0 -114 -71.5 -184t-182.5 -70q-57 0 -105 20l-40 -67h-66l56 94q-99 71 -99 207q0 114 71 185.5t183 71.5zM299 440q-82 0 -134.5 -55t-52.5 -141q0 -97 65 -151l197 332
q-38 15 -75 15zM486 244q0 94 -63 151l-196 -330q33 -12 72 -12q84 0 135.5 52t51.5 139z" />
    <glyph glyph-name="Scommaaccent" unicode="&#x218;" horiz-adv-x="660" 
d="M534 556q-27 45 -83 67t-118 22q-36 0 -68 -6t-62.5 -19t-48.5 -39.5t-18 -63.5q0 -30 14.5 -51t46 -35t60.5 -21t78 -16q51 -9 83.5 -16.5t73.5 -23t64.5 -35.5t40 -53t16.5 -76q0 -46 -17 -81.5t-44.5 -57.5t-65 -36.5t-75 -20t-78.5 -5.5q-96 0 -175.5 38t-116.5 117
l61 33q33 -63 96 -92t135 -29q37 0 70 5.5t66 19.5t53 42t20 68q0 27 -12.5 49t-30.5 35.5t-49 24.5t-57 16.5t-65 12.5q-41 8 -66 13t-60 15.5t-55.5 23.5t-41 31.5t-30 45t-9.5 59.5q-1 53 23.5 92.5t65.5 60.5t85.5 31t91.5 10q183 0 261 -122zM381 -141q0 -10 -5 -25.5
t-16 -42t-18 -47.5h-46l26 79q-28 9 -28 37q0 19 13 30t31 11t30.5 -11t12.5 -31z" />
    <glyph glyph-name="scommaaccent" unicode="&#x219;" horiz-adv-x="499" 
d="M400 391q-55 50 -146 50q-58 0 -97 -20t-37 -58q0 -27 23 -45t48.5 -24.5t63.5 -11.5q28 -4 40 -6t38.5 -8t39.5 -12t32.5 -17.5t29 -25t17 -34t7.5 -45.5q-2 -73 -60.5 -108.5t-142.5 -35.5q-147 0 -219 96l42 46q59 -78 178 -80q53 0 94 19t41 64q0 44 -35 61t-108 27
q-33 5 -57 10t-51.5 15.5t-45 24t-29.5 36.5t-12 52q0 69 59 105t140 36q113 0 186 -67zM303 -128q0 -10 -5 -25.5t-16 -42t-18 -47.5h-46l26 79q-28 9 -28 37q0 19 13 30t31 11t30.5 -11t12.5 -31z" />
    <glyph glyph-name="uni021A" unicode="&#x21a;" horiz-adv-x="596" 
d="M263 634h-247v66h564v-66h-247v-634h-70v634zM338 -130q0 -10 -5 -25.5t-16 -42t-18 -47.5h-46l26 79q-28 9 -28 37q0 19 13 30t31 11t30.5 -11t12.5 -31z" />
    <glyph glyph-name="uni021B" unicode="&#x21b;" horiz-adv-x="392" 
d="M203 640v-150h160v-57h-160v-276q0 -51 18.5 -77t65.5 -26q31 0 72 19l21 -56q-53 -24 -98 -24q-146 0 -146 164v276h-101v57h101v143zM292 -124q0 -10 -5 -25.5t-16 -42t-18 -47.5h-46l26 79q-28 9 -28 37q0 19 13 30t31 11t30.5 -11t12.5 -31z" />
    <glyph glyph-name="uni0237" unicode="&#x237;" horiz-adv-x="223" 
d="M145 495v-564q0 -85 -31.5 -130.5t-108.5 -45.5q-52 0 -94 26l21 55q34 -18 71 -18q46 0 60.5 28.5t14.5 84.5v564h67z" />
    <glyph glyph-name="circumflex" unicode="&#x2c6;" horiz-adv-x="421" 
d="M223 704l143 -133v-7h-71l-96 87l-96 -87h-71v7l144 133h47z" />
    <glyph glyph-name="caron" unicode="&#x2c7;" horiz-adv-x="404" 
d="M31 701h71l96 -88l98 88h70v-7l-145 -134h-47l-143 134v7z" />
    <glyph glyph-name="breve" unicode="&#x2d8;" horiz-adv-x="333" 
d="M294 700q2 -62 -34 -95.5t-99 -33.5q-61 0 -97 34t-34 95h54q0 -32 17.5 -54.5t59.5 -22.5q40 0 58.5 22t18.5 55h56z" />
    <glyph glyph-name="dotaccent" unicode="&#x2d9;" horiz-adv-x="206" 
d="M45 660q0 23 14 35t34 12q19 0 33 -12t14 -35q0 -22 -14 -34.5t-33 -12.5t-33.5 12.5t-14.5 34.5z" />
    <glyph glyph-name="ring" unicode="&#x2da;" horiz-adv-x="397" 
d="M59 615q0 48 33 75t79 27t79.5 -27t33.5 -75q0 -49 -32.5 -77t-81.5 -28t-80 27.5t-31 77.5zM170 671q-28 0 -43.5 -16.5t-15.5 -38.5q0 -23 15.5 -40t43.5 -17q29 0 45 16.5t16 38.5q0 23 -16.5 40t-44.5 17z" />
    <glyph glyph-name="ogonek" unicode="&#x2db;" horiz-adv-x="407" 
d="M302 -140q-17 -33 -50.5 -50.5t-72.5 -17.5q-51 0 -82 28t-31 67q0 40 31.5 70.5t93.5 30.5q21 0 33 -2l15 -37q-18 3 -33 3q-39 0 -63 -17.5t-24 -41.5q0 -11 4 -19q6 -15 23.5 -24.5t40.5 -7.5q48 2 76 43z" />
    <glyph glyph-name="tilde" unicode="&#x2dc;" horiz-adv-x="336" 
d="M30 650q7 33 28.5 52t51.5 19q6 0 18 -2q10 -2 42.5 -17.5t48.5 -15.5q26 0 35 32l45 -18q-6 -36 -27.5 -53.5t-49.5 -17.5q-7 0 -19 2q-8 2 -41.5 17.5t-49.5 15.5q-26 0 -37 -32z" />
    <glyph glyph-name="hungarumlaut" unicode="&#x2dd;" horiz-adv-x="352" 
d="M177 699l-89 -118h-62v3l76 117h75v-2zM321 699l-90 -118h-61v3l76 117h75v-2z" />
    <glyph glyph-name="uni0326" unicode="&#x326;" horiz-adv-x="0" 
d="M-182 -139q0 -11 -5.5 -28t-17.5 -47t-20 -52h-50l28 87q-30 9 -30 41q0 2 2 8q3 18 16 27.5t30 9.5q19 0 33 -12t14 -34z" />
    <glyph glyph-name="uni0394" unicode="&#x394;" horiz-adv-x="693" 
d="M696 0h-708l314 700h80zM90 63h503l-251 568z" />
    <glyph glyph-name="uni03A9" unicode="&#x3a9;" horiz-adv-x="801" 
d="M385 644q-135 0 -209 -85t-74 -207q0 -102 54.5 -184t154.5 -105v-63h-250v63l133 -2q-80 44 -122 121t-42 171q0 151 95.5 255t259.5 104q165 0 260.5 -104t95.5 -255q0 -94 -42 -171t-122 -121l133 2v-63h-250v63q99 23 154 105.5t55 183.5q0 122 -74.5 207t-209.5 85z
" />
    <glyph glyph-name="pi" unicode="&#x3c0;" horiz-adv-x="679" 
d="M145 0v436h-118v58h618v-58h-120v-292q0 -47 15.5 -71t55.5 -24q12 0 29 3l3 -54q-28 -5 -47 -5q-122 0 -122 150v293h-248v-436h-66z" />
    <glyph glyph-name="Wgrave" unicode="&#x1e80;" horiz-adv-x="1080" 
d="M423 900h78l70 -118v-4h-60l-88 120v2zM801 -2h-71l-105 301l-85 265l-84 -264l-105 -302h-72l-248 702h79l204 -606l204 606h44l204 -606l205 606h78z" />
    <glyph glyph-name="wgrave" unicode="&#x1e81;" horiz-adv-x="833" 
d="M308 699h75l68 -108v-3h-58l-85 109v2zM443 494l140 -421l139 421h74l-174 -495h-76l-73 199l-56 187l-57 -188l-73 -198h-76l-175 495h74l140 -421l140 421h53z" />
    <glyph glyph-name="Wacute" unicode="&#x1e82;" horiz-adv-x="1080" 
d="M663 895l-93 -117h-60v3l74 116h79v-2zM801 -2h-71l-105 301l-85 265l-84 -264l-105 -302h-72l-248 702h79l204 -606l204 606h44l204 -606l205 606h78z" />
    <glyph glyph-name="wacute" unicode="&#x1e83;" horiz-adv-x="833" 
d="M516 699l-83 -111h-53v3l65 109h71v-1zM443 494l140 -421l139 421h74l-174 -495h-76l-73 199l-56 187l-57 -188l-73 -198h-76l-175 495h74l140 -421l140 421h53z" />
    <glyph glyph-name="Wdieresis" unicode="&#x1e84;" horiz-adv-x="1080" 
d="M385 827q0 21 13 32.5t31 11.5t31 -11.5t13 -32.5t-13 -32.5t-31 -11.5t-31 11.5t-13 32.5zM608 827q0 21 13 32.5t31 11.5t31 -11.5t13 -32.5t-13 -32.5t-31 -11.5t-31 11.5t-13 32.5zM801 -2h-71l-105 301l-85 265l-84 -264l-105 -302h-72l-248 702h79l204 -606
l204 606h44l204 -606l205 606h78z" />
    <glyph glyph-name="wdieresis" unicode="&#x1e85;" horiz-adv-x="833" 
d="M258 653q0 21 13 32.5t31 11.5t31 -11.5t13 -32.5t-13 -32.5t-31 -11.5t-31 11.5t-13 32.5zM481 653q0 21 13 32.5t31 11.5t31 -11.5t13 -32.5t-13 -32.5t-31 -11.5t-31 11.5t-13 32.5zM443 494l140 -421l139 421h74l-174 -495h-76l-73 199l-56 187l-57 -188l-73 -198
h-76l-175 495h74l140 -421l140 421h53z" />
    <glyph glyph-name="Ygrave" unicode="&#x1ef2;" horiz-adv-x="663" 
d="M224 897h76l68 -114v-4h-58l-86 116v2zM331 350l226 350h82v-2l-273 -416v-282h-70v282l-269 416v2h81z" />
    <glyph glyph-name="ygrave" unicode="&#x1ef3;" horiz-adv-x="544" 
d="M187 700h73l67 -112v-3h-57l-83 113v2zM515 494l-313 -730h-73l104 242l-198 488h75l105 -273l55 -142l56 142l115 273h74z" />
    <glyph glyph-name="endash" unicode="&#x2013;" horiz-adv-x="596" 
d="M72 317h452v-61h-452v61z" />
    <glyph glyph-name="emdash" unicode="&#x2014;" horiz-adv-x="701" 
d="M72 316h557v-61h-557v61z" />
    <glyph glyph-name="quoteleft" unicode="&#x2018;" horiz-adv-x="223" 
d="M130 522h-75l63 179h57z" />
    <glyph glyph-name="quoteright" unicode="&#x2019;" horiz-adv-x="222" 
d="M106 701h74l-63 -183h-57z" />
    <glyph glyph-name="quotesinglbase" unicode="&#x201a;" horiz-adv-x="238" 
d="M87 72h74l-63 -183h-57z" />
    <glyph glyph-name="quotedblleft" unicode="&#x201c;" horiz-adv-x="364" 
d="M131 516h-75l65 182h57zM267 516h-74l65 182h57z" />
    <glyph glyph-name="quotedblright" unicode="&#x201d;" horiz-adv-x="356" 
d="M104 701h74l-63 -177h-57zM241 701h74l-63 -177h-57z" />
    <glyph glyph-name="quotedblbase" unicode="&#x201e;" horiz-adv-x="367" 
d="M87 72h66l-57 -183h-55zM221 72h69l-62 -183h-53z" />
    <glyph glyph-name="dagger" unicode="&#x2020;" horiz-adv-x="560" 
d="M315 505h211v-63h-211v-570h-70v570h-211v63h211v195h70v-195z" />
    <glyph glyph-name="daggerdbl" unicode="&#x2021;" horiz-adv-x="608" 
d="M339 506h211v-63h-211v-264h211v-62h-211v-247h-70v247h-211v62h211v264h-211v63h211v194h70v-194z" />
    <glyph glyph-name="bullet" unicode="&#x2022;" horiz-adv-x="390" 
d="M196 179q-46 0 -76 28.5t-30 74.5q0 47 30 75.5t76 28.5t75 -28.5t29 -75.5t-29 -75t-75 -28z" />
    <glyph glyph-name="ellipsis" unicode="&#x2026;" horiz-adv-x="603" 
d="M68 38q0 23 14 35t34 12q19 0 33 -12t14 -35q0 -22 -14 -34.5t-33 -12.5t-33.5 12.5t-14.5 34.5zM255 38q0 23 14 35t34 12q19 0 33 -12t14 -35q0 -22 -14 -34.5t-33 -12.5t-33.5 12.5t-14.5 34.5zM440 38q0 23 14 35t34 12q19 0 33 -12t14 -35q0 -22 -14 -34.5
t-33 -12.5t-33.5 12.5t-14.5 34.5z" />
    <glyph glyph-name="perthousand" unicode="&#x2030;" horiz-adv-x="1121" 
d="M638 700l-452 -700h-73l453 700h72zM195 699q73 0 114.5 -46t41.5 -106q0 -62 -41.5 -106t-114.5 -44q-74 0 -114.5 44t-40.5 106q0 61 41 106.5t114 45.5zM195 636q-43 0 -67 -26t-24 -61q0 -37 24 -63t68 -26q42 0 65.5 26t23.5 61q0 36 -24 62.5t-66 26.5zM564 295
q73 0 114.5 -45t41.5 -106q0 -62 -41.5 -106t-114.5 -44q-74 0 -114.5 44t-40.5 106q0 61 40.5 106t114.5 45zM931 295q73 0 114.5 -45t41.5 -106q0 -62 -41.5 -106t-114.5 -44q-74 0 -114.5 44t-40.5 106q0 61 40.5 106t114.5 45zM564 236q-43 0 -67 -27t-24 -63
q0 -37 24.5 -64.5t67.5 -27.5t67 26.5t24 63.5t-24.5 64.5t-67.5 27.5zM931 236q-43 0 -67 -27t-24 -63q0 -37 24.5 -64.5t67.5 -27.5t67 26.5t24 63.5t-24.5 64.5t-67.5 27.5z" />
    <glyph glyph-name="guilsinglleft" unicode="&#x2039;" horiz-adv-x="307" 
d="M186 518h71v-4l-136 -216l127 -202l9 -18h-71l-139 220z" />
    <glyph glyph-name="guilsinglright" unicode="&#x203a;" horiz-adv-x="308" 
d="M261 296l-139 -221h-71l136 221l-136 216v3h71z" />
    <glyph glyph-name="fraction" unicode="&#x2044;" horiz-adv-x="149" 
d="M293 704l-376 -707h-63l375 707h64z" />
    <glyph glyph-name="uni2070" unicode="&#x2070;" horiz-adv-x="385" 
d="M43 658q0 75 44 117t105 42t105.5 -42t44.5 -117v-53q0 -75 -44.5 -117t-104.5 -42q-61 0 -105.5 42t-44.5 117v53zM100 605q0 -49 27.5 -77t64.5 -28t64 27.5t27 77.5v53q0 50 -27.5 78.5t-64.5 28.5t-64 -28.5t-27 -78.5v-53z" />
    <glyph glyph-name="uni2074" unicode="&#x2074;" horiz-adv-x="360" 
d="M277 812v-231h48v-50h-48v-77h-56v77h-192l-3 45l187 236h64zM221 742l-130 -161h130v161z" />
    <glyph glyph-name="uni2075" unicode="&#x2075;" horiz-adv-x="360" 
d="M303 761h-199v-81h75q69 0 107 -31t38 -86q0 -54 -37.5 -85t-105.5 -31q-60 0 -100.5 24.5t-40.5 81.5h55q0 -54 85 -54q45 0 65.5 18t20.5 46q0 27 -20 46.5t-67 19.5h-130v183h254v-51z" />
    <glyph glyph-name="uni2076" unicode="&#x2076;" horiz-adv-x="375" 
d="M194 671q60 0 101.5 -26.5t41.5 -87.5q0 -57 -43 -84.5t-101 -27.5q-59 0 -101.5 28.5t-42.5 84.5v141q0 58 40.5 87t98.5 29q60 0 98.5 -24t42.5 -72h-56q-5 44 -84 44q-83 0 -83 -64v-60q29 32 88 32zM193 494q35 0 60.5 15t25.5 48t-25.5 49t-59.5 16
q-35 0 -61.5 -16.5t-26.5 -47.5q0 -34 26 -49t61 -15z" />
    <glyph glyph-name="uni2077" unicode="&#x2077;" horiz-adv-x="315" 
d="M56 453l165 307h-191v52h264l4 -26l-176 -333h-66z" />
    <glyph glyph-name="uni2078" unicode="&#x2078;" horiz-adv-x="382" 
d="M41 547q0 32 20.5 55t52.5 32q-66 22 -66 81q0 51 42.5 76t100.5 25q57 0 100.5 -24.5t43.5 -76.5q0 -56 -66 -81q32 -8 52 -32t20 -55q0 -57 -44 -82t-106 -25q-61 0 -105.5 25t-44.5 82zM107 714q0 -27 24.5 -41t59.5 -14t59.5 14t24.5 41q0 29 -26 41.5t-58 12.5
t-58 -12.5t-26 -41.5zM101 547q0 -28 28.5 -42.5t61.5 -14.5t61.5 14.5t28.5 42.5q0 31 -27 47t-63 16t-63 -16t-27 -47z" />
    <glyph glyph-name="uni2079" unicode="&#x2079;" horiz-adv-x="375" 
d="M182 589q-61 0 -102 26t-41 87q0 58 42 85.5t101 27.5t101.5 -28.5t42.5 -85.5v-141q0 -57 -41 -86t-98 -29q-60 0 -99.5 23.5t-41.5 71.5h56q5 -44 85 -44q83 0 83 64v61q-32 -32 -88 -32zM182 766q-35 0 -60.5 -16t-25.5 -48q0 -33 25.5 -49t60.5 -16q34 0 60.5 16.5
t26.5 47.5q0 33 -26 49t-61 16z" />
    <glyph glyph-name="uni2080" unicode="&#x2080;" horiz-adv-x="385" 
d="M43 119q0 75 44 117t105 42t105.5 -42t44.5 -117v-52q0 -75 -44.5 -116.5t-104.5 -41.5q-61 0 -105.5 41.5t-44.5 116.5v52zM100 66q0 -49 27.5 -76.5t64.5 -27.5t64 27t27 77v53q0 51 -27 79t-64 28t-64.5 -28t-27.5 -79v-53z" />
    <glyph glyph-name="uni2081" unicode="&#x2081;" horiz-adv-x="250" 
d="M38 -36h62v243l-54 -14v52l112 26v-307h65v-50h-185v50z" />
    <glyph glyph-name="uni2082" unicode="&#x2082;" horiz-adv-x="361" 
d="M45 170q0 58 39 83t98 25t98.5 -25.5t39.5 -84.5q0 -33 -12 -55.5t-33.5 -34t-42 -16.5t-48.5 -7q-2 0 -16 -1.5t-16.5 -2t-13.5 -2.5t-14 -4.5t-10.5 -7t-9.5 -9.5t-4.5 -13t-2.5 -18v-27h219v-56h-273v84q0 101 136 108q84 2 84 62q0 62 -82 62q-80 0 -80 -60h-56z" />
    <glyph glyph-name="uni2083" unicode="&#x2083;" horiz-adv-x="362" 
d="M126 75v49h51q33 0 56.5 12t23.5 39q0 20 -20.5 36.5t-59.5 16.5q-78 0 -82 -58h-51q0 54 39 80.5t95 26.5t96 -26.5t40 -75.5q0 -29 -15 -49t-41 -27q30 -8 46.5 -30.5t16.5 -48.5q0 -60 -41.5 -86t-102.5 -26q-58 0 -98.5 26t-40.5 83h59q3 -56 82 -56q84 0 84 59
q0 20 -20.5 37.5t-61.5 17.5h-55z" />
    <glyph glyph-name="uni2084" unicode="&#x2084;" horiz-adv-x="356" 
d="M277 272v-231h42v-53h-42v-74h-56v74h-192l-3 47l173 237h78zM221 217l-130 -176h130v176z" />
    <glyph glyph-name="uni2085" unicode="&#x2085;" horiz-adv-x="360" 
d="M304 221h-199v-81h75q69 0 107 -31t38 -86q0 -54 -37.5 -85t-105.5 -31q-60 0 -100.5 24.5t-40.5 81.5h55q0 -54 85 -54q45 0 65.5 18t20.5 46q0 27 -20 46.5t-67 19.5h-130v183h254v-51z" />
    <glyph glyph-name="uni2086" unicode="&#x2086;" horiz-adv-x="374" 
d="M193 134q60 0 101.5 -26.5t41.5 -87.5q0 -57 -43 -85t-101 -28q-59 0 -101.5 28.5t-42.5 85.5v141q0 57 40.5 86t98.5 29q61 0 99 -23.5t42 -71.5h-56q-5 44 -84 44q-83 0 -83 -64v-60q29 32 88 32zM192 -43q35 0 60.5 15t25.5 48t-25.5 49t-59.5 16q-35 0 -61 -16.5
t-27 -47.5q0 -34 26 -49t61 -15z" />
    <glyph glyph-name="uni2087" unicode="&#x2087;" horiz-adv-x="315" 
d="M56 -86l165 306h-191v52h264l4 -25l-176 -333h-66z" />
    <glyph glyph-name="uni2088" unicode="&#x2088;" horiz-adv-x="382" 
d="M41 14q0 32 20 56t53 32q-66 22 -66 80q0 51 42.5 76t100.5 25q57 0 100 -24.5t43 -76.5q0 -59 -65 -80q31 -8 51.5 -32t20.5 -56q0 -57 -44 -81.5t-106 -24.5q-39 0 -70.5 8.5t-55.5 33.5t-24 64zM107 182q0 -28 24 -41.5t60 -13.5t60 13.5t24 41.5t-26.5 41t-57.5 13
q-33 0 -58.5 -13t-25.5 -41zM101 15q0 -28 28.5 -42.5t61.5 -14.5t61.5 14.5t28.5 42.5q0 31 -27 46.5t-63 15.5t-63 -15.5t-27 -46.5z" />
    <glyph glyph-name="uni2089" unicode="&#x2089;" horiz-adv-x="373" 
d="M181 51q-61 0 -102 26t-41 87q0 58 42 85.5t101 27.5t101.5 -28.5t42.5 -85.5v-141q0 -57 -41 -86t-98 -29q-60 0 -99.5 23.5t-41.5 71.5h56q5 -44 85 -44q83 0 83 64v61q-32 -32 -88 -32zM181 228q-35 0 -60.5 -16t-25.5 -48q0 -33 25.5 -49t60.5 -16q34 0 60.5 16.5
t26.5 47.5q0 33 -26 49t-61 16z" />
    <glyph glyph-name="Euro" unicode="&#x20ac;" horiz-adv-x="610" 
d="M571 12q-59 -22 -124 -22q-147 0 -231 71t-109 199h-65v58h57q-1 7 -1 28q0 20 1 31h-57v57h66q21 124 107 199.5t232 75.5q53 0 102 -15l-19 -58q-37 11 -83 11q-118 0 -182 -52t-88 -161h264l-15 -57h-262q-1 -9 -1 -30q0 -22 1 -29h248l-13 -58h-223q41 -204 271 -204
q53 0 104 19z" />
    <glyph glyph-name="uni2113" unicode="&#x2113;" horiz-adv-x="402" 
d="M204 147q0 -34 23.5 -52.5t62.5 -18.5q25 0 44 5v-69q-51 -16 -91 -16q-65 0 -102.5 40.5t-37.5 126.5l-49 -24l-14 46q31 12 62 30v333q0 91 34 129t122 38q114 0 114 -138q0 -19 -4 -55q-17 -148 -164 -280v-95zM201 548q0 -26 -0.5 -112.5t-0.5 -124.5
q106 124 120 220q3 45 3 51q0 81 -63 81q-28 0 -43.5 -34.5t-15.5 -80.5z" />
    <glyph glyph-name="uni2117" unicode="&#x2117;" horiz-adv-x="832" 
d="M416 714q168 0 264.5 -105t96.5 -260t-96.5 -260t-264.5 -105q-167 0 -264 105t-97 260t97 260t264 105zM120 349q0 -134 79 -221t217 -87q137 0 217 87.5t80 220.5t-80 220.5t-217 87.5q-138 0 -217 -87t-79 -221zM351 281v-126h-60v379h172q60 0 94.5 -38.5t34.5 -90.5
q0 -51 -34.5 -87.5t-96.5 -36.5h-110zM351 478v-145h109q35 0 54 21.5t19 50.5q0 45 -37 64q-16 9 -33 9h-112z" />
    <glyph glyph-name="trademark" unicode="&#x2122;" horiz-adv-x="791" 
d="M173 657h-111v43h273v-43h-113v-237h-49v237zM387 700h46l115 -147l116 147h44v-280h-49v201l-108 -131h-9l-106 133v-203h-49v280z" />
    <glyph glyph-name="uni2126" unicode="&#x2126;" horiz-adv-x="821" 
d="M410 644q-135 0 -209 -85t-74 -207q0 -102 54.5 -184t154.5 -105v-63h-250v63l133 -2q-80 44 -122 121t-42 171q0 151 95.5 255t259.5 104q165 0 260.5 -104t95.5 -255q0 -94 -42 -171t-122 -121l133 2v-63h-250v63q99 23 154 105.5t55 183.5q0 122 -74.5 207t-209.5 85z
" />
    <glyph glyph-name="estimated" unicode="&#x212e;" horiz-adv-x="646" 
d="M331 -7q-116 0 -192 78t-76 218q0 142 75.5 219.5t191.5 77.5q55 0 100.5 -14.5t83 -46t59 -87t21.5 -130.5q0 -13 -2 -45h-402v-170q59 -53 141 -53q125 0 190 93l37 -29q-43 -61 -98 -86t-129 -25zM330 539q-86 0 -140 -46v-183h283v186q-55 43 -143 43z" />
    <glyph glyph-name="uni2153" unicode="&#x2153;" horiz-adv-x="749" 
d="M51 401h63v243l-55 -13v51l113 27v-308h65v-50h-186v50zM564 704l-376 -707h-65l375 707h66zM515 163v49h52q33 0 56.5 12t23.5 39q0 20 -20.5 36.5t-59.5 16.5q-78 0 -82 -58h-52q0 54 39 80.5t95 26.5t96 -26.5t40 -75.5q0 -29 -15 -49t-40 -27q29 -8 46 -31t17 -48
q0 -60 -42 -86t-102 -26q-59 0 -99 26t-40 83h59q3 -55 81 -55q84 0 84 58q0 20 -20 37.5t-61 17.5h-56z" />
    <glyph glyph-name="uni2154" unicode="&#x2154;" horiz-adv-x="828" 
d="M53 601q0 106 135 106q59 0 97 -25t38 -83q0 -32 -11.5 -54.5t-33 -33.5t-41.5 -16t-47 -7q-3 0 -14.5 -1.5t-15 -2t-12.5 -2t-12.5 -3t-10 -4.5t-9.5 -7t-6.5 -9t-4.5 -12t-1 -16v-27h215v-55h-268v83q0 99 134 106q40 3 61 15.5t21 45.5q0 61 -80 61q-79 0 -79 -59h-55
zM643 704l-377 -707h-65l375 707h67zM593 163v49h52q33 0 56.5 12t23.5 39q0 21 -20.5 37t-59.5 16q-78 0 -82 -58h-52q0 54 39 80.5t95 26.5t96.5 -26.5t40.5 -75.5q0 -29 -15 -49t-41 -27q29 -8 46 -31t17 -48q0 -60 -42 -86t-102 -26q-59 0 -99 26t-40 83h59
q3 -55 81 -55q85 0 85 58q0 20 -20.5 37.5t-61.5 17.5h-56z" />
    <glyph glyph-name="oneeighth" unicode="&#x215b;" horiz-adv-x="775" 
d="M51 401h63v243l-55 -13v51l114 27v-308h64v-50h-186v50zM564 704l-376 -707h-65l375 707h66zM435 98q0 32 20.5 56t53.5 32q-67 22 -67 80q0 51 43 76t100 25q59 0 101.5 -24.5t42.5 -76.5q0 -59 -66 -80q32 -8 52.5 -32.5t20.5 -55.5q0 -39 -24.5 -64t-56 -33.5
t-70.5 -8.5q-38 0 -69.5 8.5t-56 33.5t-24.5 64zM502 266q0 -28 24 -41.5t60 -13.5t60 13.5t24 41.5t-26.5 41t-58.5 13t-57.5 -13t-25.5 -41zM496 99q0 -28 28 -42.5t62 -14.5q33 0 61.5 14.5t28.5 42.5q0 31 -27 46.5t-63 15.5t-63 -15.5t-27 -46.5z" />
    <glyph glyph-name="threeeighths" unicode="&#x215c;" horiz-adv-x="834" 
d="M132 504v49h51q33 0 56.5 12.5t23.5 39.5q0 20 -20 36.5t-59 16.5q-31 0 -55.5 -13t-26.5 -45h-52q0 54 39 80t95 26t96 -26.5t40 -75.5q0 -58 -55 -76q29 -8 46 -30.5t17 -47.5q0 -60 -42 -86t-103 -26q-58 0 -98.5 26t-40.5 83h59q3 -56 82 -56q84 0 84 59
q0 20 -20.5 37t-61.5 17h-55zM630 704l-376 -707h-65l375 707h66zM494 98q0 32 20.5 56t53.5 32q-67 22 -67 80q0 51 42.5 76t100.5 25q59 0 101.5 -24.5t42.5 -76.5q0 -59 -66 -80q32 -8 52.5 -32.5t20.5 -55.5q0 -39 -24.5 -64t-56 -33.5t-70.5 -8.5t-70.5 8.5t-55.5 33.5
t-24 64zM560 266q1 -28 24.5 -41.5t59.5 -13.5t60 13.5t25 41.5q0 28 -26.5 41t-58.5 13t-58 -13t-26 -41zM555 99q0 -28 28 -42.5t61 -14.5q32 0 61.5 14.5t29.5 42.5q0 31 -27 46.5t-63 15.5t-63 -15.5t-27 -46.5z" />
    <glyph glyph-name="fiveeighths" unicode="&#x215d;" horiz-adv-x="837" 
d="M633 704l-376 -707h-65l375 707h66zM309 650h-199v-80h75q69 0 107 -31t38 -86q0 -54 -37.5 -85t-106.5 -31q-59 0 -99.5 24.5t-40.5 81.5h55q0 -54 84 -54q87 0 87 64q0 27 -20 46.5t-67 19.5h-131v183h255v-52zM497 98q0 32 20.5 56t53.5 32q-67 22 -67 80
q0 51 42.5 76t100.5 25q59 0 101.5 -24.5t42.5 -76.5q0 -59 -66 -80q32 -8 52.5 -32.5t20.5 -55.5q0 -39 -24.5 -64t-56 -33.5t-70.5 -8.5t-70.5 8.5t-55.5 33.5t-24 64zM563 266q1 -28 24.5 -41.5t59.5 -13.5t60 13.5t25 41.5q0 28 -26.5 41t-58.5 13q-31 0 -57.5 -13
t-26.5 -41zM558 99q0 -28 28 -42.5t61 -14.5q32 0 61.5 14.5t29.5 42.5q0 31 -27 46.5t-63 15.5t-63 -15.5t-27 -46.5z" />
    <glyph glyph-name="seveneighths" unicode="&#x215e;" horiz-adv-x="755" 
d="M548 704l-376 -707h-65l375 707h66zM66 343l165 306h-190v52h263l4 -25l-176 -333h-66zM415 98q0 32 20.5 56t53.5 32q-67 22 -67 80q0 51 42.5 76t100.5 25q59 0 101.5 -24.5t42.5 -76.5q0 -59 -66 -80q32 -8 52.5 -32.5t20.5 -55.5q0 -39 -24.5 -64t-56 -33.5
t-70.5 -8.5t-70.5 8.5t-55.5 33.5t-24 64zM481 266q1 -28 24.5 -41.5t59.5 -13.5t60 13.5t25 41.5q0 28 -26.5 41t-58.5 13q-31 0 -57.5 -13t-26.5 -41zM476 99q0 -28 28 -42.5t61 -14.5q32 0 61.5 14.5t29.5 42.5q0 31 -27 46.5t-63 15.5t-63 -15.5t-27 -46.5z" />
    <glyph glyph-name="arrowleft" unicode="&#x2190;" horiz-adv-x="632" 
d="M39 351l217 217l38 -37l-147 -149h423v-64h-422l145 -149l-37 -35z" />
    <glyph glyph-name="arrowup" unicode="&#x2191;" horiz-adv-x="499" 
d="M249 619l217 -218l-37 -37l-149 147v-423h-64v422l-149 -145l-35 37z" />
    <glyph glyph-name="arrowright" unicode="&#x2192;" horiz-adv-x="632" 
d="M593 351l-217 -217l-38 36l147 150h-423v63h422l-145 150l37 35z" />
    <glyph glyph-name="arrowdown" unicode="&#x2193;" horiz-adv-x="500" 
d="M250 76l-217 217l36 38l150 -147v423h63v-423l150 146l35 -37z" />
    <glyph glyph-name="uni2196" unicode="&#x2196;" horiz-adv-x="503" 
d="M66 538h308l1 -53l-210 -1l299 -299l-45 -46l-298 299l-3 -208l-52 1v307z" />
    <glyph glyph-name="uni2197" unicode="&#x2197;" horiz-adv-x="503" 
d="M130 538h308q0 -52 -0.5 -154t-0.5 -153l-52 -1l-2 208l-298 -299l-46 46l299 299l-209 3z" />
    <glyph glyph-name="uni2198" unicode="&#x2198;" horiz-adv-x="548" 
d="M137 212l209 3l-299 299l45 46l299 -299q0 34 0.5 103t0.5 105l53 -1v-307h-307z" />
    <glyph glyph-name="uni2199" unicode="&#x2199;" horiz-adv-x="548" 
d="M410 161h-307v307l53 1l2 -208l298 299l45 -46l-299 -299l209 -3z" />
    <glyph glyph-name="partialdiff" unicode="&#x2202;" horiz-adv-x="605" 
d="M302 485q94 0 162 -68q-27 80 -106.5 141.5t-167.5 83.5l16 57q169 -49 259 -163.5t90 -290.5q0 -114 -69 -185t-185 -71q-120 0 -187 74t-67 175q0 100 67 173.5t188 73.5zM301 51q88 0 137 56t49 132t-49 131.5t-137 55.5q-87 0 -136 -55.5t-49 -131.5t49 -132t136 -56
z" />
    <glyph glyph-name="uni2206" unicode="&#x2206;" horiz-adv-x="762" 
d="M735 0h-708l314 700h80zM129 63h503l-251 568z" />
    <glyph glyph-name="product" unicode="&#x220f;" horiz-adv-x="685" 
d="M517 -189v822h-349v-822h-74v889h497v-889h-74z" />
    <glyph glyph-name="summation" unicode="&#x2211;" horiz-adv-x="580" 
d="M132 66h394v-66h-490v36l231 331l-214 303v30h467v-63h-364l189 -271z" />
    <glyph glyph-name="minus" unicode="&#x2212;" horiz-adv-x="529" 
d="M75 360h379v-61h-379v61z" />
    <glyph glyph-name="uni2215" unicode="&#x2215;" horiz-adv-x="433" 
d="M434 704l-376 -707h-63l375 707h64z" />
    <glyph glyph-name="uni2219" unicode="&#x2219;" horiz-adv-x="240" 
d="M71 311q0 23 14.5 35.5t34.5 12.5t34.5 -12.5t14.5 -35.5t-14.5 -35.5t-34.5 -12.5t-34.5 12.5t-14.5 35.5z" />
    <glyph glyph-name="radical" unicode="&#x221a;" horiz-adv-x="615" 
d="M364 0h-63l-167 353l-92 -40l-21 50l161 71l153 -350l215 628l51 -14z" />
    <glyph glyph-name="infinity" unicode="&#x221e;" horiz-adv-x="793" 
d="M222 168q-77 0 -120 47t-43 110q0 64 44.5 111t123.5 47q78 0 171 -113q91 113 169 113t123.5 -47.5t45.5 -110.5t-43.5 -110t-120.5 -47q-84 0 -174 111q-43 -52 -84 -81.5t-92 -29.5zM224 226q25 0 50 14t36.5 25.5t37.5 38.5l19 21l-16 20q-23 27 -37 40.5t-39 27
t-51 13.5q-50 0 -79 -30t-29 -70t28 -69t80 -31zM571 226q53 2 80.5 31.5t27.5 69.5t-29 69.5t-79 29.5q-26 0 -51 -14.5t-38 -28t-38 -41.5l-15 -17q8 -6 16 -17q2 -2 14.5 -15.5t16.5 -17.5t15 -14.5t18 -14.5t18 -10t21.5 -8t22.5 -2z" />
    <glyph glyph-name="integral" unicode="&#x222b;" horiz-adv-x="456" 
d="M186 530q0 83 39.5 129t118.5 46q59 0 106 -35l-29 -50q-42 25 -76 25q-92 0 -92 -115v-531q0 -176 -148 -176q-52 0 -99 35l28 48q34 -24 70 -24q43 0 62.5 28.5t19.5 88.5v531z" />
    <glyph glyph-name="approxequal" unicode="&#x2248;" horiz-adv-x="566" 
d="M76 399q39 65 106 65q20 0 42 -6l122 -42q20 -6 36 -6q43 0 62 39l47 -25q-33 -72 -105 -72q-24 0 -48 7l-121 44q-17 5 -28 5q-40 0 -68 -39zM76 202q40 66 106 66q21 0 42 -7l122 -43q18 -6 35 -6q44 0 63 40l47 -26q-36 -75 -101 -75q-22 0 -52 11l-121 43
q-17 8 -35 8q-31 0 -61 -41z" />
    <glyph glyph-name="notequal" unicode="&#x2260;" horiz-adv-x="553" 
d="M72 245h138l87 140h-225v56h264l44 70l35 -20l-32 -50h96v-56h-135l-86 -140h221v-56h-260l-45 -74l-35 21l32 53h-99v56z" />
    <glyph glyph-name="lessequal" unicode="&#x2264;" horiz-adv-x="452" 
d="M81 432l242 168l35 -45l-207 -139l210 -149l-38 -44l-242 176v33zM75 150h302v-55h-302v55z" />
    <glyph glyph-name="greaterequal" unicode="&#x2265;" horiz-adv-x="451" 
d="M371 399l-242 -176l-38 44l209 149l-206 139l34 45l243 -168v-33zM376 95h-301v56h301v-56z" />
    <glyph glyph-name="lozenge" unicode="&#x25ca;" horiz-adv-x="564" 
d="M309 7h-55l-216 345l216 344h55l219 -344zM281 73l173 278l-173 278l-164 -278z" />
    <glyph glyph-name="fi" unicode="&#xfb01;" horiz-adv-x="573" 
d="M352 630q-27 15 -61 15q-92 0 -92 -115v-41h152v-58h-152v-431h-67v431h-98v58h98v41q0 83 39.5 129t118.5 46q47 0 84 -22zM416 649q0 22 14 34.5t33 12.5t33.5 -12.5t14.5 -34.5q0 -23 -14 -35t-34 -12q-19 0 -33 12t-14 35zM496 496v-496h-67v496h67z" />
    <glyph glyph-name="fl" unicode="&#xfb02;" horiz-adv-x="573" 
d="M345 634q-25 13 -57 13q-89 0 -89 -117v-41h142v-58h-142v-431h-67v431h-98v58h98v41q0 83 39.5 129t118.5 46q38 0 67 -13zM488 700v-700h-67v700h67z" />
    <glyph glyph-name="CR" horiz-adv-x="322" 
 />
    <glyph glyph-name="_0004" horiz-adv-x="0" 
 />
    <glyph glyph-name="g.alt" horiz-adv-x="636" 
d="M137 -73q8 -62 55 -90.5t119 -28.5q184 0 184 176v109q-31 -51 -84 -77t-112 -26q-108 0 -180 70t-72 187q0 114 72.5 184t180.5 70q60 0 114.5 -27.5t81.5 -77.5v98h62v-510q0 -123 -69.5 -181t-177.5 -58q-103 0 -167 47t-71 135h64zM303 439q-80 0 -134 -53.5
t-54 -138.5q0 -88 53.5 -140.5t134.5 -52.5q90 0 140 57t50 136q0 78 -50 135t-140 57z" />
    <glyph glyph-name="gcircumflex.alt" horiz-adv-x="636" 
d="M345 715l143 -133v-7h-69l-98 87l-97 -87h-69v7l143 133h47zM137 -73q8 -62 55 -90.5t119 -28.5q184 0 184 176v109q-31 -51 -84 -77t-112 -26q-108 0 -180 70t-72 187q0 114 72.5 184t180.5 70q60 0 114.5 -27.5t81.5 -77.5v98h62v-510q0 -123 -69.5 -181t-177.5 -58
q-103 0 -167 47t-71 135h64zM303 439q-80 0 -134 -53.5t-54 -138.5q0 -88 53.5 -140.5t134.5 -52.5q90 0 140 57t50 136q0 78 -50 135t-140 57z" />
    <glyph glyph-name="gbreve.alt" horiz-adv-x="636" 
d="M456 706q2 -61 -35 -94.5t-98 -33.5t-97.5 34t-34.5 94h55q0 -32 18 -54t60 -22q39 0 57.5 22t18.5 54h56zM137 -73q8 -62 55 -90.5t119 -28.5q184 0 184 176v109q-31 -51 -84 -77t-112 -26q-108 0 -180 70t-72 187q0 114 72.5 184t180.5 70q60 0 114.5 -27.5t81.5 -77.5
v98h62v-510q0 -123 -69.5 -181t-177.5 -58q-103 0 -167 47t-71 135h64zM303 439q-80 0 -134 -53.5t-54 -138.5q0 -88 53.5 -140.5t134.5 -52.5q90 0 140 57t50 136q0 78 -50 135t-140 57z" />
    <glyph glyph-name="gdotaccent.alt" horiz-adv-x="636" 
d="M272 663q0 23 14 35t34 12q19 0 33 -12t14 -35q0 -22 -14 -34t-33 -12q-20 0 -34 12t-14 34zM137 -73q8 -62 55 -90.5t119 -28.5q184 0 184 176v109q-31 -51 -84 -77t-112 -26q-108 0 -180 70t-72 187q0 114 72.5 184t180.5 70q60 0 114.5 -27.5t81.5 -77.5v98h62v-510
q0 -123 -69.5 -181t-177.5 -58q-103 0 -167 47t-71 135h64zM303 439q-80 0 -134 -53.5t-54 -138.5q0 -88 53.5 -140.5t134.5 -52.5q90 0 140 57t50 136q0 78 -50 135t-140 57z" />
    <glyph glyph-name="gcommaaccent.alt" horiz-adv-x="636" 
d="M267 624q0 10 5 24.5t16.5 40.5t18.5 47h49l-24 -73q29 -9 29 -40q0 -22 -13.5 -34t-32.5 -12t-33.5 12.5t-14.5 34.5zM137 -73q8 -62 55 -90.5t119 -28.5q184 0 184 176v109q-31 -51 -84 -77t-112 -26q-108 0 -180 70t-72 187q0 114 72.5 184t180.5 70q60 0 114.5 -27.5
t81.5 -77.5v98h62v-510q0 -123 -69.5 -181t-177.5 -58q-103 0 -167 47t-71 135h64zM303 439q-80 0 -134 -53.5t-54 -138.5q0 -88 53.5 -140.5t134.5 -52.5q90 0 140 57t50 136q0 78 -50 135t-140 57z" />
    <glyph glyph-name="uni0326.alt" horiz-adv-x="0" 
d="M-286 664q0 11 5.5 27t18 47.5t20.5 52.5h49l-28 -87q30 -9 30 -41q0 -2 -2 -8q-3 -18 -16 -27.5t-30 -9.5q-19 0 -33 12t-14 34z" />
    <glyph glyph-name="zero.tf" 
d="M68 426q0 135 82 210t194 75q53 0 102 -18t88.5 -52.5t63 -90t23.5 -124.5v-152q0 -69 -23.5 -124.5t-63 -90t-88.5 -52.5t-102 -18q-112 0 -194 75t-82 210v152zM136 273q0 -103 62 -161t146 -58t146 58t62 161v154q0 103 -62 160.5t-147 57.5t-146 -57.5t-61 -160.5
v-154z" />
    <glyph glyph-name="one.tf" 
d="M149 57h176v568l-160 -38v58l225 55v-643h175v-57h-416v57z" />
    <glyph glyph-name="two.tf" 
d="M76 510q1 55 25.5 95.5t65.5 62t86.5 31.5t96.5 10t97 -11t86 -34t63.5 -64.5t23.5 -97.5q0 -55 -23.5 -95.5t-63.5 -63t-86 -33t-98 -10.5q-38 0 -72.5 -6t-67 -20.5t-52 -42.5t-19.5 -66v-100h478v-65h-543v164q0 45 16 80.5t42.5 57t63 35.5t74 19.5t79.5 5.5
q47 0 90.5 11t80 44t36.5 84q0 52 -33 87t-77 48t-95 13q-37 0 -70 -6.5t-65 -21t-51 -43t-19 -68.5h-69z" />
    <glyph glyph-name="three.tf" 
d="M233 329v59h110q87 0 142 38.5t55 90.5q0 53 -51 93.5t-143 40.5q-47 0 -88 -9t-75.5 -39.5t-34.5 -79.5h-68q0 52 24 90.5t64.5 58t84 28.5t92.5 9q117 0 187.5 -53t70.5 -139q0 -57 -36.5 -101t-94.5 -56q62 -12 103.5 -57t41.5 -108q0 -94 -73.5 -149t-197.5 -55
q-51 0 -96.5 9t-88 29.5t-67.5 60.5t-25 95h67q0 -130 211 -130q93 0 148 39t55 99q0 54 -52.5 95t-149.5 41h-115z" />
    <glyph glyph-name="four.tf" 
d="M538 700v-483h82v-59h-82v-158h-65v158h-417l-12 54l416 488h78zM473 217v402l-347 -402h347z" />
    <glyph glyph-name="five.tf" 
d="M586 636h-426v-205h207q129 0 193.5 -59t64.5 -156t-72.5 -159.5t-199.5 -62.5q-53 0 -99 10t-87 32t-65 63t-24 98h68q0 -140 206 -140q95 0 149.5 44.5t54.5 114.5t-46.5 110.5t-142.5 40.5h-273v333h492v-64z" />
    <glyph glyph-name="six.tf" 
d="M146 339q31 47 90.5 69.5t121.5 22.5q53 0 100 -12t88 -36.5t65 -68.5t24 -103q0 -75 -42.5 -126.5t-103 -72.5t-132.5 -21q-53 0 -101.5 13t-89 38.5t-65 69.5t-24.5 101v295q0 97 80 150t191 53q116 0 191.5 -44t79.5 -133h-72q-4 57 -59 85.5t-139 28.5
q-48 0 -92.5 -13.5t-77.5 -46.5t-33 -80v-169zM357 56q52 0 97 14t78 50.5t33 90.5q0 81 -61.5 119.5t-145.5 38.5q-81 0 -146 -41.5t-65 -115.5q0 -54 33.5 -90.5t78.5 -51t98 -14.5z" />
    <glyph glyph-name="seven.tf" 
d="M171 0l357 632h-433v68h511l7 -51l-363 -649h-79z" />
    <glyph glyph-name="eight.tf" 
d="M52 191q0 61 42 107t104 63q-132 47 -132 158q0 69 42.5 114.5t102.5 63t133 17.5q53 0 100.5 -10t89 -32t66 -61t24.5 -92q0 -57 -37.5 -97.5t-99.5 -60.5q63 -16 106 -63t43 -107q0 -56 -24 -97t-65.5 -64.5t-92 -34t-110.5 -10.5t-110 11t-92 34t-66 64t-24 97z
M135 520q0 -46 36.5 -76.5t81 -41.5t92.5 -11t92.5 11t81 41.5t36.5 76.5q0 70 -61 102.5t-150 32.5t-149 -32.5t-60 -102.5zM345 332q-34 0 -70 -7.5t-71.5 -22.5t-58.5 -44.5t-23 -67.5q0 -70 66.5 -107t156.5 -37q91 0 156.5 36.5t65.5 107.5q0 49 -39.5 83t-87.5 46.5
t-95 12.5z" />
    <glyph glyph-name="nine.tf" 
d="M546 363q-31 -47 -91 -69.5t-123 -22.5q-53 0 -100 12t-88 36.5t-65 68.5t-24 103q0 75 42.5 126.5t103 72.5t132.5 21q53 0 101.5 -13t89 -38.5t65 -69.5t24.5 -101v-295q0 -97 -81.5 -150.5t-192.5 -53.5q-116 0 -193 44.5t-81 133.5h72q4 -56 60.5 -85.5t140.5 -29.5
q48 0 93.5 13.5t80 47t34.5 80.5v169zM333 646q-52 0 -97 -14t-78 -50.5t-33 -90.5q0 -81 61.5 -119.5t145.5 -38.5q81 0 146 41.5t65 115.5q0 54 -33.5 90.5t-78.5 51t-98 14.5z" />
    <glyph glyph-name="Euro.tf" 
d="M611 11q-59 -21 -123 -21q-149 0 -233.5 71t-109.5 199h-65v59h57q-1 7 -1 27q0 19 1 30h-57v59h66q21 123 108.5 198.5t233.5 75.5q52 0 101 -15l-19 -62q-37 11 -82 11q-224 0 -268 -208h262l-16 -59h-259q-1 -9 -1 -29q0 -21 1 -28h245l-13 -59h-220q39 -202 269 -202
q52 0 103 19z" />
    <glyph glyph-name="cent.tf" 
d="M563 62q-65 -63 -150 -72v-71h-64v72q-99 12 -161.5 78.5t-62.5 172.5q0 102 62.5 171t161.5 81v63h64v-63q86 -11 150 -72l-43 -43q-61 56 -138 56q-81 0 -135.5 -52t-54.5 -141q0 -90 54 -140.5t136 -50.5q78 0 137 59z" />
    <glyph glyph-name="sterling.tf" 
d="M202 500q0 -40 24 -143h246v-60h-234q5 -33 5 -60q0 -101 -79 -170h446v-67h-531v65q96 86 96 181q0 23 -5 51h-91v60h77q-24 94 -24 143q0 100 67.5 153.5t175.5 53.5q101 0 164 -44.5t65 -143.5h-64q-4 125 -165 125q-81 0 -127 -38t-46 -106z" />
    <glyph glyph-name="florin.tf" 
d="M297 430h-144v59h144v48q0 83 39.5 129t118.5 46q58 0 105 -35l-29 -50q-42 25 -76 25q-92 0 -92 -115v-48h175v-59h-175v-431q0 -176 -148 -176q-52 0 -99 35l29 48q32 -24 69 -24q83 0 83 117v431z" />
    <glyph glyph-name="yen.tf" 
d="M531 162h-153v-162h-70v162h-157v55h157v60h-157v55h124l-236 366v2h81l223 -352l226 352h82v-2l-240 -366h120v-55h-153v-60h153v-55z" />
    <glyph glyph-name="dollar.tf" 
d="M547 551q-24 45 -81 68t-118 23q-33 0 -66 -6.5t-64 -20.5t-50 -39.5t-18 -59.5q0 -24 11.5 -42.5t27 -30t45.5 -21t53 -14.5t64 -12q31 -5 46.5 -8t43.5 -9.5t43.5 -12t39 -14.5t36.5 -19t28.5 -24.5t23.5 -31.5t13.5 -39t5.5 -47q0 -63 -39 -108t-93.5 -65t-116.5 -23
v-97h-65v96q-85 4 -157 40t-106 105l66 30q26 -54 90.5 -80.5t136.5 -26.5q49 0 94 11t80.5 41.5t35.5 76.5q0 34 -17 58.5t-51.5 39.5t-66 23t-81.5 17q-49 8 -79.5 14.5t-69.5 20.5t-61 32.5t-38 50t-16 72.5q0 46 21.5 82t57.5 57.5t76.5 33.5t84.5 15v97h65v-97
q166 -15 226 -124z" />
    <glyph glyph-name="zero.denom" horiz-adv-x="392" 
d="M43 206q0 74 45 116t107 42q63 0 108.5 -42t45.5 -117v-55q0 -75 -46 -117.5t-108 -42.5t-107 42t-45 117v57zM100 151q0 -49 28.5 -77t67.5 -28t67 27.5t28 77.5v53q0 50 -28.5 78.5t-67.5 28.5q-38 0 -66.5 -28.5t-28.5 -78.5v-53z" />
    <glyph glyph-name="one.denom" horiz-adv-x="255" 
d="M35 48h71v245l-55 -14v52l111 26v-309h66v-48h-193v48z" />
    <glyph glyph-name="two.denom" horiz-adv-x="362" 
d="M45 256q0 58 39 83t98 25t98.5 -25.5t39.5 -84.5q0 -33 -12 -55.5t-33.5 -34t-42 -16.5t-48.5 -7q-2 0 -16 -1.5t-16.5 -2t-13.5 -2.5t-14 -4.5t-10.5 -7t-9.5 -9.5t-4.5 -13t-2.5 -18v-27h219v-56h-273v84q0 101 136 108q84 2 84 62q0 62 -82 62q-80 0 -80 -60h-56z" />
    <glyph glyph-name="three.denom" horiz-adv-x="362" 
d="M125 162v49h52q32 0 56 12.5t24 39.5q0 20 -20.5 36t-59.5 16q-79 0 -82 -57h-52q0 53 39 79.5t95 26.5t96.5 -26.5t40.5 -75.5q0 -29 -15 -49t-41 -27q29 -8 46 -30.5t17 -47.5q0 -60 -42 -86.5t-102 -26.5q-59 0 -99 26.5t-40 82.5h59q3 -56 81 -56q85 0 85 59
q0 21 -20 38t-62 17h-56z" />
    <glyph glyph-name="four.denom" horiz-adv-x="362" 
d="M278 359v-231h47v-53h-47v-74h-56v74h-192l-3 47l173 237h78zM222 304l-130 -176h130v176z" />
    <glyph glyph-name="five.denom" horiz-adv-x="360" 
d="M303 307h-199v-81h75q69 0 107 -31t38 -85t-37.5 -85.5t-105.5 -31.5q-59 0 -100 25t-41 82h55q0 -54 85 -54q86 0 86 64q0 27 -20 46.5t-67 19.5h-130v183h254v-52z" />
    <glyph glyph-name="six.denom" horiz-adv-x="374" 
d="M193 221q60 0 101.5 -26.5t41.5 -87.5q0 -57 -43 -84.5t-101 -27.5q-59 0 -101.5 28.5t-42.5 84.5v141q0 58 40.5 87t98.5 29q60 0 98.5 -24t42.5 -72h-56q-5 44 -84 44q-83 0 -83 -64v-60q29 32 88 32zM192 44q35 0 60.5 15t25.5 48t-25.5 49t-59.5 16
q-35 0 -61.5 -16.5t-26.5 -47.5q0 -34 26 -49t61 -15z" />
    <glyph glyph-name="seven.denom" horiz-adv-x="313" 
d="M55 0l165 307h-191v52h264l4 -26l-176 -333h-66z" />
    <glyph glyph-name="eight.denom" horiz-adv-x="383" 
d="M41 98q0 32 20.5 55.5t53.5 31.5q-67 22 -67 81q0 51 42.5 76t100.5 25q59 0 101.5 -24.5t42.5 -76.5q0 -57 -66 -81q32 -9 52.5 -32.5t20.5 -54.5q0 -39 -24.5 -64t-56 -33.5t-70.5 -8.5t-70.5 8.5t-55.5 33.5t-24 64zM107 266q1 -28 24.5 -41.5t59.5 -13.5t60 13.5
t25 41.5q0 28 -26.5 41t-58.5 13q-31 0 -57.5 -13t-26.5 -41zM102 99q0 -27 28.5 -42.5t60.5 -15.5q33 0 62 14.5t29 43.5q0 31 -27 46.5t-63 15.5t-63 -15.5t-27 -46.5z" />
    <glyph glyph-name="nine.denom" horiz-adv-x="375" 
d="M182 137q-61 0 -102 26.5t-41 87.5q0 58 42 85.5t101 27.5t101.5 -28.5t42.5 -85.5v-141q0 -57 -40.5 -86t-98.5 -29q-60 0 -99.5 23.5t-41.5 71.5h56q5 -44 85 -44q83 0 83 64v60q-32 -32 -88 -32zM182 314q-35 0 -60.5 -15t-25.5 -48t25.5 -49t60.5 -16q34 0 60.5 16.5
t26.5 47.5q0 32 -26 48t-61 16z" />
    <glyph glyph-name="zero.num" horiz-adv-x="385" 
d="M43 552q0 75 44 117t105 42t105.5 -42t44.5 -117v-53q0 -75 -44.5 -117t-104.5 -42q-61 0 -105.5 42t-44.5 117v53zM100 499q0 -49 27.5 -77t64.5 -28t64 27.5t27 77.5v53q0 50 -27.5 78.5t-64.5 28.5t-64 -28.5t-27 -78.5v-53z" />
    <glyph glyph-name="one.num" horiz-adv-x="252" 
d="M38 402h63v243l-55 -13v52l113 26v-308h65v-50h-186v50z" />
    <glyph glyph-name="two.num" horiz-adv-x="362" 
d="M45 598q0 58 39 83t98 25t98.5 -25.5t39.5 -84.5q0 -33 -12 -55.5t-33.5 -34t-42 -16.5t-48.5 -7q-2 0 -16 -1.5t-16.5 -2t-13.5 -2.5t-14 -4.5t-10.5 -7t-9.5 -9.5t-4.5 -13t-2.5 -18v-27h219v-56h-273v84q0 101 136 108q84 2 84 62q0 62 -82 62q-80 0 -80 -60h-56z" />
    <glyph glyph-name="three.num" horiz-adv-x="362" 
d="M125 507v49h52q32 0 56 12.5t24 39.5q0 20 -20.5 36t-59.5 16q-78 0 -82 -57h-52q0 53 39 79.5t95 26.5t96 -26.5t40 -75.5q0 -29 -15 -49t-40 -27q29 -8 46 -30.5t17 -47.5q0 -60 -42 -86.5t-102 -26.5q-59 0 -99 26.5t-40 82.5h59q3 -55 81 -55q84 0 84 58q0 21 -20 38
t-61 17h-56z" />
    <glyph glyph-name="four.num" horiz-adv-x="356" 
d="M277 702v-231h42v-52h-42v-75h-56v75h-192l-3 46l173 237h78zM221 648l-130 -177h130v177z" />
    <glyph glyph-name="five.num" horiz-adv-x="361" 
d="M304 649h-199v-80h75q69 0 107 -31t38 -86q0 -54 -37.5 -85t-106.5 -31q-59 0 -99.5 24.5t-40.5 81.5h55q0 -54 84 -54q87 0 87 64q0 27 -20 46.5t-67 19.5h-131v183h255v-52z" />
    <glyph glyph-name="six.num" horiz-adv-x="374" 
d="M193 566q60 0 101.5 -26.5t41.5 -87.5q0 -58 -42 -85.5t-101 -27.5t-101.5 28.5t-42.5 85.5v141q0 57 40.5 86t98.5 29q61 0 99 -23.5t42 -71.5h-56q-5 44 -85 44q-83 0 -83 -64v-60q32 32 88 32zM193 389q35 0 60.5 15t25.5 48t-25.5 49t-60.5 16q-34 0 -60.5 -16.5
t-26.5 -47.5q0 -34 26 -49t61 -15z" />
    <glyph glyph-name="seven.num" horiz-adv-x="314" 
d="M55 342l165 307h-191v52h264l4 -26l-176 -333h-66z" />
    <glyph glyph-name="eight.num" horiz-adv-x="382" 
d="M41 441q0 32 20.5 55t52.5 32q-66 22 -66 81q0 51 42.5 76t100.5 25q57 0 100.5 -24.5t43.5 -76.5q0 -56 -66 -81q32 -8 52 -32t20 -55q0 -57 -44 -81.5t-106 -24.5q-39 0 -70.5 8.5t-55.5 33.5t-24 64zM107 609q0 -28 24 -41.5t60 -13.5t60 13.5t24 41.5t-26.5 41
t-57.5 13t-57.5 -13t-26.5 -41zM101 442q0 -27 29 -42.5t61 -15.5q33 0 61.5 14.5t28.5 43.5q0 31 -27 46.5t-63 15.5t-63 -15.5t-27 -46.5z" />
    <glyph glyph-name="nine.num" horiz-adv-x="374" 
d="M182 484q-61 0 -102 26t-41 87q0 58 42 85.5t101 27.5q60 0 102 -28.5t42 -85.5v-140q0 -58 -40.5 -87t-98.5 -29q-60 0 -99.5 24t-41.5 72h56q4 -45 85 -45q38 0 60.5 16.5t22.5 48.5v60q-32 -32 -88 -32zM182 661q-35 0 -60.5 -15t-25.5 -49q0 -32 25.5 -48t60.5 -16
q34 0 60.5 16.5t26.5 47.5q0 32 -26 48t-61 16z" />
    <glyph glyph-name="parenleft.case" horiz-adv-x="343" 
d="M310 752q-90 -64 -139 -168.5t-49 -220.5q-2 -118 46.5 -223.5t141.5 -173.5l-36 -52q-101 66 -158 175t-63 234q-1 13 -1 40q0 132 58 250t165 188z" />
    <glyph glyph-name="parenright.case" horiz-adv-x="342" 
d="M67 803q109 -70 166 -189t57 -253q0 -24 -1 -36q-6 -125 -63 -234t-158 -175l-35 52q94 68 141.5 173t45.5 224q0 116 -49 220.5t-139 168.5z" />
    <glyph glyph-name="hyphen.case" horiz-adv-x="505" 
d="M75 364h355v-63h-355v63z" />
    <glyph glyph-name="bracketleft.case" horiz-adv-x="333" 
d="M94 -94v883h196v-63h-127v-757h127v-63h-196z" />
    <glyph glyph-name="bracketright.case" horiz-adv-x="333" 
d="M43 -95v64h126v758h-126v62h196v-884h-196z" />
    <glyph glyph-name="braceleft.case" horiz-adv-x="328" 
d="M285 -69q-25 -4 -52 -4q-70 0 -93.5 40t-23.5 135v117q0 110 -76 110v52q76 0 76 109v137q0 76 27 112.5t89 36.5q28 0 53 -5v-50q-21 3 -37 3q-38 0 -52.5 -22.5t-14.5 -76.5v-135q0 -27 -1.5 -42.5t-7.5 -37t-21.5 -35t-40.5 -20.5q25 -7 40 -20.5t21.5 -34.5t8 -37.5
t1.5 -43.5v-143q0 -54 14 -75.5t51 -21.5q9 0 39 4v-52z" />
    <glyph glyph-name="bar.case" horiz-adv-x="257" 
d="M162 -73h-67v830h67v-830z" />
    <glyph glyph-name="braceright.case" horiz-adv-x="329" 
d="M44 -16q30 -4 39 -4q37 0 50.5 21.5t13.5 74.5v144q0 28 1.5 43.5t7.5 37.5t22 35.5t41 19.5q-25 6 -41 19.5t-22 35t-7.5 37.5t-1.5 43v135q0 54 -14.5 76.5t-52.5 22.5q-15 0 -36 -3v49q30 6 54 6q61 0 87.5 -37.5t26.5 -112.5v-136q0 -109 77 -109v-52q-77 0 -77 -110
v-117q0 -95 -23 -135t-93 -40q-25 0 -52 4v52z" />
    <glyph glyph-name="guilsinglleft.case" horiz-adv-x="343" 
d="M200 565h71v-4l-136 -216l127 -202l9 -18h-71l-139 220z" />
    <glyph glyph-name="guilsinglright.case" horiz-adv-x="343" 
d="M283 341l-139 -221h-71l136 221l-136 216v3h71z" />
    <glyph glyph-name="guillemotleft.case" horiz-adv-x="466" 
d="M200 552h71v-4l-136 -216l127 -202l9 -18h-71l-139 220zM323 552h72v-4l-136 -216l136 -220h-72l-138 220z" />
    <glyph glyph-name="guillemotright.case" horiz-adv-x="467" 
d="M282 340l-138 -221h-72l136 221l-136 215v4h72zM406 340l-138 -221h-71l135 221l-135 215v4h71z" />
    <glyph glyph-name="endash.case" horiz-adv-x="601" 
d="M74 369h453v-61h-453v61z" />
    <glyph glyph-name="emdash.case" horiz-adv-x="709" 
d="M76 371h557v-61h-557v61z" />
    <glyph glyph-name="bullet.case" horiz-adv-x="386" 
d="M194 236q-47 0 -76.5 28.5t-29.5 75.5t30 75t76 28q45 0 74.5 -28.5t29.5 -74.5q0 -47 -29.5 -75.5t-74.5 -28.5z" />
    <glyph glyph-name="periodcentered.case" horiz-adv-x="247" 
d="M75 337q0 23 14.5 35.5t34.5 12.5t34 -12.5t14 -35.5t-14 -35.5t-34 -12.5t-34.5 12.5t-14.5 35.5z" />
    <glyph glyph-name="a.alt" horiz-adv-x="556" 
d="M84 465q88 36 165 36q106 0 170 -45t64 -144v-312h-58l-2 88q-30 -47 -80.5 -72t-107.5 -25q-82 0 -140 40t-58 120q0 81 57.5 120.5t140.5 39.5q99 0 182 -43v44q0 126 -168 126q-76 0 -155 -34zM104 151q0 -38 23.5 -62t52 -31.5t62.5 -7.5q69 0 120 46.5t55 113.5
q-76 43 -175 43q-138 0 -138 -102z" />
    <glyph glyph-name="agrave.alt" horiz-adv-x="556" 
d="M170 702h78l69 -116v-4h-57l-90 118v2zM84 465q88 36 165 36q106 0 170 -45t64 -144v-312h-58l-2 88q-30 -47 -80.5 -72t-107.5 -25q-82 0 -140 40t-58 120q0 81 57.5 120.5t140.5 39.5q99 0 182 -43v44q0 126 -168 126q-76 0 -155 -34zM104 151q0 -38 23.5 -62t52 -31.5
t62.5 -7.5q69 0 120 46.5t55 113.5q-76 43 -175 43q-138 0 -138 -102z" />
    <glyph glyph-name="aacute.alt" horiz-adv-x="556" 
d="M380 699l-90 -118h-57v4l69 116h78v-2zM84 465q88 36 165 36q106 0 170 -45t64 -144v-312h-58l-2 88q-30 -47 -80.5 -72t-107.5 -25q-82 0 -140 40t-58 120q0 81 57.5 120.5t140.5 39.5q99 0 182 -43v44q0 126 -168 126q-76 0 -155 -34zM104 151q0 -38 23.5 -62t52 -31.5
t62.5 -7.5q69 0 120 46.5t55 113.5q-76 43 -175 43q-138 0 -138 -102z" />
    <glyph glyph-name="acircumflex.alt" horiz-adv-x="556" 
d="M294 701l132 -121v-7h-65l-89 80l-88 -80h-66v7l132 121h44zM84 465q88 36 165 36q106 0 170 -45t64 -144v-312h-58l-2 88q-30 -47 -80.5 -72t-107.5 -25q-82 0 -140 40t-58 120q0 81 57.5 120.5t140.5 39.5q99 0 182 -43v44q0 126 -168 126q-76 0 -155 -34zM104 151
q0 -38 23.5 -62t52 -31.5t62.5 -7.5q69 0 120 46.5t55 113.5q-76 43 -175 43q-138 0 -138 -102z" />
    <glyph glyph-name="atilde.alt" horiz-adv-x="556" 
d="M131 628q7 33 28.5 51.5t50.5 18.5q6 0 18 -2q10 -2 41.5 -17t47.5 -15q26 0 35 31l45 -18q-6 -34 -27.5 -52t-49.5 -18q-6 0 -18 2q-8 2 -41.5 17.5t-49.5 15.5q-25 0 -36 -32zM84 465q88 36 165 36q106 0 170 -45t64 -144v-312h-58l-2 88q-30 -47 -80.5 -72t-107.5 -25
q-82 0 -140 40t-58 120q0 81 57.5 120.5t140.5 39.5q99 0 182 -43v44q0 126 -168 126q-76 0 -155 -34zM104 151q0 -38 23.5 -62t52 -31.5t62.5 -7.5q69 0 120 46.5t55 113.5q-76 43 -175 43q-138 0 -138 -102z" />
    <glyph glyph-name="adieresis.alt" horiz-adv-x="557" 
d="M130 659q0 21 13 32.5t31 11.5t31 -11.5t13 -32.5t-13 -32.5t-31 -11.5t-31 11.5t-13 32.5zM337 659q0 21 13 32.5t31 11.5t31 -11.5t13 -32.5t-13 -32.5t-31 -11.5t-31 11.5t-13 32.5zM84 465q88 36 165 36q106 0 170 -45t64 -144v-312h-58l-2 88q-30 -47 -80.5 -72
t-107.5 -25q-82 0 -140 40t-58 120q0 81 57.5 120.5t140.5 39.5q99 0 182 -43v44q0 126 -168 126q-76 0 -155 -34zM104 151q0 -38 23.5 -62t52 -31.5t62.5 -7.5q69 0 120 46.5t55 113.5q-76 43 -175 43q-138 0 -138 -102z" />
    <glyph glyph-name="amacron.alt" horiz-adv-x="557" 
d="M124 682h295v-55h-295v55zM84 465q88 36 165 36q106 0 170 -45t64 -144v-312h-58l-2 88q-30 -47 -80.5 -72t-107.5 -25q-82 0 -140 40t-58 120q0 81 57.5 120.5t140.5 39.5q99 0 182 -43v44q0 126 -168 126q-76 0 -155 -34zM104 151q0 -38 23.5 -62t52 -31.5t62.5 -7.5
q69 0 120 46.5t55 113.5q-76 43 -175 43q-138 0 -138 -102z" />
    <glyph glyph-name="abreve.alt" horiz-adv-x="557" 
d="M407 702q2 -59 -32 -90.5t-95 -31.5q-58 0 -92 32t-32 90h51q0 -73 73 -73q38 0 55.5 21t17.5 52h54zM84 465q88 36 165 36q106 0 170 -45t64 -144v-312h-58l-2 88q-30 -47 -80.5 -72t-107.5 -25q-82 0 -140 40t-58 120q0 81 57.5 120.5t140.5 39.5q99 0 182 -43v44
q0 126 -168 126q-76 0 -155 -34zM104 151q0 -38 23.5 -62t52 -31.5t62.5 -7.5q69 0 120 46.5t55 113.5q-76 43 -175 43q-138 0 -138 -102z" />
    <glyph glyph-name="aring.alt" horiz-adv-x="557" 
d="M171 651q0 43 31.5 67t74.5 24q42 0 74.5 -24.5t32.5 -66.5q0 -43 -30.5 -67t-76.5 -24q-47 0 -76.5 24t-29.5 67zM276 701q-26 0 -41 -14.5t-15 -34.5t15 -35t41 -15q27 0 42 14.5t15 34.5t-15 35t-42 15zM84 465q88 36 165 36q106 0 170 -45t64 -144v-312h-58l-2 88
q-30 -47 -80.5 -72t-107.5 -25q-82 0 -140 40t-58 120q0 81 57.5 120.5t140.5 39.5q99 0 182 -43v44q0 126 -168 126q-76 0 -155 -34zM104 151q0 -38 23.5 -62t52 -31.5t62.5 -7.5q69 0 120 46.5t55 113.5q-76 43 -175 43q-138 0 -138 -102z" />
    <glyph glyph-name="aringacute.alt" horiz-adv-x="557" 
d="M395 831l-88 -91h-56v3l72 89h72v-1zM184 628q0 39 29.5 61.5t69.5 22.5q41 0 70.5 -22.5t29.5 -61.5q0 -40 -28.5 -62.5t-71.5 -22.5q-44 0 -71.5 22.5t-27.5 62.5zM282 674q-24 0 -38 -13.5t-14 -31.5q0 -19 14 -32.5t38 -13.5q26 0 40 13.5t14 32.5q0 18 -14.5 31.5
t-39.5 13.5zM84 465q88 36 165 36q106 0 170 -45t64 -144v-312h-58l-2 88q-30 -47 -80.5 -72t-107.5 -25q-82 0 -140 40t-58 120q0 81 57.5 120.5t140.5 39.5q99 0 182 -43v44q0 126 -168 126q-76 0 -155 -34zM104 151q0 -38 23.5 -62t52 -31.5t62.5 -7.5q69 0 120 46.5
t55 113.5q-76 43 -175 43q-138 0 -138 -102z" />
    <glyph glyph-name="aogonek.alt" horiz-adv-x="557" 
d="M84 465q88 36 165 36q106 0 170 -45t64 -144v-350q-7 1 -20 1q-38 0 -62.5 -15t-25.5 -37q-2 -20 13.5 -34.5t44.5 -14.5q54 0 83 43l37 -25q-17 -33 -50.5 -50.5t-72.5 -17.5q-50 0 -78.5 25.5t-28.5 62.5q0 34 24.5 62t77.5 35v3l-2 88q-30 -47 -80.5 -72t-107.5 -25
q-82 0 -140 40t-58 120q0 81 57.5 120.5t140.5 39.5q99 0 182 -43v44q0 126 -168 126q-76 0 -155 -34zM104 151q0 -38 23.5 -62t52 -31.5t62.5 -7.5q69 0 120 46.5t55 113.5q-76 43 -175 43q-138 0 -138 -102z" />
    <glyph glyph-name="y.alt" horiz-adv-x="606" 
d="M138 494v-277q0 -77 42.5 -119t116.5 -42q72 0 118 48t46 121v269h67v-511q0 -117 -63 -177.5t-164 -60.5t-157.5 47t-62.5 133h65q13 -117 155 -117q72 0 117.5 43.5t45.5 131.5v100q-53 -89 -175 -91q-98 0 -158 60t-60 164v278h67z" />
    <glyph glyph-name="yacute.alt" horiz-adv-x="606" 
d="M407 701l-92 -123h-55v4l71 121h76v-2zM138 494v-277q0 -77 42.5 -119t116.5 -42q72 0 118 48t46 121v269h67v-511q0 -117 -63 -177.5t-164 -60.5t-157.5 47t-62.5 133h65q13 -117 155 -117q72 0 117.5 43.5t45.5 131.5v100q-53 -89 -175 -91q-98 0 -158 60t-60 164v278
h67z" />
    <glyph glyph-name="ycircumflex.alt" horiz-adv-x="606" 
d="M332 708l135 -126v-6h-67l-90 82l-91 -82h-67v6l136 126h44zM138 494v-277q0 -77 42.5 -119t116.5 -42q72 0 118 48t46 121v269h67v-511q0 -117 -63 -177.5t-164 -60.5t-157.5 47t-62.5 133h65q13 -117 155 -117q72 0 117.5 43.5t45.5 131.5v100q-53 -89 -175 -91
q-98 0 -158 60t-60 164v278h67z" />
    <glyph glyph-name="ydieresis.alt" horiz-adv-x="606" 
d="M158 659q0 22 13.5 34t32.5 12q18 0 31.5 -12t13.5 -34q0 -21 -13.5 -32.5t-31.5 -11.5q-19 0 -32.5 11.5t-13.5 32.5zM373 659q0 22 13.5 34t32.5 12t32.5 -12t13.5 -34q0 -21 -13.5 -32.5t-32.5 -11.5t-32.5 11.5t-13.5 32.5zM138 494v-277q0 -77 42.5 -119t116.5 -42
q72 0 118 48t46 121v269h67v-511q0 -117 -63 -177.5t-164 -60.5t-157.5 47t-62.5 133h65q13 -117 155 -117q72 0 117.5 43.5t45.5 131.5v100q-53 -89 -175 -91q-98 0 -158 60t-60 164v278h67z" />
    <glyph glyph-name="ygrave.alt" horiz-adv-x="606" 
d="M203 701h78l64 -119v-4h-56l-86 121v2zM138 494v-277q0 -77 42.5 -119t116.5 -42q72 0 118 48t46 121v269h67v-511q0 -117 -63 -177.5t-164 -60.5t-157.5 47t-62.5 133h65q13 -117 155 -117q72 0 117.5 43.5t45.5 131.5v100q-53 -89 -175 -91q-98 0 -158 60t-60 164v278
h67z" />
    <glyph glyph-name="asterisk.alt" horiz-adv-x="310" 
d="M142 549l-42 -61q-7 -14 -22 -14q-11 0 -19.5 7.5t-8.5 18.5q0 10 7 18l47 58l-66 19q-18 4 -18 23q0 12 9.5 21t22.5 5l66 -24l-4 69q0 22 28 22t28 -22l-4 -69l66 24q13 4 22.5 -5t9.5 -21q0 -19 -18 -23l-66 -19l47 -58q7 -8 7 -18t-8.5 -18t-19.5 -8q-14 0 -22 14z
" />
    </font>
</defs>
</svg>
