<svg width="587" height="1371" viewBox="0 0 587 1371" fill="none" xmlns="http://www.w3.org/2000/svg">
<path d="M586.657 87.8198V68.583L549.775 117.93V137.166L586.657 87.8198Z" fill="#EBEBEB" fill-opacity="0.5"/>
<path d="M549.775 87.8198V68.583L512.892 117.93V137.166L549.775 87.8198Z" fill="#EBEBEB" fill-opacity="0.5"/>
<path d="M512.892 87.8198V68.583L476.01 117.93V137.166L512.892 87.8198Z" fill="#EBEBEB" fill-opacity="0.5"/>
<path d="M476.01 87.8198V68.583L439.432 117.93V137.166L476.01 87.8198Z" fill="#EBEBEB" fill-opacity="0.5"/>
<path d="M-35.7744 19.2368V0L1.10818 49.3465V68.5833L-35.7744 19.2368Z" fill="#EBEBEB" fill-opacity="0.5"/>
<path d="M439.432 87.8198V68.583L402.549 117.93V137.166L439.432 87.8198Z" fill="#EBEBEB" fill-opacity="0.5"/>
<path d="M1.10815 19.2368V0L37.9907 49.3465V68.5833L1.10815 19.2368Z" fill="#EBEBEB" fill-opacity="0.5"/>
<path d="M402.549 87.8198V68.583L365.667 117.93V137.166L402.549 87.8198Z" fill="#EBEBEB" fill-opacity="0.5"/>
<path d="M37.686 19.2368V0L74.5686 49.3465V68.5833L37.686 19.2368Z" fill="#EBEBEB" fill-opacity="0.5"/>
<path d="M365.972 87.8198V68.583L329.089 117.93V137.166L365.972 87.8198Z" fill="#EBEBEB" fill-opacity="0.5"/>
<path d="M74.2638 19.2368V0L111.146 49.3465V68.5833L74.2638 19.2368Z" fill="#EBEBEB" fill-opacity="0.5"/>
<path d="M329.394 87.8198V68.583L292.511 117.93V137.166L329.394 87.8198Z" fill="#EBEBEB" fill-opacity="0.5"/>
<path d="M110.841 19.2368V0L147.724 49.3465V68.5833L110.841 19.2368Z" fill="#EBEBEB" fill-opacity="0.5"/>
<path d="M292.816 87.8198V68.583L255.934 117.93V137.166L292.816 87.8198Z" fill="#EBEBEB" fill-opacity="0.5"/>
<path d="M147.419 19.2368V0L184.302 49.3465V68.5833L147.419 19.2368Z" fill="#EBEBEB" fill-opacity="0.5"/>
<path d="M256.238 87.8198V68.583L219.356 117.93V137.166L256.238 87.8198Z" fill="#EBEBEB" fill-opacity="0.5"/>
<path d="M183.997 19.2368V0L220.88 49.3465V68.5833L183.997 19.2368Z" fill="#EBEBEB" fill-opacity="0.5"/>
<path d="M219.66 87.8198V68.583L182.778 117.93V137.166L219.66 87.8198Z" fill="#EBEBEB" fill-opacity="0.5"/>
<path d="M220.575 19.2368V0L257.458 49.3465V68.5833L220.575 19.2368Z" fill="#EBEBEB" fill-opacity="0.5"/>
<path d="M183.083 87.8198V68.583L146.2 117.93V137.166L183.083 87.8198Z" fill="#EBEBEB" fill-opacity="0.5"/>
<path d="M257.153 19.2368V0L294.035 49.3465V68.5833L257.153 19.2368Z" fill="#EBEBEB" fill-opacity="0.5"/>
<path d="M146.505 87.8198V68.583L109.622 117.93V137.166L146.505 87.8198Z" fill="#EBEBEB" fill-opacity="0.5"/>
<path d="M293.73 19.2368V0L330.613 49.3465V68.5833L293.73 19.2368Z" fill="#EBEBEB" fill-opacity="0.5"/>
<path d="M109.927 87.8198V68.583L73.0447 117.93V137.166L109.927 87.8198Z" fill="#EBEBEB" fill-opacity="0.5"/>
<path d="M330.308 19.2368V0L367.191 49.3465V68.5833L330.308 19.2368Z" fill="#EBEBEB" fill-opacity="0.5"/>
<path d="M73.3494 87.8198V68.583L36.4668 117.93V137.166L73.3494 87.8198Z" fill="#EBEBEB" fill-opacity="0.5"/>
<path d="M366.886 19.2368V0L403.769 49.3465V68.5833L366.886 19.2368Z" fill="#EBEBEB" fill-opacity="0.5"/>
<path d="M36.7716 87.8198V68.583L-0.110985 117.93V137.166L36.7716 87.8198Z" fill="#EBEBEB" fill-opacity="0.5"/>
<path d="M403.464 19.2368V0L440.346 49.3465V68.5833L403.464 19.2368Z" fill="#EBEBEB" fill-opacity="0.5"/>
<path d="M0.193726 87.8198V68.583L-36.6889 117.93V137.166L0.193726 87.8198Z" fill="#EBEBEB" fill-opacity="0.5"/>
<path d="M440.042 19.2368V0L476.924 49.3465V68.5833L440.042 19.2368Z" fill="#EBEBEB" fill-opacity="0.5"/>
<path d="M476.619 19.2368V0L513.502 49.3465V68.5833L476.619 19.2368Z" fill="#EBEBEB" fill-opacity="0.5"/>
<path d="M513.197 19.2368V0L550.08 49.3465V68.5833L513.197 19.2368Z" fill="#EBEBEB" fill-opacity="0.5"/>
<path d="M549.775 19.2368V0L586.657 49.3465V68.5833L549.775 19.2368Z" fill="#EBEBEB" fill-opacity="0.5"/>
<path d="M586.657 224.82V205.583L549.775 254.93V274.166L586.657 224.82Z" fill="#EBEBEB" fill-opacity="0.5"/>
<path d="M549.775 224.82V205.583L512.892 254.93V274.166L549.775 224.82Z" fill="#EBEBEB" fill-opacity="0.5"/>
<path d="M512.892 224.82V205.583L476.01 254.93V274.166L512.892 224.82Z" fill="#EBEBEB" fill-opacity="0.5"/>
<path d="M476.01 224.82V205.583L439.432 254.93V274.166L476.01 224.82Z" fill="#EBEBEB" fill-opacity="0.5"/>
<path d="M-35.7744 156.237V137L1.10818 186.347V205.583L-35.7744 156.237Z" fill="#EBEBEB" fill-opacity="0.5"/>
<path d="M439.432 224.82V205.583L402.549 254.93V274.166L439.432 224.82Z" fill="#EBEBEB" fill-opacity="0.5"/>
<path d="M1.10815 156.237V137L37.9907 186.347V205.583L1.10815 156.237Z" fill="#EBEBEB" fill-opacity="0.5"/>
<path d="M402.549 224.82V205.583L365.667 254.93V274.166L402.549 224.82Z" fill="#EBEBEB" fill-opacity="0.5"/>
<path d="M37.686 156.237V137L74.5686 186.347V205.583L37.686 156.237Z" fill="#EBEBEB" fill-opacity="0.5"/>
<path d="M365.972 224.82V205.583L329.089 254.93V274.166L365.972 224.82Z" fill="#EBEBEB" fill-opacity="0.5"/>
<path d="M74.2638 156.237V137L111.146 186.347V205.583L74.2638 156.237Z" fill="#EBEBEB" fill-opacity="0.5"/>
<path d="M329.394 224.82V205.583L292.511 254.93V274.166L329.394 224.82Z" fill="#EBEBEB" fill-opacity="0.5"/>
<path d="M110.841 156.237V137L147.724 186.347V205.583L110.841 156.237Z" fill="#EBEBEB" fill-opacity="0.5"/>
<path d="M292.816 224.82V205.583L255.934 254.93V274.166L292.816 224.82Z" fill="#EBEBEB" fill-opacity="0.5"/>
<path d="M147.419 156.237V137L184.302 186.347V205.583L147.419 156.237Z" fill="#EBEBEB" fill-opacity="0.5"/>
<path d="M256.238 224.82V205.583L219.356 254.93V274.166L256.238 224.82Z" fill="#EBEBEB" fill-opacity="0.5"/>
<path d="M183.997 156.237V137L220.88 186.347V205.583L183.997 156.237Z" fill="#EBEBEB" fill-opacity="0.5"/>
<path d="M219.66 224.82V205.583L182.778 254.93V274.166L219.66 224.82Z" fill="#EBEBEB" fill-opacity="0.5"/>
<path d="M220.575 156.237V137L257.458 186.347V205.583L220.575 156.237Z" fill="#EBEBEB" fill-opacity="0.5"/>
<path d="M183.083 224.82V205.583L146.2 254.93V274.166L183.083 224.82Z" fill="#EBEBEB" fill-opacity="0.5"/>
<path d="M257.153 156.237V137L294.035 186.347V205.583L257.153 156.237Z" fill="#EBEBEB" fill-opacity="0.5"/>
<path d="M146.505 224.82V205.583L109.622 254.93V274.166L146.505 224.82Z" fill="#EBEBEB" fill-opacity="0.5"/>
<path d="M293.73 156.237V137L330.613 186.347V205.583L293.73 156.237Z" fill="#EBEBEB" fill-opacity="0.5"/>
<path d="M109.927 224.82V205.583L73.0447 254.93V274.166L109.927 224.82Z" fill="#EBEBEB" fill-opacity="0.5"/>
<path d="M330.308 156.237V137L367.191 186.347V205.583L330.308 156.237Z" fill="#EBEBEB" fill-opacity="0.5"/>
<path d="M73.3494 224.82V205.583L36.4668 254.93V274.166L73.3494 224.82Z" fill="#EBEBEB" fill-opacity="0.5"/>
<path d="M366.886 156.237V137L403.769 186.347V205.583L366.886 156.237Z" fill="#EBEBEB" fill-opacity="0.5"/>
<path d="M36.7716 224.82V205.583L-0.110985 254.93V274.166L36.7716 224.82Z" fill="#EBEBEB" fill-opacity="0.5"/>
<path d="M403.464 156.237V137L440.346 186.347V205.583L403.464 156.237Z" fill="#EBEBEB" fill-opacity="0.5"/>
<path d="M0.193726 224.82V205.583L-36.6889 254.93V274.166L0.193726 224.82Z" fill="#EBEBEB" fill-opacity="0.5"/>
<path d="M440.042 156.237V137L476.924 186.347V205.583L440.042 156.237Z" fill="#EBEBEB" fill-opacity="0.5"/>
<path d="M476.619 156.237V137L513.502 186.347V205.583L476.619 156.237Z" fill="#EBEBEB" fill-opacity="0.5"/>
<path d="M513.197 156.237V137L550.08 186.347V205.583L513.197 156.237Z" fill="#EBEBEB" fill-opacity="0.5"/>
<path d="M549.775 156.237V137L586.657 186.347V205.583L549.775 156.237Z" fill="#EBEBEB" fill-opacity="0.5"/>
<path d="M586.657 361.82V342.583L549.775 391.93V411.166L586.657 361.82Z" fill="#EBEBEB" fill-opacity="0.5"/>
<path d="M549.775 361.82V342.583L512.892 391.93V411.166L549.775 361.82Z" fill="#EBEBEB" fill-opacity="0.5"/>
<path d="M512.892 361.82V342.583L476.01 391.93V411.166L512.892 361.82Z" fill="#EBEBEB" fill-opacity="0.5"/>
<path d="M476.01 361.82V342.583L439.432 391.93V411.166L476.01 361.82Z" fill="#EBEBEB" fill-opacity="0.5"/>
<path d="M-35.7744 293.237V274L1.10818 323.347V342.583L-35.7744 293.237Z" fill="#EBEBEB" fill-opacity="0.5"/>
<path d="M439.432 361.82V342.583L402.549 391.93V411.166L439.432 361.82Z" fill="#EBEBEB" fill-opacity="0.5"/>
<path d="M1.10815 293.237V274L37.9907 323.347V342.583L1.10815 293.237Z" fill="#EBEBEB" fill-opacity="0.5"/>
<path d="M402.549 361.82V342.583L365.667 391.93V411.166L402.549 361.82Z" fill="#EBEBEB" fill-opacity="0.5"/>
<path d="M37.686 293.237V274L74.5686 323.347V342.583L37.686 293.237Z" fill="#EBEBEB" fill-opacity="0.5"/>
<path d="M365.972 361.82V342.583L329.089 391.93V411.166L365.972 361.82Z" fill="#EBEBEB" fill-opacity="0.5"/>
<path d="M74.2638 293.237V274L111.146 323.347V342.583L74.2638 293.237Z" fill="#EBEBEB" fill-opacity="0.5"/>
<path d="M329.394 361.82V342.583L292.511 391.93V411.166L329.394 361.82Z" fill="#EBEBEB" fill-opacity="0.5"/>
<path d="M110.841 293.237V274L147.724 323.347V342.583L110.841 293.237Z" fill="#EBEBEB" fill-opacity="0.5"/>
<path d="M292.816 361.82V342.583L255.934 391.93V411.166L292.816 361.82Z" fill="#EBEBEB" fill-opacity="0.5"/>
<path d="M147.419 293.237V274L184.302 323.347V342.583L147.419 293.237Z" fill="#EBEBEB" fill-opacity="0.5"/>
<path d="M256.238 361.82V342.583L219.356 391.93V411.166L256.238 361.82Z" fill="#EBEBEB" fill-opacity="0.5"/>
<path d="M183.997 293.237V274L220.88 323.347V342.583L183.997 293.237Z" fill="#EBEBEB" fill-opacity="0.5"/>
<path d="M219.66 361.82V342.583L182.778 391.93V411.166L219.66 361.82Z" fill="#EBEBEB" fill-opacity="0.5"/>
<path d="M220.575 293.237V274L257.458 323.347V342.583L220.575 293.237Z" fill="#EBEBEB" fill-opacity="0.5"/>
<path d="M183.083 361.82V342.583L146.2 391.93V411.166L183.083 361.82Z" fill="#EBEBEB" fill-opacity="0.5"/>
<path d="M257.153 293.237V274L294.035 323.347V342.583L257.153 293.237Z" fill="#EBEBEB" fill-opacity="0.5"/>
<path d="M146.505 361.82V342.583L109.622 391.93V411.166L146.505 361.82Z" fill="#EBEBEB" fill-opacity="0.5"/>
<path d="M293.73 293.237V274L330.613 323.347V342.583L293.73 293.237Z" fill="#EBEBEB" fill-opacity="0.5"/>
<path d="M109.927 361.82V342.583L73.0447 391.93V411.166L109.927 361.82Z" fill="#EBEBEB" fill-opacity="0.5"/>
<path d="M330.308 293.237V274L367.191 323.347V342.583L330.308 293.237Z" fill="#EBEBEB" fill-opacity="0.5"/>
<path d="M73.3494 361.82V342.583L36.4668 391.93V411.166L73.3494 361.82Z" fill="#EBEBEB" fill-opacity="0.5"/>
<path d="M366.886 293.237V274L403.769 323.347V342.583L366.886 293.237Z" fill="#EBEBEB" fill-opacity="0.5"/>
<path d="M36.7716 361.82V342.583L-0.110985 391.93V411.166L36.7716 361.82Z" fill="#EBEBEB" fill-opacity="0.5"/>
<path d="M403.464 293.237V274L440.346 323.347V342.583L403.464 293.237Z" fill="#EBEBEB" fill-opacity="0.5"/>
<path d="M0.193726 361.82V342.583L-36.6889 391.93V411.166L0.193726 361.82Z" fill="#EBEBEB" fill-opacity="0.5"/>
<path d="M440.042 293.237V274L476.924 323.347V342.583L440.042 293.237Z" fill="#EBEBEB" fill-opacity="0.5"/>
<path d="M476.619 293.237V274L513.502 323.347V342.583L476.619 293.237Z" fill="#EBEBEB" fill-opacity="0.5"/>
<path d="M513.197 293.237V274L550.08 323.347V342.583L513.197 293.237Z" fill="#EBEBEB" fill-opacity="0.5"/>
<path d="M549.775 293.237V274L586.657 323.347V342.583L549.775 293.237Z" fill="#EBEBEB" fill-opacity="0.5"/>
<path d="M586.657 498.82V479.583L549.775 528.93V548.166L586.657 498.82Z" fill="#EBEBEB" fill-opacity="0.5"/>
<path d="M549.775 498.82V479.583L512.892 528.93V548.166L549.775 498.82Z" fill="#EBEBEB" fill-opacity="0.5"/>
<path d="M512.892 498.82V479.583L476.01 528.93V548.166L512.892 498.82Z" fill="#EBEBEB" fill-opacity="0.5"/>
<path d="M476.01 498.82V479.583L439.432 528.93V548.166L476.01 498.82Z" fill="#EBEBEB" fill-opacity="0.5"/>
<path d="M-35.7744 430.237V411L1.10818 460.347V479.583L-35.7744 430.237Z" fill="#EBEBEB" fill-opacity="0.5"/>
<path d="M439.432 498.82V479.583L402.549 528.93V548.166L439.432 498.82Z" fill="#EBEBEB" fill-opacity="0.5"/>
<path d="M1.10815 430.237V411L37.9907 460.347V479.583L1.10815 430.237Z" fill="#EBEBEB" fill-opacity="0.5"/>
<path d="M402.549 498.82V479.583L365.667 528.93V548.166L402.549 498.82Z" fill="#EBEBEB" fill-opacity="0.5"/>
<path d="M37.686 430.237V411L74.5686 460.347V479.583L37.686 430.237Z" fill="#EBEBEB" fill-opacity="0.5"/>
<path d="M365.972 498.82V479.583L329.089 528.93V548.166L365.972 498.82Z" fill="#EBEBEB" fill-opacity="0.5"/>
<path d="M74.2638 430.237V411L111.146 460.347V479.583L74.2638 430.237Z" fill="#EBEBEB" fill-opacity="0.5"/>
<path d="M329.394 498.82V479.583L292.511 528.93V548.166L329.394 498.82Z" fill="#EBEBEB" fill-opacity="0.5"/>
<path d="M110.841 430.237V411L147.724 460.347V479.583L110.841 430.237Z" fill="#EBEBEB" fill-opacity="0.5"/>
<path d="M292.816 498.82V479.583L255.934 528.93V548.166L292.816 498.82Z" fill="#EBEBEB" fill-opacity="0.5"/>
<path d="M147.419 430.237V411L184.302 460.347V479.583L147.419 430.237Z" fill="#EBEBEB" fill-opacity="0.5"/>
<path d="M256.238 498.82V479.583L219.356 528.93V548.166L256.238 498.82Z" fill="#EBEBEB" fill-opacity="0.5"/>
<path d="M183.997 430.237V411L220.88 460.347V479.583L183.997 430.237Z" fill="#EBEBEB" fill-opacity="0.5"/>
<path d="M219.66 498.82V479.583L182.778 528.93V548.166L219.66 498.82Z" fill="#EBEBEB" fill-opacity="0.5"/>
<path d="M220.575 430.237V411L257.458 460.347V479.583L220.575 430.237Z" fill="#EBEBEB" fill-opacity="0.5"/>
<path d="M183.083 498.82V479.583L146.2 528.93V548.166L183.083 498.82Z" fill="#EBEBEB" fill-opacity="0.5"/>
<path d="M257.153 430.237V411L294.035 460.347V479.583L257.153 430.237Z" fill="#EBEBEB" fill-opacity="0.5"/>
<path d="M146.505 498.82V479.583L109.622 528.93V548.166L146.505 498.82Z" fill="#EBEBEB" fill-opacity="0.5"/>
<path d="M293.73 430.237V411L330.613 460.347V479.583L293.73 430.237Z" fill="#EBEBEB" fill-opacity="0.5"/>
<path d="M109.927 498.82V479.583L73.0447 528.93V548.166L109.927 498.82Z" fill="#EBEBEB" fill-opacity="0.5"/>
<path d="M330.308 430.237V411L367.191 460.347V479.583L330.308 430.237Z" fill="#EBEBEB" fill-opacity="0.5"/>
<path d="M73.3494 498.82V479.583L36.4668 528.93V548.166L73.3494 498.82Z" fill="#EBEBEB" fill-opacity="0.5"/>
<path d="M366.886 430.237V411L403.769 460.347V479.583L366.886 430.237Z" fill="#EBEBEB" fill-opacity="0.5"/>
<path d="M36.7716 498.82V479.583L-0.110985 528.93V548.166L36.7716 498.82Z" fill="#EBEBEB" fill-opacity="0.5"/>
<path d="M403.464 430.237V411L440.346 460.347V479.583L403.464 430.237Z" fill="#EBEBEB" fill-opacity="0.5"/>
<path d="M0.193726 498.82V479.583L-36.6889 528.93V548.166L0.193726 498.82Z" fill="#EBEBEB" fill-opacity="0.5"/>
<path d="M440.042 430.237V411L476.924 460.347V479.583L440.042 430.237Z" fill="#EBEBEB" fill-opacity="0.5"/>
<path d="M476.619 430.237V411L513.502 460.347V479.583L476.619 430.237Z" fill="#EBEBEB" fill-opacity="0.5"/>
<path d="M513.197 430.237V411L550.08 460.347V479.583L513.197 430.237Z" fill="#EBEBEB" fill-opacity="0.5"/>
<path d="M549.775 430.237V411L586.657 460.347V479.583L549.775 430.237Z" fill="#EBEBEB" fill-opacity="0.5"/>
<path d="M586.657 635.82V616.583L549.775 665.93V685.166L586.657 635.82Z" fill="#EBEBEB" fill-opacity="0.5"/>
<path d="M549.775 635.82V616.583L512.892 665.93V685.166L549.775 635.82Z" fill="#EBEBEB" fill-opacity="0.5"/>
<path d="M512.892 635.82V616.583L476.01 665.93V685.166L512.892 635.82Z" fill="#EBEBEB" fill-opacity="0.5"/>
<path d="M476.01 635.82V616.583L439.432 665.93V685.166L476.01 635.82Z" fill="#EBEBEB" fill-opacity="0.5"/>
<path d="M-35.7744 567.237V548L1.10818 597.347V616.583L-35.7744 567.237Z" fill="#EBEBEB" fill-opacity="0.5"/>
<path d="M439.432 635.82V616.583L402.549 665.93V685.166L439.432 635.82Z" fill="#EBEBEB" fill-opacity="0.5"/>
<path d="M1.10815 567.237V548L37.9907 597.347V616.583L1.10815 567.237Z" fill="#EBEBEB" fill-opacity="0.5"/>
<path d="M402.549 635.82V616.583L365.667 665.93V685.166L402.549 635.82Z" fill="#EBEBEB" fill-opacity="0.5"/>
<path d="M37.686 567.237V548L74.5686 597.347V616.583L37.686 567.237Z" fill="#EBEBEB" fill-opacity="0.5"/>
<path d="M365.972 635.82V616.583L329.089 665.93V685.166L365.972 635.82Z" fill="#EBEBEB" fill-opacity="0.5"/>
<path d="M74.2638 567.237V548L111.146 597.347V616.583L74.2638 567.237Z" fill="#EBEBEB" fill-opacity="0.5"/>
<path d="M329.394 635.82V616.583L292.511 665.93V685.166L329.394 635.82Z" fill="#EBEBEB" fill-opacity="0.5"/>
<path d="M110.841 567.237V548L147.724 597.347V616.583L110.841 567.237Z" fill="#EBEBEB" fill-opacity="0.5"/>
<path d="M292.816 635.82V616.583L255.934 665.93V685.166L292.816 635.82Z" fill="#EBEBEB" fill-opacity="0.5"/>
<path d="M147.419 567.237V548L184.302 597.347V616.583L147.419 567.237Z" fill="#EBEBEB" fill-opacity="0.5"/>
<path d="M256.238 635.82V616.583L219.356 665.93V685.166L256.238 635.82Z" fill="#EBEBEB" fill-opacity="0.5"/>
<path d="M183.997 567.237V548L220.88 597.347V616.583L183.997 567.237Z" fill="#EBEBEB" fill-opacity="0.5"/>
<path d="M219.66 635.82V616.583L182.778 665.93V685.166L219.66 635.82Z" fill="#EBEBEB" fill-opacity="0.5"/>
<path d="M220.575 567.237V548L257.458 597.347V616.583L220.575 567.237Z" fill="#EBEBEB" fill-opacity="0.5"/>
<path d="M183.083 635.82V616.583L146.2 665.93V685.166L183.083 635.82Z" fill="#EBEBEB" fill-opacity="0.5"/>
<path d="M257.153 567.237V548L294.035 597.347V616.583L257.153 567.237Z" fill="#EBEBEB" fill-opacity="0.5"/>
<path d="M146.505 635.82V616.583L109.622 665.93V685.166L146.505 635.82Z" fill="#EBEBEB" fill-opacity="0.5"/>
<path d="M293.73 567.237V548L330.613 597.347V616.583L293.73 567.237Z" fill="#EBEBEB" fill-opacity="0.5"/>
<path d="M109.927 635.82V616.583L73.0447 665.93V685.166L109.927 635.82Z" fill="#EBEBEB" fill-opacity="0.5"/>
<path d="M330.308 567.237V548L367.191 597.347V616.583L330.308 567.237Z" fill="#EBEBEB" fill-opacity="0.5"/>
<path d="M73.3494 635.82V616.583L36.4668 665.93V685.166L73.3494 635.82Z" fill="#EBEBEB" fill-opacity="0.5"/>
<path d="M366.886 567.237V548L403.769 597.347V616.583L366.886 567.237Z" fill="#EBEBEB" fill-opacity="0.5"/>
<path d="M36.7716 635.82V616.583L-0.110985 665.93V685.166L36.7716 635.82Z" fill="#EBEBEB" fill-opacity="0.5"/>
<path d="M403.464 567.237V548L440.346 597.347V616.583L403.464 567.237Z" fill="#EBEBEB" fill-opacity="0.5"/>
<path d="M0.193726 635.82V616.583L-36.6889 665.93V685.166L0.193726 635.82Z" fill="#EBEBEB" fill-opacity="0.5"/>
<path d="M440.042 567.237V548L476.924 597.347V616.583L440.042 567.237Z" fill="#EBEBEB" fill-opacity="0.5"/>
<path d="M476.619 567.237V548L513.502 597.347V616.583L476.619 567.237Z" fill="#EBEBEB" fill-opacity="0.5"/>
<path d="M513.197 567.237V548L550.08 597.347V616.583L513.197 567.237Z" fill="#EBEBEB" fill-opacity="0.5"/>
<path d="M549.775 567.237V548L586.657 597.347V616.583L549.775 567.237Z" fill="#EBEBEB" fill-opacity="0.5"/>
<path d="M586.657 772.82V753.583L549.775 802.93V822.166L586.657 772.82Z" fill="#EBEBEB" fill-opacity="0.5"/>
<path d="M549.775 772.82V753.583L512.892 802.93V822.166L549.775 772.82Z" fill="#EBEBEB" fill-opacity="0.5"/>
<path d="M512.892 772.82V753.583L476.01 802.93V822.166L512.892 772.82Z" fill="#EBEBEB" fill-opacity="0.5"/>
<path d="M476.01 772.82V753.583L439.432 802.93V822.166L476.01 772.82Z" fill="#EBEBEB" fill-opacity="0.5"/>
<path d="M-35.7744 704.237V685L1.10818 734.347V753.583L-35.7744 704.237Z" fill="#EBEBEB" fill-opacity="0.5"/>
<path d="M439.432 772.82V753.583L402.549 802.93V822.166L439.432 772.82Z" fill="#EBEBEB" fill-opacity="0.5"/>
<path d="M1.10815 704.237V685L37.9907 734.347V753.583L1.10815 704.237Z" fill="#EBEBEB" fill-opacity="0.5"/>
<path d="M402.549 772.82V753.583L365.667 802.93V822.166L402.549 772.82Z" fill="#EBEBEB" fill-opacity="0.5"/>
<path d="M37.686 704.237V685L74.5686 734.347V753.583L37.686 704.237Z" fill="#EBEBEB" fill-opacity="0.5"/>
<path d="M365.972 772.82V753.583L329.089 802.93V822.166L365.972 772.82Z" fill="#EBEBEB" fill-opacity="0.5"/>
<path d="M74.2638 704.237V685L111.146 734.347V753.583L74.2638 704.237Z" fill="#EBEBEB" fill-opacity="0.5"/>
<path d="M329.394 772.82V753.583L292.511 802.93V822.166L329.394 772.82Z" fill="#EBEBEB" fill-opacity="0.5"/>
<path d="M110.841 704.237V685L147.724 734.347V753.583L110.841 704.237Z" fill="#EBEBEB" fill-opacity="0.5"/>
<path d="M292.816 772.82V753.583L255.934 802.93V822.166L292.816 772.82Z" fill="#EBEBEB" fill-opacity="0.5"/>
<path d="M147.419 704.237V685L184.302 734.347V753.583L147.419 704.237Z" fill="#EBEBEB" fill-opacity="0.5"/>
<path d="M256.238 772.82V753.583L219.356 802.93V822.166L256.238 772.82Z" fill="#EBEBEB" fill-opacity="0.5"/>
<path d="M183.997 704.237V685L220.88 734.347V753.583L183.997 704.237Z" fill="#EBEBEB" fill-opacity="0.5"/>
<path d="M219.66 772.82V753.583L182.778 802.93V822.166L219.66 772.82Z" fill="#EBEBEB" fill-opacity="0.5"/>
<path d="M220.575 704.237V685L257.458 734.347V753.583L220.575 704.237Z" fill="#EBEBEB" fill-opacity="0.5"/>
<path d="M183.083 772.82V753.583L146.2 802.93V822.166L183.083 772.82Z" fill="#EBEBEB" fill-opacity="0.5"/>
<path d="M257.153 704.237V685L294.035 734.347V753.583L257.153 704.237Z" fill="#EBEBEB" fill-opacity="0.5"/>
<path d="M146.505 772.82V753.583L109.622 802.93V822.166L146.505 772.82Z" fill="#EBEBEB" fill-opacity="0.5"/>
<path d="M293.73 704.237V685L330.613 734.347V753.583L293.73 704.237Z" fill="#EBEBEB" fill-opacity="0.5"/>
<path d="M109.927 772.82V753.583L73.0447 802.93V822.166L109.927 772.82Z" fill="#EBEBEB" fill-opacity="0.5"/>
<path d="M330.308 704.237V685L367.191 734.347V753.583L330.308 704.237Z" fill="#EBEBEB" fill-opacity="0.5"/>
<path d="M73.3494 772.82V753.583L36.4668 802.93V822.166L73.3494 772.82Z" fill="#EBEBEB" fill-opacity="0.5"/>
<path d="M366.886 704.237V685L403.769 734.347V753.583L366.886 704.237Z" fill="#EBEBEB" fill-opacity="0.5"/>
<path d="M36.7716 772.82V753.583L-0.110985 802.93V822.166L36.7716 772.82Z" fill="#EBEBEB" fill-opacity="0.5"/>
<path d="M403.464 704.237V685L440.346 734.347V753.583L403.464 704.237Z" fill="#EBEBEB" fill-opacity="0.5"/>
<path d="M0.193726 772.82V753.583L-36.6889 802.93V822.166L0.193726 772.82Z" fill="#EBEBEB" fill-opacity="0.5"/>
<path d="M440.042 704.237V685L476.924 734.347V753.583L440.042 704.237Z" fill="#EBEBEB" fill-opacity="0.5"/>
<path d="M476.619 704.237V685L513.502 734.347V753.583L476.619 704.237Z" fill="#EBEBEB" fill-opacity="0.5"/>
<path d="M513.197 704.237V685L550.08 734.347V753.583L513.197 704.237Z" fill="#EBEBEB" fill-opacity="0.5"/>
<path d="M549.775 704.237V685L586.657 734.347V753.583L549.775 704.237Z" fill="#EBEBEB" fill-opacity="0.5"/>
<path d="M586.657 909.82V890.583L549.775 939.93V959.167L586.657 909.82Z" fill="#EBEBEB" fill-opacity="0.5"/>
<path d="M549.775 909.82V890.583L512.892 939.93V959.167L549.775 909.82Z" fill="#EBEBEB" fill-opacity="0.5"/>
<path d="M512.892 909.82V890.583L476.01 939.93V959.167L512.892 909.82Z" fill="#EBEBEB" fill-opacity="0.5"/>
<path d="M476.01 909.82V890.583L439.432 939.93V959.167L476.01 909.82Z" fill="#EBEBEB" fill-opacity="0.5"/>
<path d="M-35.7744 841.237V822L1.10818 871.347V890.583L-35.7744 841.237Z" fill="#EBEBEB" fill-opacity="0.5"/>
<path d="M439.432 909.82V890.583L402.549 939.93V959.167L439.432 909.82Z" fill="#EBEBEB" fill-opacity="0.5"/>
<path d="M1.10815 841.237V822L37.9907 871.347V890.583L1.10815 841.237Z" fill="#EBEBEB" fill-opacity="0.5"/>
<path d="M402.549 909.82V890.583L365.667 939.93V959.167L402.549 909.82Z" fill="#EBEBEB" fill-opacity="0.5"/>
<path d="M37.686 841.237V822L74.5686 871.347V890.583L37.686 841.237Z" fill="#EBEBEB" fill-opacity="0.5"/>
<path d="M365.972 909.82V890.583L329.089 939.93V959.167L365.972 909.82Z" fill="#EBEBEB" fill-opacity="0.5"/>
<path d="M74.2638 841.237V822L111.146 871.347V890.583L74.2638 841.237Z" fill="#EBEBEB" fill-opacity="0.5"/>
<path d="M329.394 909.82V890.583L292.511 939.93V959.167L329.394 909.82Z" fill="#EBEBEB" fill-opacity="0.5"/>
<path d="M110.841 841.237V822L147.724 871.347V890.583L110.841 841.237Z" fill="#EBEBEB" fill-opacity="0.5"/>
<path d="M292.816 909.82V890.583L255.934 939.93V959.167L292.816 909.82Z" fill="#EBEBEB" fill-opacity="0.5"/>
<path d="M147.419 841.237V822L184.302 871.347V890.583L147.419 841.237Z" fill="#EBEBEB" fill-opacity="0.5"/>
<path d="M256.238 909.82V890.583L219.356 939.93V959.167L256.238 909.82Z" fill="#EBEBEB" fill-opacity="0.5"/>
<path d="M183.997 841.237V822L220.88 871.347V890.583L183.997 841.237Z" fill="#EBEBEB" fill-opacity="0.5"/>
<path d="M219.66 909.82V890.583L182.778 939.93V959.167L219.66 909.82Z" fill="#EBEBEB" fill-opacity="0.5"/>
<path d="M220.575 841.237V822L257.458 871.347V890.583L220.575 841.237Z" fill="#EBEBEB" fill-opacity="0.5"/>
<path d="M183.083 909.82V890.583L146.2 939.93V959.167L183.083 909.82Z" fill="#EBEBEB" fill-opacity="0.5"/>
<path d="M257.153 841.237V822L294.035 871.347V890.583L257.153 841.237Z" fill="#EBEBEB" fill-opacity="0.5"/>
<path d="M146.505 909.82V890.583L109.622 939.93V959.167L146.505 909.82Z" fill="#EBEBEB" fill-opacity="0.5"/>
<path d="M293.73 841.237V822L330.613 871.347V890.583L293.73 841.237Z" fill="#EBEBEB" fill-opacity="0.5"/>
<path d="M109.927 909.82V890.583L73.0447 939.93V959.167L109.927 909.82Z" fill="#EBEBEB" fill-opacity="0.5"/>
<path d="M330.308 841.237V822L367.191 871.347V890.583L330.308 841.237Z" fill="#EBEBEB" fill-opacity="0.5"/>
<path d="M73.3494 909.82V890.583L36.4668 939.93V959.167L73.3494 909.82Z" fill="#EBEBEB" fill-opacity="0.5"/>
<path d="M366.886 841.237V822L403.769 871.347V890.583L366.886 841.237Z" fill="#EBEBEB" fill-opacity="0.5"/>
<path d="M36.7716 909.82V890.583L-0.110985 939.93V959.167L36.7716 909.82Z" fill="#EBEBEB" fill-opacity="0.5"/>
<path d="M403.464 841.237V822L440.346 871.347V890.583L403.464 841.237Z" fill="#EBEBEB" fill-opacity="0.5"/>
<path d="M0.193726 909.82V890.583L-36.6889 939.93V959.167L0.193726 909.82Z" fill="#EBEBEB" fill-opacity="0.5"/>
<path d="M440.042 841.237V822L476.924 871.347V890.583L440.042 841.237Z" fill="#EBEBEB" fill-opacity="0.5"/>
<path d="M476.619 841.237V822L513.502 871.347V890.583L476.619 841.237Z" fill="#EBEBEB" fill-opacity="0.5"/>
<path d="M513.197 841.237V822L550.08 871.347V890.583L513.197 841.237Z" fill="#EBEBEB" fill-opacity="0.5"/>
<path d="M549.775 841.237V822L586.657 871.347V890.583L549.775 841.237Z" fill="#EBEBEB" fill-opacity="0.5"/>
<path d="M586.657 1046.82V1027.58L549.775 1076.93V1096.17L586.657 1046.82Z" fill="#EBEBEB" fill-opacity="0.5"/>
<path d="M549.775 1046.82V1027.58L512.892 1076.93V1096.17L549.775 1046.82Z" fill="#EBEBEB" fill-opacity="0.5"/>
<path d="M512.892 1046.82V1027.58L476.01 1076.93V1096.17L512.892 1046.82Z" fill="#EBEBEB" fill-opacity="0.5"/>
<path d="M476.01 1046.82V1027.58L439.432 1076.93V1096.17L476.01 1046.82Z" fill="#EBEBEB" fill-opacity="0.5"/>
<path d="M-35.7744 978.237V959L1.10818 1008.35V1027.58L-35.7744 978.237Z" fill="#EBEBEB" fill-opacity="0.5"/>
<path d="M439.432 1046.82V1027.58L402.549 1076.93V1096.17L439.432 1046.82Z" fill="#EBEBEB" fill-opacity="0.5"/>
<path d="M1.10815 978.237V959L37.9907 1008.35V1027.58L1.10815 978.237Z" fill="#EBEBEB" fill-opacity="0.5"/>
<path d="M402.549 1046.82V1027.58L365.667 1076.93V1096.17L402.549 1046.82Z" fill="#EBEBEB" fill-opacity="0.5"/>
<path d="M37.686 978.237V959L74.5686 1008.35V1027.58L37.686 978.237Z" fill="#EBEBEB" fill-opacity="0.5"/>
<path d="M365.972 1046.82V1027.58L329.089 1076.93V1096.17L365.972 1046.82Z" fill="#EBEBEB" fill-opacity="0.5"/>
<path d="M74.2638 978.237V959L111.146 1008.35V1027.58L74.2638 978.237Z" fill="#EBEBEB" fill-opacity="0.5"/>
<path d="M329.394 1046.82V1027.58L292.511 1076.93V1096.17L329.394 1046.82Z" fill="#EBEBEB" fill-opacity="0.5"/>
<path d="M110.841 978.237V959L147.724 1008.35V1027.58L110.841 978.237Z" fill="#EBEBEB" fill-opacity="0.5"/>
<path d="M292.816 1046.82V1027.58L255.934 1076.93V1096.17L292.816 1046.82Z" fill="#EBEBEB" fill-opacity="0.5"/>
<path d="M147.419 978.237V959L184.302 1008.35V1027.58L147.419 978.237Z" fill="#EBEBEB" fill-opacity="0.5"/>
<path d="M256.238 1046.82V1027.58L219.356 1076.93V1096.17L256.238 1046.82Z" fill="#EBEBEB" fill-opacity="0.5"/>
<path d="M183.997 978.237V959L220.88 1008.35V1027.58L183.997 978.237Z" fill="#EBEBEB" fill-opacity="0.5"/>
<path d="M219.66 1046.82V1027.58L182.778 1076.93V1096.17L219.66 1046.82Z" fill="#EBEBEB" fill-opacity="0.5"/>
<path d="M220.575 978.237V959L257.458 1008.35V1027.58L220.575 978.237Z" fill="#EBEBEB" fill-opacity="0.5"/>
<path d="M183.083 1046.82V1027.58L146.2 1076.93V1096.17L183.083 1046.82Z" fill="#EBEBEB" fill-opacity="0.5"/>
<path d="M257.153 978.237V959L294.035 1008.35V1027.58L257.153 978.237Z" fill="#EBEBEB" fill-opacity="0.5"/>
<path d="M146.505 1046.82V1027.58L109.622 1076.93V1096.17L146.505 1046.82Z" fill="#EBEBEB" fill-opacity="0.5"/>
<path d="M293.73 978.237V959L330.613 1008.35V1027.58L293.73 978.237Z" fill="#EBEBEB" fill-opacity="0.5"/>
<path d="M109.927 1046.82V1027.58L73.0447 1076.93V1096.17L109.927 1046.82Z" fill="#EBEBEB" fill-opacity="0.5"/>
<path d="M330.308 978.237V959L367.191 1008.35V1027.58L330.308 978.237Z" fill="#EBEBEB" fill-opacity="0.5"/>
<path d="M73.3494 1046.82V1027.58L36.4668 1076.93V1096.17L73.3494 1046.82Z" fill="#EBEBEB" fill-opacity="0.5"/>
<path d="M366.886 978.237V959L403.769 1008.35V1027.58L366.886 978.237Z" fill="#EBEBEB" fill-opacity="0.5"/>
<path d="M36.7716 1046.82V1027.58L-0.110985 1076.93V1096.17L36.7716 1046.82Z" fill="#EBEBEB" fill-opacity="0.5"/>
<path d="M403.464 978.237V959L440.346 1008.35V1027.58L403.464 978.237Z" fill="#EBEBEB" fill-opacity="0.5"/>
<path d="M0.193726 1046.82V1027.58L-36.6889 1076.93V1096.17L0.193726 1046.82Z" fill="#EBEBEB" fill-opacity="0.5"/>
<path d="M440.042 978.237V959L476.924 1008.35V1027.58L440.042 978.237Z" fill="#EBEBEB" fill-opacity="0.5"/>
<path d="M476.619 978.237V959L513.502 1008.35V1027.58L476.619 978.237Z" fill="#EBEBEB" fill-opacity="0.5"/>
<path d="M513.197 978.237V959L550.08 1008.35V1027.58L513.197 978.237Z" fill="#EBEBEB" fill-opacity="0.5"/>
<path d="M549.775 978.237V959L586.657 1008.35V1027.58L549.775 978.237Z" fill="#EBEBEB" fill-opacity="0.5"/>
<path d="M586.657 1183.82V1164.58L549.775 1213.93V1233.17L586.657 1183.82Z" fill="#EBEBEB" fill-opacity="0.5"/>
<path d="M549.775 1183.82V1164.58L512.892 1213.93V1233.17L549.775 1183.82Z" fill="#EBEBEB" fill-opacity="0.5"/>
<path d="M512.892 1183.82V1164.58L476.01 1213.93V1233.17L512.892 1183.82Z" fill="#EBEBEB" fill-opacity="0.5"/>
<path d="M476.01 1183.82V1164.58L439.432 1213.93V1233.17L476.01 1183.82Z" fill="#EBEBEB" fill-opacity="0.5"/>
<path d="M-35.7744 1115.24V1096L1.10818 1145.35V1164.58L-35.7744 1115.24Z" fill="#EBEBEB" fill-opacity="0.5"/>
<path d="M439.432 1183.82V1164.58L402.549 1213.93V1233.17L439.432 1183.82Z" fill="#EBEBEB" fill-opacity="0.5"/>
<path d="M1.10815 1115.24V1096L37.9907 1145.35V1164.58L1.10815 1115.24Z" fill="#EBEBEB" fill-opacity="0.5"/>
<path d="M402.549 1183.82V1164.58L365.667 1213.93V1233.17L402.549 1183.82Z" fill="#EBEBEB" fill-opacity="0.5"/>
<path d="M37.686 1115.24V1096L74.5686 1145.35V1164.58L37.686 1115.24Z" fill="#EBEBEB" fill-opacity="0.5"/>
<path d="M365.972 1183.82V1164.58L329.089 1213.93V1233.17L365.972 1183.82Z" fill="#EBEBEB" fill-opacity="0.5"/>
<path d="M74.2638 1115.24V1096L111.146 1145.35V1164.58L74.2638 1115.24Z" fill="#EBEBEB" fill-opacity="0.5"/>
<path d="M329.394 1183.82V1164.58L292.511 1213.93V1233.17L329.394 1183.82Z" fill="#EBEBEB" fill-opacity="0.5"/>
<path d="M110.841 1115.24V1096L147.724 1145.35V1164.58L110.841 1115.24Z" fill="#EBEBEB" fill-opacity="0.5"/>
<path d="M292.816 1183.82V1164.58L255.934 1213.93V1233.17L292.816 1183.82Z" fill="#EBEBEB" fill-opacity="0.5"/>
<path d="M147.419 1115.24V1096L184.302 1145.35V1164.58L147.419 1115.24Z" fill="#EBEBEB" fill-opacity="0.5"/>
<path d="M256.238 1183.82V1164.58L219.356 1213.93V1233.17L256.238 1183.82Z" fill="#EBEBEB" fill-opacity="0.5"/>
<path d="M183.997 1115.24V1096L220.88 1145.35V1164.58L183.997 1115.24Z" fill="#EBEBEB" fill-opacity="0.5"/>
<path d="M219.66 1183.82V1164.58L182.778 1213.93V1233.17L219.66 1183.82Z" fill="#EBEBEB" fill-opacity="0.5"/>
<path d="M220.575 1115.24V1096L257.458 1145.35V1164.58L220.575 1115.24Z" fill="#EBEBEB" fill-opacity="0.5"/>
<path d="M183.083 1183.82V1164.58L146.2 1213.93V1233.17L183.083 1183.82Z" fill="#EBEBEB" fill-opacity="0.5"/>
<path d="M257.153 1115.24V1096L294.035 1145.35V1164.58L257.153 1115.24Z" fill="#EBEBEB" fill-opacity="0.5"/>
<path d="M146.505 1183.82V1164.58L109.622 1213.93V1233.17L146.505 1183.82Z" fill="#EBEBEB" fill-opacity="0.5"/>
<path d="M293.73 1115.24V1096L330.613 1145.35V1164.58L293.73 1115.24Z" fill="#EBEBEB" fill-opacity="0.5"/>
<path d="M109.927 1183.82V1164.58L73.0447 1213.93V1233.17L109.927 1183.82Z" fill="#EBEBEB" fill-opacity="0.5"/>
<path d="M330.308 1115.24V1096L367.191 1145.35V1164.58L330.308 1115.24Z" fill="#EBEBEB" fill-opacity="0.5"/>
<path d="M73.3494 1183.82V1164.58L36.4668 1213.93V1233.17L73.3494 1183.82Z" fill="#EBEBEB" fill-opacity="0.5"/>
<path d="M366.886 1115.24V1096L403.769 1145.35V1164.58L366.886 1115.24Z" fill="#EBEBEB" fill-opacity="0.5"/>
<path d="M36.7716 1183.82V1164.58L-0.110985 1213.93V1233.17L36.7716 1183.82Z" fill="#EBEBEB" fill-opacity="0.5"/>
<path d="M403.464 1115.24V1096L440.346 1145.35V1164.58L403.464 1115.24Z" fill="#EBEBEB" fill-opacity="0.5"/>
<path d="M0.193726 1183.82V1164.58L-36.6889 1213.93V1233.17L0.193726 1183.82Z" fill="#EBEBEB" fill-opacity="0.5"/>
<path d="M440.042 1115.24V1096L476.924 1145.35V1164.58L440.042 1115.24Z" fill="#EBEBEB" fill-opacity="0.5"/>
<path d="M476.619 1115.24V1096L513.502 1145.35V1164.58L476.619 1115.24Z" fill="#EBEBEB" fill-opacity="0.5"/>
<path d="M513.197 1115.24V1096L550.08 1145.35V1164.58L513.197 1115.24Z" fill="#EBEBEB" fill-opacity="0.5"/>
<path d="M549.775 1115.24V1096L586.657 1145.35V1164.58L549.775 1115.24Z" fill="#EBEBEB" fill-opacity="0.5"/>
<path d="M586.657 1320.82V1301.58L549.775 1350.93V1370.17L586.657 1320.82Z" fill="#EBEBEB" fill-opacity="0.5"/>
<path d="M549.775 1320.82V1301.58L512.892 1350.93V1370.17L549.775 1320.82Z" fill="#EBEBEB" fill-opacity="0.5"/>
<path d="M512.892 1320.82V1301.58L476.01 1350.93V1370.17L512.892 1320.82Z" fill="#EBEBEB" fill-opacity="0.5"/>
<path d="M476.01 1320.82V1301.58L439.432 1350.93V1370.17L476.01 1320.82Z" fill="#EBEBEB" fill-opacity="0.5"/>
<path d="M-35.7744 1252.24V1233L1.10818 1282.35V1301.58L-35.7744 1252.24Z" fill="#EBEBEB" fill-opacity="0.5"/>
<path d="M439.432 1320.82V1301.58L402.549 1350.93V1370.17L439.432 1320.82Z" fill="#EBEBEB" fill-opacity="0.5"/>
<path d="M1.10815 1252.24V1233L37.9907 1282.35V1301.58L1.10815 1252.24Z" fill="#EBEBEB" fill-opacity="0.5"/>
<path d="M402.549 1320.82V1301.58L365.667 1350.93V1370.17L402.549 1320.82Z" fill="#EBEBEB" fill-opacity="0.5"/>
<path d="M37.686 1252.24V1233L74.5686 1282.35V1301.58L37.686 1252.24Z" fill="#EBEBEB" fill-opacity="0.5"/>
<path d="M365.972 1320.82V1301.58L329.089 1350.93V1370.17L365.972 1320.82Z" fill="#EBEBEB" fill-opacity="0.5"/>
<path d="M74.2638 1252.24V1233L111.146 1282.35V1301.58L74.2638 1252.24Z" fill="#EBEBEB" fill-opacity="0.5"/>
<path d="M329.394 1320.82V1301.58L292.511 1350.93V1370.17L329.394 1320.82Z" fill="#EBEBEB" fill-opacity="0.5"/>
<path d="M110.841 1252.24V1233L147.724 1282.35V1301.58L110.841 1252.24Z" fill="#EBEBEB" fill-opacity="0.5"/>
<path d="M292.816 1320.82V1301.58L255.934 1350.93V1370.17L292.816 1320.82Z" fill="#EBEBEB" fill-opacity="0.5"/>
<path d="M147.419 1252.24V1233L184.302 1282.35V1301.58L147.419 1252.24Z" fill="#EBEBEB" fill-opacity="0.5"/>
<path d="M256.238 1320.82V1301.58L219.356 1350.93V1370.17L256.238 1320.82Z" fill="#EBEBEB" fill-opacity="0.5"/>
<path d="M183.997 1252.24V1233L220.88 1282.35V1301.58L183.997 1252.24Z" fill="#EBEBEB" fill-opacity="0.5"/>
<path d="M219.66 1320.82V1301.58L182.778 1350.93V1370.17L219.66 1320.82Z" fill="#EBEBEB" fill-opacity="0.5"/>
<path d="M220.575 1252.24V1233L257.458 1282.35V1301.58L220.575 1252.24Z" fill="#EBEBEB" fill-opacity="0.5"/>
<path d="M183.083 1320.82V1301.58L146.2 1350.93V1370.17L183.083 1320.82Z" fill="#EBEBEB" fill-opacity="0.5"/>
<path d="M257.153 1252.24V1233L294.035 1282.35V1301.58L257.153 1252.24Z" fill="#EBEBEB" fill-opacity="0.5"/>
<path d="M146.505 1320.82V1301.58L109.622 1350.93V1370.17L146.505 1320.82Z" fill="#EBEBEB" fill-opacity="0.5"/>
<path d="M293.73 1252.24V1233L330.613 1282.35V1301.58L293.73 1252.24Z" fill="#EBEBEB" fill-opacity="0.5"/>
<path d="M109.927 1320.82V1301.58L73.0447 1350.93V1370.17L109.927 1320.82Z" fill="#EBEBEB" fill-opacity="0.5"/>
<path d="M330.308 1252.24V1233L367.191 1282.35V1301.58L330.308 1252.24Z" fill="#EBEBEB" fill-opacity="0.5"/>
<path d="M73.3494 1320.82V1301.58L36.4668 1350.93V1370.17L73.3494 1320.82Z" fill="#EBEBEB" fill-opacity="0.5"/>
<path d="M366.886 1252.24V1233L403.769 1282.35V1301.58L366.886 1252.24Z" fill="#EBEBEB" fill-opacity="0.5"/>
<path d="M36.7716 1320.82V1301.58L-0.110985 1350.93V1370.17L36.7716 1320.82Z" fill="#EBEBEB" fill-opacity="0.5"/>
<path d="M403.464 1252.24V1233L440.346 1282.35V1301.58L403.464 1252.24Z" fill="#EBEBEB" fill-opacity="0.5"/>
<path d="M0.193726 1320.82V1301.58L-36.6889 1350.93V1370.17L0.193726 1320.82Z" fill="#EBEBEB" fill-opacity="0.5"/>
<path d="M440.042 1252.24V1233L476.924 1282.35V1301.58L440.042 1252.24Z" fill="#EBEBEB" fill-opacity="0.5"/>
<path d="M476.619 1252.24V1233L513.502 1282.35V1301.58L476.619 1252.24Z" fill="#EBEBEB" fill-opacity="0.5"/>
<path d="M513.197 1252.24V1233L550.08 1282.35V1301.58L513.197 1252.24Z" fill="#EBEBEB" fill-opacity="0.5"/>
<path d="M549.775 1252.24V1233L586.657 1282.35V1301.58L549.775 1252.24Z" fill="#EBEBEB" fill-opacity="0.5"/>
</svg>
