<svg width="40" height="40" viewBox="0 0 40 40" fill="none" xmlns="http://www.w3.org/2000/svg">
<g clip-path="url(#clip0_1_1810)">
<path d="M38.81 19.78C38.81 9.27002 30.29 0.75 19.78 0.75C9.27002 0.75 0.75 9.27002 0.75 19.78C0.75 30.29 9.27002 38.81 19.78 38.81C30.29 38.81 38.81 30.29 38.81 19.78Z" stroke="white" stroke-width="1.5" stroke-miterlimit="10"/>
<path d="M16.88 31.2398H21.51V19.6398H24.79L25.14 15.7498H21.56V13.5398C21.56 12.6298 21.74 12.2598 22.63 12.2598H25.14V8.25977H21.93C18.48 8.25977 16.93 9.77976 16.93 12.6898V15.7798H14.52V19.7198H16.93L16.88 31.2398Z" fill="white"/>
</g>
<defs>
<clipPath id="clip0_1_1810">
<rect width="39.56" height="39.56" fill="white"/>
</clipPath>
</defs>
</svg>
