<svg width="40" height="40" viewBox="0 0 40 40" fill="none" xmlns="http://www.w3.org/2000/svg">
<g clip-path="url(#clip0_1_1800)">
<path d="M38.81 19.78C38.81 9.27002 30.29 0.75 19.78 0.75C9.27002 0.75 0.75 9.27002 0.75 19.78C0.75 30.29 9.27002 38.81 19.78 38.81C30.29 38.81 38.81 30.29 38.81 19.78Z" stroke="white" stroke-width="1.5" stroke-miterlimit="10"/>
<path d="M15.09 15.54H11.15V28.26H15.09V15.54Z" fill="white"/>
<path d="M13.1 13.8698C13.5656 13.8738 14.0219 13.7393 14.411 13.4835C14.8 13.2277 15.1044 12.8621 15.2853 12.4331C15.4662 12.004 15.5156 11.5309 15.4272 11.0738C15.3388 10.6166 15.1166 10.196 14.7888 9.86534C14.4609 9.53468 14.0423 9.30887 13.5859 9.21656C13.1295 9.12425 12.6559 9.16961 12.2254 9.34687C11.7948 9.52414 11.4266 9.82531 11.1675 10.2122C10.9084 10.5991 10.77 11.0542 10.77 11.5198C10.7687 11.8271 10.8279 12.1317 10.9443 12.4161C11.0606 12.7005 11.2319 12.9592 11.4483 13.1774C11.6646 13.3956 11.9219 13.5691 12.2053 13.6879C12.4887 13.8067 12.7927 13.8685 13.1 13.8698Z" fill="white"/>
<path d="M21.39 21.5799C21.39 19.7899 22.21 18.7299 23.79 18.7299C25.37 18.7299 25.93 19.7299 25.93 21.5799V28.2599H29.9V20.2099C29.9 16.7999 27.97 15.1499 25.27 15.1499C24.5044 15.1382 23.7489 15.3256 23.0775 15.6938C22.4061 16.0619 21.8418 16.5981 21.44 17.2499V15.5399H17.66V28.2599H21.44L21.39 21.5799Z" fill="white"/>
</g>
<defs>
<clipPath id="clip0_1_1800">
<rect width="39.56" height="39.56" fill="white"/>
</clipPath>
</defs>
</svg>
