<svg width="40" height="40" viewBox="0 0 40 40" fill="none" xmlns="http://www.w3.org/2000/svg">
<g clip-path="url(#clip0_1_1805)">
<path d="M19.78 38.8101C14.7409 38.8101 9.90816 36.8083 6.34497 33.2451C2.78178 29.6819 0.779999 24.8492 0.779999 19.8101C0.779999 14.7709 2.78178 9.93821 6.34497 6.37502C9.90816 2.81182 14.7409 0.810059 19.78 0.810059C24.8191 0.810059 29.6518 2.81182 33.215 6.37502C36.7782 9.93821 38.78 14.7709 38.78 19.8101C38.78 24.8492 36.7782 29.6819 33.215 33.2451C29.6518 36.8083 24.8191 38.8101 19.78 38.8101Z" stroke="white" stroke-width="1.5" stroke-miterlimit="10"/>
<path d="M19.78 11.2399C22.57 11.2399 22.9 11.2399 24 11.2999C24.659 11.3109 25.3114 11.4326 25.93 11.6599C26.3831 11.8272 26.7931 12.0937 27.13 12.4399C27.4806 12.7731 27.7478 13.1842 27.91 13.6399C28.147 14.2592 28.269 14.9167 28.27 15.5799C28.32 16.6799 28.33 17.0099 28.33 19.7999C28.33 22.5899 28.33 22.9099 28.27 24.0099C28.269 24.6731 28.147 25.3305 27.91 25.9499C27.7478 26.4056 27.4806 26.8167 27.13 27.1499C26.7931 27.4961 26.3831 27.7626 25.93 27.9299C25.3114 28.1572 24.659 28.2789 24 28.2899C22.9 28.3399 22.57 28.3499 19.78 28.3499C16.99 28.3499 16.66 28.3499 15.56 28.2899C14.901 28.2789 14.2486 28.1572 13.63 27.9299C13.1769 27.7626 12.7668 27.4961 12.43 27.1499C12.0827 26.8139 11.8161 26.4036 11.65 25.9499C11.413 25.3305 11.291 24.6731 11.29 24.0099C11.24 22.9099 11.23 22.5799 11.23 19.7999C11.23 17.0199 11.23 16.6799 11.29 15.5799C11.291 14.9167 11.413 14.2592 11.65 13.6399C11.8161 13.1861 12.0827 12.7758 12.43 12.4399C12.7668 12.0937 13.1769 11.8272 13.63 11.6599C14.2486 11.4326 14.901 11.3109 15.56 11.2999C16.66 11.2999 16.99 11.2399 19.78 11.2399ZM19.78 9.35986C16.95 9.35986 16.59 9.35986 15.48 9.41986C14.6148 9.4368 13.759 9.60256 12.95 9.90987C12.2604 10.1715 11.6325 10.5731 11.1059 11.0895C10.5792 11.6058 10.1652 12.2256 9.88998 12.9099C9.59145 13.7209 9.42928 14.5758 9.41 15.4399C9.36 16.5599 9.35001 16.9099 9.35001 19.7499C9.35001 22.5899 9.35 22.9399 9.41 24.0499C9.42928 24.9139 9.59145 25.7688 9.88998 26.5799C10.1547 27.2768 10.5675 27.9081 11.1 28.4299C11.6197 28.9626 12.2517 29.3725 12.95 29.6299C13.759 29.9372 14.6148 30.1029 15.48 30.1199C16.59 30.1699 16.95 30.1799 19.78 30.1799C22.61 30.1799 22.97 30.1799 24.08 30.1199C24.9483 30.1017 25.8072 29.936 26.62 29.6299C27.3147 29.3712 27.9432 28.9613 28.46 28.4299C28.9925 27.9081 29.4053 27.2768 29.67 26.5799C29.9685 25.7688 30.1307 24.9139 30.15 24.0499C30.2 22.9399 30.21 22.5799 30.21 19.7499C30.21 16.9199 30.21 16.5599 30.15 15.4399C30.1307 14.5758 29.9685 13.7209 29.67 12.9099C29.3943 12.2275 28.9813 11.6091 28.4566 11.093C27.932 10.5769 27.3068 10.1742 26.62 9.90987C25.8072 9.60372 24.9483 9.43802 24.08 9.41986C22.97 9.41986 22.61 9.35986 19.78 9.35986Z" fill="white"/>
<path d="M19.78 14.4199C18.7199 14.4199 17.6836 14.7343 16.8021 15.3233C15.9207 15.9122 15.2337 16.7493 14.828 17.7287C14.4223 18.7082 14.3162 19.7859 14.523 20.8256C14.7298 21.8653 15.2403 22.8204 15.9899 23.57C16.7395 24.3196 17.6946 24.8301 18.7343 25.0369C19.774 25.2438 20.8518 25.1376 21.8312 24.7319C22.8106 24.3262 23.6477 23.6392 24.2367 22.7578C24.8256 21.8763 25.14 20.84 25.14 19.7799C25.14 19.076 25.0014 18.379 24.732 17.7287C24.4626 17.0784 24.0678 16.4876 23.5701 15.9898C23.0724 15.4921 22.4815 15.0973 21.8312 14.8279C21.1809 14.5586 20.4839 14.4199 19.78 14.4199ZM19.78 23.2499C19.0913 23.2499 18.4181 23.0456 17.8456 22.6627C17.2731 22.2799 16.8271 21.7358 16.564 21.0993C16.3009 20.4629 16.2325 19.7627 16.3676 19.0873C16.5027 18.412 16.8351 17.792 17.3228 17.3057C17.8105 16.8194 18.4315 16.4887 19.1072 16.3556C19.7829 16.2224 20.483 16.2928 21.1187 16.5577C21.7544 16.8226 22.2972 17.2702 22.6784 17.8438C23.0596 18.4174 23.262 19.0912 23.26 19.7799C23.26 20.2365 23.1699 20.6885 22.9949 21.1102C22.8199 21.5318 22.5634 21.9148 22.2401 22.2371C21.9168 22.5595 21.5331 22.8149 21.111 22.9887C20.6888 23.1625 20.2365 23.2512 19.78 23.2499Z" fill="white"/>
<path d="M26.6 14.24C26.598 14.4868 26.523 14.7274 26.3845 14.9317C26.246 15.1359 26.0501 15.2946 25.8215 15.3877C25.5929 15.4807 25.3419 15.5041 25.1001 15.4547C24.8583 15.4054 24.6365 15.2855 24.4627 15.1103C24.2888 14.9351 24.1708 14.7124 24.1233 14.4702C24.0759 14.228 24.1012 13.9772 24.1961 13.7493C24.291 13.5215 24.4513 13.3269 24.6566 13.19C24.8619 13.053 25.1032 12.98 25.35 12.98C25.515 12.98 25.6784 13.0126 25.8307 13.0761C25.983 13.1395 26.1212 13.2325 26.2374 13.3496C26.3536 13.4668 26.4455 13.6057 26.5077 13.7585C26.57 13.9114 26.6013 14.075 26.6 14.24Z" fill="white"/>
</g>
<defs>
<clipPath id="clip0_1_1805">
<rect width="39.56" height="39.56" fill="white"/>
</clipPath>
</defs>
</svg>
