<svg width="40" height="40" viewBox="0 0 40 40" fill="none" xmlns="http://www.w3.org/2000/svg">
<g clip-path="url(#clip0_1_1813)">
<path d="M19.78 38.8101C14.7409 38.8101 9.90816 36.8083 6.34497 33.2451C2.78178 29.6819 0.779999 24.8492 0.779999 19.8101C0.779999 14.7709 2.78178 9.93821 6.34497 6.37502C9.90816 2.81182 14.7409 0.810059 19.78 0.810059C24.8191 0.810059 29.6518 2.81182 33.215 6.37502C36.7782 9.93821 38.78 14.7709 38.78 19.8101C38.78 24.8492 36.7782 29.6819 33.215 33.2451C29.6518 36.8083 24.8191 38.8101 19.78 38.8101Z" stroke="white" stroke-width="1.5" stroke-miterlimit="10"/>
<path d="M9.63 26.1498C11.4568 27.3204 13.5704 27.9661 15.7395 28.0163C17.9087 28.0664 20.0498 27.519 21.9287 26.434C23.8076 25.3489 25.352 23.7681 26.3928 21.8643C27.4336 19.9605 27.9308 17.8072 27.83 15.6398C28.6427 15.049 29.3465 14.3216 29.91 13.4898C29.15 13.8238 28.3445 14.0428 27.52 14.1398C28.3902 13.622 29.041 12.804 29.35 11.8398C28.5295 12.3204 27.6335 12.6585 26.7 12.8398C26.0717 12.1781 25.2432 11.7414 24.3422 11.5969C23.4413 11.4524 22.5178 11.6082 21.714 12.0402C20.9103 12.4722 20.2709 13.1565 19.8943 13.9876C19.5177 14.8188 19.4248 15.7507 19.63 16.6398C17.9773 16.5566 16.3605 16.1273 14.8842 15.3797C13.4079 14.6321 12.1051 13.5828 11.06 12.2998C10.526 13.2147 10.3621 14.2993 10.602 15.3312C10.8418 16.363 11.4672 17.2641 12.35 17.8498C11.6875 17.8303 11.0393 17.6519 10.46 17.3298C10.4499 18.2991 10.7778 19.2416 11.3874 19.9954C11.9969 20.7491 12.85 21.2669 13.8 21.4598C13.1873 21.6289 12.5436 21.6529 11.92 21.5298C12.1852 22.3575 12.703 23.0814 13.4007 23.5997C14.0984 24.118 14.941 24.4048 15.81 24.4198C14.9452 25.102 13.9538 25.6061 12.8931 25.903C11.8323 26.1999 10.7233 26.2838 9.63 26.1498Z" fill="white"/>
</g>
<defs>
<clipPath id="clip0_1_1813">
<rect width="39.56" height="39.56" fill="white"/>
</clipPath>
</defs>
</svg>
