<svg width="40" height="40" viewBox="0 0 40 40" fill="none" xmlns="http://www.w3.org/2000/svg">
<g clip-path="url(#clip0_1_1795)">
<path d="M19.78 38.8101C14.7409 38.8101 9.90816 36.8083 6.34497 33.2451C2.78178 29.6819 0.779999 24.8492 0.779999 19.8101C0.779999 14.7709 2.78178 9.93822 6.34497 6.37503C9.90816 2.81184 14.7409 0.810059 19.78 0.810059C24.8191 0.810059 29.6518 2.81184 33.215 6.37503C36.7782 9.93822 38.78 14.7709 38.78 19.8101C38.78 24.8492 36.7782 29.6819 33.215 33.2451C29.6518 36.8083 24.8191 38.8101 19.78 38.8101Z" stroke="white" stroke-width="1.5" stroke-miterlimit="10"/>
<path fill-rule="evenodd" clip-rule="evenodd" d="M31.8897 11.6866C32.3106 12.1092 32.614 12.6343 32.77 13.21C33.5166 17.5581 33.5166 22.0018 32.77 26.35C32.614 26.9257 32.3106 27.4507 31.8897 27.8734C31.4688 28.296 30.945 28.6016 30.37 28.76C28.26 29.33 19.78 29.33 19.78 29.33C19.78 29.33 11.31 29.33 9.18998 28.76C8.61632 28.601 8.09407 28.2951 7.6749 27.8724C7.25573 27.4497 6.95415 26.9249 6.79996 26.35C6.03999 22.0029 6.03999 17.557 6.79996 13.21C6.95415 12.635 7.25573 12.1102 7.6749 11.6876C8.09407 11.2649 8.61632 10.9589 9.18998 10.8C11.31 10.23 19.78 10.23 19.78 10.23C19.78 10.23 28.26 10.23 30.37 10.8C30.945 10.9583 31.4688 11.2639 31.8897 11.6866ZM16.66 15.25V24.31L24.63 19.78L16.66 15.25Z" fill="white"/>
</g>
<defs>
<clipPath id="clip0_1_1795">
<rect width="39.56" height="39.56" fill="white"/>
</clipPath>
</defs>
</svg>
